<svg width="100" height="100" viewBox="0 0 100 100" fill="none" xmlns="http://www.w3.org/2000/svg">
<rect x="1" y="1" width="98" height="98" stroke="black" stroke-width="2" stroke-dasharray="4 4"/>
<mask id="path-2-outside-1_29_2" maskUnits="userSpaceOnUse" x="26" y="12" width="49" height="54" fill="black">
<rect fill="white" x="26" y="12" width="49" height="54"/>
<path d="M33.1875 38.1875C33.1875 33.375 33.2708 29.1042 33.4375 25.375L29.2188 24.7188C28.9479 23.9479 28.7396 23.0938 28.5938 22.1562C28.4479 21.2188 28.375 20.3125 28.375 19.4375C28.375 18.7708 28.4271 18.0417 28.5312 17.25C31.2604 16.2917 34.8646 15.6042 39.3438 15.1875C43.8229 14.7708 48.1979 14.5625 52.4688 14.5625C55.6562 14.5625 58.3958 14.8125 60.6875 15.3125C62.9792 15.8125 64.8958 16.9479 66.4375 18.7188C68 20.4688 68.7812 23.0938 68.7812 26.5938C68.7812 28.0312 68.5521 29.625 68.0938 31.375C67.6354 33.1042 67 34.8333 66.1875 36.5625C65.4375 38.1458 64.5833 39.6562 63.625 41.0938C62.6875 42.5104 61.7083 43.7292 60.6875 44.75C61.2917 46.3333 61.9167 47.7812 62.5625 49.0938C63.2083 50.3854 64.1979 51.9583 65.5312 53.8125L69.9062 51.9688C71.5312 53.3646 72.4792 55.2188 72.75 57.5312C72.75 57.6562 72.25 58.25 71.25 59.3125C70.2708 60.375 68.9896 61.3646 67.4062 62.2812C65.8229 63.1771 64.0417 63.625 62.0625 63.625C60.5208 63.625 59.1354 63.3542 57.9062 62.8125C56.6979 62.2708 55.6979 61.3229 54.9062 59.9688C54.1354 58.6354 53.5208 57.0521 53.0625 55.2188C52.6042 53.3854 52.2812 51.5729 52.0938 49.7812L44.9688 49.4688C45.1562 51.0938 45.3958 52.7708 45.6875 54.5C45.9792 56.2083 46.1562 57.2396 46.2188 57.5938C46.5729 59.6562 46.8021 61.0625 46.9062 61.8125C45.9479 62.3958 44.7812 62.8438 43.4062 63.1562C42.0521 63.4688 40.6667 63.625 39.25 63.625C37.625 63.625 36.0521 63.4062 34.5312 62.9688C34.0729 61.1354 33.7292 57.9271 33.5 53.3438C33.2917 48.7396 33.1875 43.6875 33.1875 38.1875ZM52.625 41.9375C53.3542 39.8542 53.9271 37.5938 54.3438 35.1562C54.7812 32.6979 55.1771 29.7708 55.5312 26.375C54.9271 26.1458 54.1354 25.9688 53.1562 25.8438C52.1771 25.7188 51.2292 25.6562 50.3125 25.6562C48.2292 25.6562 46.6667 25.7083 45.625 25.8125C45.3958 33.6458 45.1458 39.1979 44.875 42.4688L52.625 41.9375Z"/>
</mask>
<path d="M33.1875 38.1875C33.1875 33.375 33.2708 29.1042 33.4375 25.375L29.2188 24.7188C28.9479 23.9479 28.7396 23.0938 28.5938 22.1562C28.4479 21.2188 28.375 20.3125 28.375 19.4375C28.375 18.7708 28.4271 18.0417 28.5312 17.25C31.2604 16.2917 34.8646 15.6042 39.3438 15.1875C43.8229 14.7708 48.1979 14.5625 52.4688 14.5625C55.6562 14.5625 58.3958 14.8125 60.6875 15.3125C62.9792 15.8125 64.8958 16.9479 66.4375 18.7188C68 20.4688 68.7812 23.0938 68.7812 26.5938C68.7812 28.0312 68.5521 29.625 68.0938 31.375C67.6354 33.1042 67 34.8333 66.1875 36.5625C65.4375 38.1458 64.5833 39.6562 63.625 41.0938C62.6875 42.5104 61.7083 43.7292 60.6875 44.75C61.2917 46.3333 61.9167 47.7812 62.5625 49.0938C63.2083 50.3854 64.1979 51.9583 65.5312 53.8125L69.9062 51.9688C71.5312 53.3646 72.4792 55.2188 72.75 57.5312C72.75 57.6562 72.25 58.25 71.25 59.3125C70.2708 60.375 68.9896 61.3646 67.4062 62.2812C65.8229 63.1771 64.0417 63.625 62.0625 63.625C60.5208 63.625 59.1354 63.3542 57.9062 62.8125C56.6979 62.2708 55.6979 61.3229 54.9062 59.9688C54.1354 58.6354 53.5208 57.0521 53.0625 55.2188C52.6042 53.3854 52.2812 51.5729 52.0938 49.7812L44.9688 49.4688C45.1562 51.0938 45.3958 52.7708 45.6875 54.5C45.9792 56.2083 46.1562 57.2396 46.2188 57.5938C46.5729 59.6562 46.8021 61.0625 46.9062 61.8125C45.9479 62.3958 44.7812 62.8438 43.4062 63.1562C42.0521 63.4688 40.6667 63.625 39.25 63.625C37.625 63.625 36.0521 63.4062 34.5312 62.9688C34.0729 61.1354 33.7292 57.9271 33.5 53.3438C33.2917 48.7396 33.1875 43.6875 33.1875 38.1875ZM52.625 41.9375C53.3542 39.8542 53.9271 37.5938 54.3438 35.1562C54.7812 32.6979 55.1771 29.7708 55.5312 26.375C54.9271 26.1458 54.1354 25.9688 53.1562 25.8438C52.1771 25.7188 51.2292 25.6562 50.3125 25.6562C48.2292 25.6562 46.6667 25.7083 45.625 25.8125C45.3958 33.6458 45.1458 39.1979 44.875 42.4688L52.625 41.9375Z" fill="#E7E7E7"/>
<path d="M33.4375 25.375L35.4355 25.4643L35.5155 23.6742L33.7449 23.3988L33.4375 25.375ZM29.2188 24.7188L27.3318 25.3817L27.7286 26.511L28.9113 26.695L29.2188 24.7188ZM28.5938 22.1562L26.6175 22.4637L28.5938 22.1562ZM28.5312 17.25L27.8686 15.363L26.7087 15.7703L26.5483 16.9891L28.5312 17.25ZM66.4375 18.7188L64.9291 20.032L64.9373 20.0414L64.9456 20.0508L66.4375 18.7188ZM68.0938 31.375L70.027 31.8874L70.0285 31.8817L68.0938 31.375ZM66.1875 36.5625L67.995 37.4187L67.9976 37.413L66.1875 36.5625ZM63.625 41.0938L61.9609 39.9843L61.9571 39.99L63.625 41.0938ZM60.6875 44.75L59.2733 43.3358L58.3569 44.2522L58.8189 45.463L60.6875 44.75ZM62.5625 49.0938L60.7679 49.9768L60.7736 49.9882L62.5625 49.0938ZM65.5312 53.8125L63.9075 54.9801L64.8385 56.2748L66.308 55.6555L65.5312 53.8125ZM69.9062 51.9688L71.2094 50.4516L70.2703 49.645L69.1295 50.1257L69.9062 51.9688ZM72.75 57.5312H74.75V57.4145L74.7364 57.2986L72.75 57.5312ZM71.25 59.3125L69.7936 57.9418L69.7864 57.9494L69.7793 57.9571L71.25 59.3125ZM67.4062 62.2812L68.3911 64.0219L68.3997 64.0171L68.4083 64.0121L67.4062 62.2812ZM57.9062 62.8125L57.0881 64.6376L57.0997 64.6427L57.9062 62.8125ZM54.9062 59.9688L53.1748 60.9698L53.1797 60.9781L54.9062 59.9688ZM53.0625 55.2188L51.1222 55.7038L53.0625 55.2188ZM52.0938 49.7812L54.0829 49.5731L53.9035 47.8587L52.1814 47.7832L52.0938 49.7812ZM44.9688 49.4688L45.0564 47.4707L42.7131 47.3679L42.9819 49.698L44.9688 49.4688ZM45.6875 54.5L43.7154 54.8327L43.716 54.8366L45.6875 54.5ZM46.2188 57.5938L48.1899 57.2553L48.1883 57.2462L46.2188 57.5938ZM46.9062 61.8125L47.9461 63.5209L49.0679 62.8381L48.8872 61.5374L46.9062 61.8125ZM43.4062 63.1562L42.963 61.206L42.9565 61.2075L43.4062 63.1562ZM34.5312 62.9688L32.591 63.4538L32.8705 64.5721L33.9783 64.8908L34.5312 62.9688ZM33.5 53.3438L31.502 53.4342L31.5025 53.4436L33.5 53.3438ZM52.625 41.9375L52.7618 43.9328L54.0772 43.8427L54.5127 42.5982L52.625 41.9375ZM54.3438 35.1562L52.3746 34.8058L52.3723 34.8193L54.3438 35.1562ZM55.5312 26.375L57.5205 26.5825L57.6802 25.0511L56.2406 24.505L55.5312 26.375ZM45.625 25.8125L45.426 23.8224L43.6772 23.9973L43.6259 25.754L45.625 25.8125ZM44.875 42.4688L42.8818 42.3037L42.6898 44.6232L45.0118 44.4641L44.875 42.4688ZM35.1875 38.1875C35.1875 33.3968 35.2705 29.1567 35.4355 25.4643L31.4395 25.2857C31.2712 29.0517 31.1875 33.3532 31.1875 38.1875H35.1875ZM33.7449 23.3988L29.5262 22.7425L28.9113 26.695L33.1301 27.3512L33.7449 23.3988ZM31.1057 24.0558C30.8813 23.4172 30.6999 22.6842 30.57 21.8488L26.6175 22.4637C26.7792 23.5033 27.0145 24.4787 27.3318 25.3817L31.1057 24.0558ZM30.57 21.8488C30.4387 21.0046 30.375 20.2014 30.375 19.4375H26.375C26.375 20.4236 26.4572 21.4329 26.6175 22.4637L30.57 21.8488ZM30.375 19.4375C30.375 18.8731 30.4192 18.2324 30.5142 17.5109L26.5483 16.9891C26.4349 17.8509 26.375 18.6685 26.375 19.4375H30.375ZM29.1939 19.137C31.7084 18.2541 35.1333 17.5878 39.529 17.1789L39.1585 13.1961C34.5958 13.6205 30.8125 14.3292 27.8686 15.363L29.1939 19.137ZM39.529 17.1789C43.9498 16.7677 48.2629 16.5625 52.4688 16.5625V12.5625C48.1329 12.5625 43.696 12.774 39.1585 13.1961L39.529 17.1789ZM52.4688 16.5625C55.5602 16.5625 58.1493 16.8058 60.2612 17.2665L61.1138 13.3585C58.6424 12.8192 55.7523 12.5625 52.4688 12.5625V16.5625ZM60.2612 17.2665C62.1322 17.6747 63.6695 18.5852 64.9291 20.032L67.9459 17.4055C66.1222 15.3106 63.8262 13.9503 61.1138 13.3585L60.2612 17.2665ZM64.9456 20.0508C66.0522 21.2902 66.7812 23.3497 66.7812 26.5938H70.7812C70.7812 22.8378 69.9478 19.6473 67.9294 17.3867L64.9456 20.0508ZM66.7812 26.5938C66.7812 27.8229 66.5846 29.2432 66.159 30.8683L70.0285 31.8817C70.5195 30.0068 70.7812 28.2396 70.7812 26.5938H66.7812ZM66.1605 30.8626C65.735 32.468 65.1422 34.0843 64.3774 35.712L67.9976 37.413C68.8578 35.5824 69.5359 33.7403 70.027 31.8874L66.1605 30.8626ZM64.38 35.7063C63.671 37.2031 62.8646 38.6288 61.9609 39.9843L65.2891 42.2032C66.3021 40.6837 67.204 39.0885 67.995 37.4187L64.38 35.7063ZM61.9571 39.99C61.081 41.314 60.1845 42.4246 59.2733 43.3358L62.1017 46.1642C63.2322 45.0338 64.294 43.7069 65.2929 42.1975L61.9571 39.99ZM58.8189 45.463C59.4418 47.0953 60.091 48.6009 60.768 49.9768L64.357 48.2107C63.7424 46.9616 63.1416 45.5714 62.5561 44.037L58.8189 45.463ZM60.7736 49.9882C61.4863 51.4135 62.5433 53.083 63.9075 54.9801L67.155 52.6449C65.8526 50.8336 64.9304 49.3574 64.3514 48.1993L60.7736 49.9882ZM66.308 55.6555L70.683 53.8118L69.1295 50.1257L64.7545 51.9695L66.308 55.6555ZM68.6031 53.4859C69.8126 54.5248 70.5456 55.903 70.7636 57.7639L74.7364 57.2986C74.4127 54.5345 73.2499 52.2043 71.2094 50.4516L68.6031 53.4859ZM70.75 57.5312C70.75 57.2336 70.8186 57.0103 70.8508 56.9157C70.8887 56.8044 70.9284 56.7233 70.9493 56.6828C70.9904 56.6032 71.0217 56.5603 71.0144 56.5708C71.0039 56.586 70.9558 56.6507 70.8452 56.782C70.6312 57.0362 70.2861 57.4184 69.7936 57.9418L72.7064 60.6832C73.2139 60.1441 73.6188 59.6982 73.9048 59.3586C74.0442 59.1931 74.1836 59.0195 74.2981 58.855C74.3533 58.7757 74.4314 58.6576 74.5038 58.5174C74.5319 58.4629 74.75 58.0667 74.75 57.5312H70.75ZM69.7793 57.9571C68.9672 58.8383 67.8574 59.7091 66.4042 60.5504L68.4083 64.0121C70.1218 63.0201 71.5744 61.9117 72.7207 60.6679L69.7793 57.9571ZM66.4214 60.5406C65.1645 61.2517 63.7277 61.625 62.0625 61.625V65.625C64.3556 65.625 66.4813 65.1025 68.3911 64.0219L66.4214 60.5406ZM62.0625 61.625C60.7577 61.625 59.6529 61.3966 58.7128 60.9823L57.0997 64.6427C58.6179 65.3117 60.2839 65.625 62.0625 65.625V61.625ZM58.7244 60.9875C57.9627 60.6461 57.254 60.0218 56.6328 58.9594L53.1797 60.9781C54.1419 62.624 55.4331 63.8956 57.0881 64.6375L58.7244 60.9875ZM56.6377 58.9677C55.9785 57.8275 55.4257 56.4255 55.0028 54.7337L51.1222 55.7038C51.6159 57.6787 52.2923 59.4433 53.1748 60.9698L56.6377 58.9677ZM55.0028 54.7337C54.5661 52.987 54.2602 51.267 54.0829 49.5731L50.1046 49.9894C50.3023 51.8788 50.6422 53.7839 51.1222 55.7038L55.0028 54.7337ZM52.1814 47.7832L45.0564 47.4707L44.8811 51.4668L52.0061 51.7793L52.1814 47.7832ZM42.9819 49.698C43.1737 51.36 43.4183 53.0716 43.7154 54.8327L47.6596 54.1673C47.3734 52.4701 47.1388 50.8275 46.9556 49.2395L42.9819 49.698ZM43.716 54.8366C44.0072 56.5422 44.1855 57.5803 44.2492 57.9413L48.1883 57.2462C48.127 56.8989 47.9511 55.8745 47.659 54.1634L43.716 54.8366ZM44.2476 57.9322C44.6023 59.998 44.8261 61.374 44.9253 62.0876L48.8872 61.5374C48.778 60.751 48.5435 59.3145 48.1899 57.2553L44.2476 57.9322ZM45.8664 60.1041C45.1329 60.5505 44.179 60.9296 42.963 61.206L43.8495 65.1065C45.3835 64.7579 46.7629 64.2411 47.9461 63.5209L45.8664 60.1041ZM42.9565 61.2075C41.7527 61.4853 40.5183 61.625 39.25 61.625V65.625C40.8151 65.625 42.3515 65.4522 43.856 65.105L42.9565 61.2075ZM39.25 61.625C37.807 61.625 36.4204 61.4311 35.0842 61.0467L33.9783 64.8908C35.6837 65.3814 37.443 65.625 39.25 65.625V61.625ZM36.4715 62.4837C36.0657 60.8604 35.7268 57.8289 35.4975 53.2439L31.5025 53.4436C31.7316 58.0252 32.0801 61.4104 32.591 63.4538L36.4715 62.4837ZM35.498 53.2533C35.2912 48.6844 35.1875 43.6629 35.1875 38.1875H31.1875C31.1875 43.7121 31.2921 48.7948 31.502 53.4342L35.498 53.2533ZM54.5127 42.5982C55.2829 40.3978 55.8819 38.0279 56.3152 35.4932L52.3723 34.8193C51.9723 37.1596 51.4255 39.3105 50.7373 41.2768L54.5127 42.5982ZM56.3128 35.5067C56.7612 32.9874 57.163 30.0101 57.5205 26.5825L53.542 26.1675C53.1912 29.5315 52.8013 32.4085 52.3747 34.8058L56.3128 35.5067ZM56.2406 24.505C55.4339 24.199 54.472 23.9955 53.4095 23.8599L52.903 27.8276C53.7988 27.942 54.4203 28.0927 54.8219 28.245L56.2406 24.505ZM53.4095 23.8599C52.3527 23.7249 51.32 23.6562 50.3125 23.6562V27.6562C51.1383 27.6562 52.0015 27.7126 52.903 27.8276L53.4095 23.8599ZM50.3125 23.6562C48.2141 23.6562 46.5704 23.708 45.426 23.8224L45.824 27.8026C46.7629 27.7087 48.2442 27.6562 50.3125 27.6562V23.6562ZM43.6259 25.754C43.3967 33.5869 43.1478 39.0914 42.8818 42.3037L46.8682 42.6338C47.1439 39.3044 47.395 33.7048 47.6241 25.871L43.6259 25.754ZM45.0118 44.4641L52.7618 43.9328L52.4882 39.9422L44.7382 40.4734L45.0118 44.4641Z" fill="black" mask="url(#path-2-outside-1_29_2)"/>
<mask id="path-4-outside-2_29_2" maskUnits="userSpaceOnUse" x="22" y="73" width="56" height="15" fill="black">
<rect fill="white" x="22" y="73" width="56" height="15"/>
<path d="M24.2158 80.1846C24.2158 79.0566 24.2354 78.0557 24.2744 77.1816L23.2856 77.0278C23.2222 76.8472 23.1733 76.647 23.1392 76.4272C23.105 76.2075 23.0879 75.9951 23.0879 75.79C23.0879 75.6338 23.1001 75.4629 23.1245 75.2773C23.7642 75.0527 24.6089 74.8916 25.6587 74.7939C26.7085 74.6963 27.7339 74.6475 28.7349 74.6475C29.4819 74.6475 30.124 74.7061 30.6611 74.8232C31.1982 74.9404 31.6475 75.2065 32.0088 75.6216C32.375 76.0317 32.5581 76.647 32.5581 77.4673C32.5581 77.8042 32.5044 78.1777 32.397 78.5879C32.2896 78.9932 32.1406 79.3984 31.9502 79.8037C31.7744 80.1748 31.5742 80.5288 31.3496 80.8657C31.1299 81.1978 30.9004 81.4834 30.6611 81.7227C30.8027 82.0938 30.9492 82.4331 31.1006 82.7407C31.252 83.0435 31.4839 83.4121 31.7964 83.8467L32.8218 83.4146C33.2026 83.7417 33.4248 84.1763 33.4883 84.7183C33.4883 84.7476 33.3711 84.8867 33.1367 85.1357C32.9072 85.3848 32.6069 85.6167 32.2358 85.8315C31.8647 86.0415 31.4473 86.1465 30.9834 86.1465C30.6221 86.1465 30.2974 86.083 30.0093 85.9561C29.7261 85.8291 29.4917 85.6069 29.3062 85.2896C29.1255 84.9771 28.9814 84.606 28.874 84.1763C28.7666 83.7466 28.6909 83.3218 28.647 82.9019L26.9771 82.8286C27.021 83.2095 27.0771 83.6025 27.1455 84.0078C27.2139 84.4082 27.2554 84.6499 27.27 84.7329C27.353 85.2163 27.4067 85.5459 27.4312 85.7217C27.2065 85.8584 26.9331 85.9634 26.6108 86.0366C26.2935 86.1099 25.9688 86.1465 25.6367 86.1465C25.2559 86.1465 24.8872 86.0952 24.5308 85.9927C24.4233 85.563 24.3428 84.811 24.2891 83.7368C24.2402 82.6577 24.2158 81.4736 24.2158 80.1846ZM28.7715 81.0635C28.9424 80.5752 29.0767 80.0454 29.1743 79.4741C29.2769 78.8979 29.3696 78.2119 29.4526 77.416C29.311 77.3623 29.1255 77.3208 28.896 77.2915C28.6665 77.2622 28.4443 77.2476 28.2295 77.2476C27.7412 77.2476 27.375 77.2598 27.1309 77.2842C27.0771 79.1201 27.0186 80.4214 26.9551 81.188L28.7715 81.0635ZM37.4653 75.4897C37.4653 75.0601 37.6045 74.7109 37.8828 74.4424C38.166 74.1738 38.6152 74.0396 39.2305 74.0396C39.8457 74.0396 40.2925 74.1738 40.5708 74.4424C40.854 74.7109 40.9956 75.0601 40.9956 75.4897C40.9956 75.7339 40.9102 75.9585 40.7393 76.1636C40.5732 76.3687 40.3535 76.5322 40.0801 76.6543C39.8066 76.7715 39.5234 76.8301 39.2305 76.8301C38.9131 76.8301 38.6177 76.7617 38.3442 76.625C38.0757 76.4834 37.8608 76.3076 37.6997 76.0977C37.5435 75.8877 37.4653 75.6851 37.4653 75.4897ZM37.1064 79.6792C37.043 79.4399 36.999 79.2227 36.9746 79.0273C36.9502 78.8271 36.938 78.6196 36.938 78.4048L36.9453 78.1997C37.0479 78.0679 37.2065 77.936 37.4214 77.8042C37.6411 77.6675 37.895 77.5527 38.1831 77.46C38.4761 77.3672 38.7788 77.3208 39.0913 77.3208C39.7749 77.3208 40.2607 77.4746 40.5488 77.7822C40.8369 78.0898 40.981 78.5684 40.981 79.2178C40.981 79.6084 40.9248 80.1187 40.8125 80.7485C40.7051 81.3784 40.5732 81.9912 40.417 82.5869C40.2656 83.1777 40.1338 83.6001 40.0215 83.854L40.0361 83.8687L41.1201 83.4731C41.3154 83.6392 41.4619 83.8223 41.5596 84.0225C41.6621 84.2227 41.728 84.4546 41.7573 84.7183C41.7573 84.7524 41.6499 84.894 41.4351 85.1431C41.2202 85.3872 40.9346 85.6167 40.5781 85.8315C40.2266 86.0415 39.8188 86.1465 39.355 86.1465C38.8862 86.1465 38.5054 86.0195 38.2124 85.7656C37.9243 85.5117 37.7803 85.0771 37.7803 84.4619C37.7803 83.7441 37.7998 82.9824 37.8389 82.1768C37.8779 81.3711 37.939 80.5898 38.022 79.833L37.1064 79.6792ZM42.9731 81.957C42.9731 81.1611 42.9854 80.436 43.0098 79.7817L42.2114 79.6426C42.1479 79.3984 42.104 79.1836 42.0796 78.998C42.0552 78.8125 42.043 78.6147 42.043 78.4048L42.0576 78.2583C42.0723 78.1899 42.0796 78.1338 42.0796 78.0898L43.1416 77.8555C43.166 77.5527 43.2222 77.2109 43.3101 76.8301C43.3979 76.4492 43.4907 76.1685 43.5884 75.9878C43.7446 75.8706 43.9326 75.7827 44.1523 75.7241C44.3721 75.6655 44.6089 75.6362 44.8628 75.6362C45.0776 75.6362 45.2852 75.6582 45.4854 75.7021C45.6904 75.7412 45.8687 75.7949 46.02 75.8633C46.0347 76.0293 46.042 76.2197 46.042 76.4346C46.042 76.7861 46.0249 77.1841 45.9907 77.6284L47.2798 77.394C47.4604 77.7065 47.5508 78.0459 47.5508 78.4121C47.5508 78.666 47.519 78.8955 47.4556 79.1006C47.397 79.3057 47.314 79.5376 47.2065 79.7964C46.8843 79.8501 46.4424 79.8843 45.8809 79.8989C45.8125 80.6948 45.6611 81.8643 45.4268 83.4072L45.3901 83.6562L45.4048 83.6709L47.126 83.1362C47.4824 83.4341 47.6997 83.8931 47.7778 84.5132C47.7778 84.5474 47.6191 84.7085 47.3018 84.9966C46.9893 85.2798 46.5962 85.5435 46.1226 85.7876C45.6489 86.0269 45.1338 86.1465 44.5771 86.1465C43.6055 86.1465 43.0879 85.5532 43.0244 84.3667C42.9902 83.7661 42.9731 82.9629 42.9731 81.957ZM48.2759 81.7446C48.2759 80.8999 48.4175 80.1455 48.7007 79.4814C48.9839 78.8174 49.4209 78.2925 50.0117 77.9067C50.6074 77.5161 51.3496 77.3208 52.2383 77.3208C52.7021 77.3208 53.166 77.377 53.6299 77.4893C54.0938 77.5967 54.4868 77.7773 54.8091 78.0312C55.1069 78.2705 55.3218 78.5879 55.4536 78.9834C55.5903 79.374 55.6587 79.8086 55.6587 80.2871C55.6587 80.6045 55.6318 80.9292 55.5781 81.2612C55.5195 81.3589 55.4048 81.4883 55.2339 81.6494C55.063 81.8057 54.8628 81.9595 54.6333 82.1108C54.4038 82.2622 54.1816 82.3794 53.9668 82.4624C53.7617 82.4771 53.5493 82.4844 53.3296 82.4844C52.9438 82.4844 52.5532 82.4673 52.1577 82.4331C51.7622 82.3989 51.4155 82.3599 51.1177 82.3159C51.1567 82.731 51.2837 83.0923 51.4985 83.3999C51.7134 83.7075 52.0552 83.8613 52.5239 83.8613C52.5679 83.8613 52.6387 83.8564 52.7363 83.8467C53.0342 83.8174 53.3809 83.7393 53.7764 83.6123C54.1768 83.4805 54.5747 83.3291 54.9702 83.1582C55.1558 83.3438 55.2925 83.5293 55.3804 83.7148C55.4683 83.9004 55.5293 84.1665 55.5635 84.5132C55.4121 84.689 55.1655 84.9038 54.8237 85.1577C54.4868 85.4116 54.0742 85.6411 53.5859 85.8462C53.0977 86.0464 52.5874 86.1465 52.0552 86.1465C51.2544 86.1465 50.5684 85.9536 49.9971 85.5679C49.4307 85.1772 49.001 84.6499 48.708 83.9858C48.4199 83.3169 48.2759 82.5698 48.2759 81.7446ZM52.9927 80.0601C52.9243 79.9868 52.8096 79.9307 52.6484 79.8916C52.4873 79.8477 52.3188 79.8257 52.1431 79.8257C52.0015 79.8257 51.8574 79.8379 51.7109 79.8623C51.5693 79.8867 51.4839 79.9136 51.4546 79.9429C51.2886 80.27 51.1836 80.6411 51.1396 81.0562L53.0952 80.8657L52.9927 80.0601ZM57.3213 83.4512C57.3213 82.6553 57.3311 82.0547 57.3506 81.6494C57.3701 81.2393 57.4214 80.6387 57.5044 79.8477L56.6621 79.7378C56.5596 79.4204 56.4912 79.1372 56.457 78.8882C56.4277 78.6392 56.4131 78.3169 56.4131 77.9214C56.4912 77.853 56.6206 77.7725 56.8013 77.6797C56.9868 77.582 57.2041 77.499 57.4531 77.4307C57.707 77.3574 57.9634 77.3208 58.2222 77.3208C58.813 77.3208 59.2305 77.4478 59.4746 77.7017C59.7236 77.9556 59.8481 78.3364 59.8481 78.8442C59.8481 79.1274 59.8066 79.5107 59.7236 79.9941C59.5869 80.7705 59.5186 81.1782 59.5186 81.2173C59.5186 81.2417 59.5356 81.2661 59.5698 81.2905C59.604 81.3101 59.6406 81.3198 59.6797 81.3198C59.7236 81.3198 59.7529 81.3027 59.7676 81.2686C59.7627 81.2881 59.8188 81.0415 59.936 80.5288C60.0776 79.855 60.2217 79.3057 60.3682 78.8809C60.5195 78.4561 60.7588 78.0923 61.0859 77.7896C61.4131 77.4868 61.8574 77.3354 62.4189 77.3354C63.1123 77.3354 63.6128 77.5356 63.9204 77.936C64.228 78.3315 64.3818 78.8589 64.3818 79.5181C64.3818 80.0405 64.2939 80.6216 64.1182 81.2612C64.1182 81.2856 64.1353 81.3101 64.1694 81.3345C64.2036 81.354 64.2402 81.3638 64.2793 81.3638C64.3232 81.3638 64.3525 81.3467 64.3672 81.3125L64.4697 80.9023C64.6455 80.1797 64.8188 79.5791 64.9897 79.1006C65.1655 78.6221 65.4268 78.2095 65.7734 77.8628C66.125 77.5112 66.5815 77.3354 67.1431 77.3354C67.8804 77.3354 68.4102 77.5723 68.7324 78.0459C69.0596 78.5195 69.2231 79.1152 69.2231 79.833C69.2231 80.3408 69.1743 80.8511 69.0767 81.3638C68.9839 81.8765 68.8838 82.3062 68.7764 82.6528C68.6738 82.9995 68.5469 83.3999 68.3955 83.854L68.4102 83.8687L69.4941 83.4146C69.875 83.7417 70.0972 84.1763 70.1606 84.7183C70.1606 84.7524 70.0508 84.894 69.8311 85.1431C69.6113 85.3872 69.3208 85.6167 68.9595 85.8315C68.603 86.0415 68.1929 86.1465 67.729 86.1465C67.2651 86.1465 66.8867 86.022 66.5938 85.7729C66.3008 85.5239 66.1543 85.0991 66.1543 84.4985C66.1543 83.8296 66.1665 83.1436 66.1909 82.4404C66.2202 81.7324 66.2617 81.0977 66.3154 80.5361C66.2324 80.4678 66.1177 80.4312 65.9712 80.4263C65.8247 80.5679 65.6416 80.8779 65.4219 81.3564C65.2021 81.8301 64.9995 82.3379 64.814 82.8799C64.6284 83.417 64.5112 83.8369 64.4624 84.1396C64.5308 84.6182 64.6357 85.0918 64.7773 85.5605C64.6895 85.7266 64.5088 85.8657 64.2354 85.978C63.9619 86.0903 63.625 86.1465 63.2246 86.1465C62.8633 86.1465 62.5801 86.1172 62.375 86.0586C62.1699 86 62.0283 85.939 61.9502 85.8755C61.877 85.812 61.8403 85.7705 61.8403 85.751C61.8354 85.707 61.8232 85.5923 61.8037 85.4067C61.7842 85.2163 61.7646 84.9526 61.7451 84.6157C61.7256 84.2739 61.7158 83.8857 61.7158 83.4512C61.7158 83.0361 61.7476 82.5161 61.811 81.8911C61.8159 81.813 61.8306 81.6274 61.855 81.3345C61.8794 81.0415 61.8916 80.7754 61.8916 80.5361C61.8086 80.4678 61.6938 80.4312 61.5474 80.4263C61.4644 80.4897 61.2324 80.895 60.8516 81.6421C60.4707 82.3892 60.2168 82.9165 60.0898 83.2241C60.0801 83.2925 60.0752 83.3584 60.0752 83.4219C60.0752 83.666 60.1118 83.9956 60.1851 84.4106C60.2583 84.8208 60.3486 85.2041 60.4561 85.5605C60.3682 85.7266 60.1875 85.8657 59.9141 85.978C59.6406 86.0903 59.3037 86.1465 58.9033 86.1465C58.542 86.1465 58.2515 86.1172 58.0317 86.0586C57.8169 86 57.6655 85.939 57.5776 85.8755C57.4897 85.8071 57.4458 85.7656 57.4458 85.751C57.4409 85.707 57.4287 85.5923 57.4092 85.4067C57.3896 85.2163 57.3701 84.9526 57.3506 84.6157C57.3311 84.2739 57.3213 83.8857 57.3213 83.4512ZM71.3325 83.4146C71.7622 83.5854 72.1064 83.7173 72.3652 83.8101C72.624 83.9028 72.9072 83.9834 73.2148 84.0518C73.5273 84.1201 73.8374 84.1543 74.145 84.1543C74.2817 84.1543 74.3794 84.1421 74.438 84.1177C74.4526 84.0981 74.4648 84.0688 74.4746 84.0298C74.4893 83.9858 74.4966 83.9419 74.4966 83.8979C74.4966 83.8003 74.4404 83.7197 74.3281 83.6562C74.1523 83.5586 73.8398 83.4048 73.3906 83.1948C72.7754 82.9019 72.2871 82.6406 71.9258 82.4111C71.5693 82.1816 71.2666 81.8765 71.0176 81.4956C70.7734 81.1147 70.6514 80.6362 70.6514 80.0601C70.6514 79.2349 70.8979 78.5732 71.3911 78.0752C71.8843 77.5723 72.6655 77.3208 73.7349 77.3208C75.0093 77.3208 76.0005 77.4868 76.7085 77.8188C76.7427 77.9604 76.7598 78.1387 76.7598 78.3535C76.7598 78.7637 76.6963 79.1836 76.5693 79.6133C76.4424 80.0381 76.2764 80.353 76.0713 80.5581C75.793 80.4653 75.3999 80.3164 74.8921 80.1113C74.521 79.9648 74.2256 79.8525 74.0059 79.7744C73.791 79.6914 73.5933 79.6328 73.4126 79.5986C73.3149 79.623 73.2368 79.6816 73.1782 79.7744C73.1196 79.8623 73.0903 79.9673 73.0903 80.0894C73.0903 80.1968 73.1221 80.2871 73.1855 80.3604C73.249 80.4336 73.3198 80.4922 73.3979 80.5361C73.481 80.5752 73.5981 80.6289 73.7495 80.6973C73.8276 80.7314 73.9009 80.7632 73.9692 80.7925C74.0376 80.8169 74.1011 80.8413 74.1597 80.8657C74.5405 81.0269 74.8408 81.1587 75.0605 81.2612C75.2803 81.3638 75.4927 81.4858 75.6978 81.6274C76.0737 81.8862 76.3691 82.1816 76.584 82.5137C76.7988 82.8457 76.9062 83.2095 76.9062 83.605C76.9062 84.1519 76.75 84.6255 76.4375 85.0259C76.1299 85.4214 75.7344 85.7095 75.251 85.8901C74.9971 85.9829 74.7188 86.0488 74.416 86.0879C74.1182 86.1318 73.769 86.1538 73.3687 86.1538C72.895 86.1538 72.4067 86.0635 71.9038 85.8828C71.4058 85.6973 71.0249 85.3896 70.7612 84.96C70.7661 84.6621 70.8052 84.4033 70.8784 84.1836C70.9565 83.959 71.1079 83.7026 71.3325 83.4146Z"/>
</mask>
<path d="M24.2158 80.1846C24.2158 79.0566 24.2354 78.0557 24.2744 77.1816L23.2856 77.0278C23.2222 76.8472 23.1733 76.647 23.1392 76.4272C23.105 76.2075 23.0879 75.9951 23.0879 75.79C23.0879 75.6338 23.1001 75.4629 23.1245 75.2773C23.7642 75.0527 24.6089 74.8916 25.6587 74.7939C26.7085 74.6963 27.7339 74.6475 28.7349 74.6475C29.4819 74.6475 30.124 74.7061 30.6611 74.8232C31.1982 74.9404 31.6475 75.2065 32.0088 75.6216C32.375 76.0317 32.5581 76.647 32.5581 77.4673C32.5581 77.8042 32.5044 78.1777 32.397 78.5879C32.2896 78.9932 32.1406 79.3984 31.9502 79.8037C31.7744 80.1748 31.5742 80.5288 31.3496 80.8657C31.1299 81.1978 30.9004 81.4834 30.6611 81.7227C30.8027 82.0938 30.9492 82.4331 31.1006 82.7407C31.252 83.0435 31.4839 83.4121 31.7964 83.8467L32.8218 83.4146C33.2026 83.7417 33.4248 84.1763 33.4883 84.7183C33.4883 84.7476 33.3711 84.8867 33.1367 85.1357C32.9072 85.3848 32.6069 85.6167 32.2358 85.8315C31.8647 86.0415 31.4473 86.1465 30.9834 86.1465C30.6221 86.1465 30.2974 86.083 30.0093 85.9561C29.7261 85.8291 29.4917 85.6069 29.3062 85.2896C29.1255 84.9771 28.9814 84.606 28.874 84.1763C28.7666 83.7466 28.6909 83.3218 28.647 82.9019L26.9771 82.8286C27.021 83.2095 27.0771 83.6025 27.1455 84.0078C27.2139 84.4082 27.2554 84.6499 27.27 84.7329C27.353 85.2163 27.4067 85.5459 27.4312 85.7217C27.2065 85.8584 26.9331 85.9634 26.6108 86.0366C26.2935 86.1099 25.9688 86.1465 25.6367 86.1465C25.2559 86.1465 24.8872 86.0952 24.5308 85.9927C24.4233 85.563 24.3428 84.811 24.2891 83.7368C24.2402 82.6577 24.2158 81.4736 24.2158 80.1846ZM28.7715 81.0635C28.9424 80.5752 29.0767 80.0454 29.1743 79.4741C29.2769 78.8979 29.3696 78.2119 29.4526 77.416C29.311 77.3623 29.1255 77.3208 28.896 77.2915C28.6665 77.2622 28.4443 77.2476 28.2295 77.2476C27.7412 77.2476 27.375 77.2598 27.1309 77.2842C27.0771 79.1201 27.0186 80.4214 26.9551 81.188L28.7715 81.0635ZM37.4653 75.4897C37.4653 75.0601 37.6045 74.7109 37.8828 74.4424C38.166 74.1738 38.6152 74.0396 39.2305 74.0396C39.8457 74.0396 40.2925 74.1738 40.5708 74.4424C40.854 74.7109 40.9956 75.0601 40.9956 75.4897C40.9956 75.7339 40.9102 75.9585 40.7393 76.1636C40.5732 76.3687 40.3535 76.5322 40.0801 76.6543C39.8066 76.7715 39.5234 76.8301 39.2305 76.8301C38.9131 76.8301 38.6177 76.7617 38.3442 76.625C38.0757 76.4834 37.8608 76.3076 37.6997 76.0977C37.5435 75.8877 37.4653 75.6851 37.4653 75.4897ZM37.1064 79.6792C37.043 79.4399 36.999 79.2227 36.9746 79.0273C36.9502 78.8271 36.938 78.6196 36.938 78.4048L36.9453 78.1997C37.0479 78.0679 37.2065 77.936 37.4214 77.8042C37.6411 77.6675 37.895 77.5527 38.1831 77.46C38.4761 77.3672 38.7788 77.3208 39.0913 77.3208C39.7749 77.3208 40.2607 77.4746 40.5488 77.7822C40.8369 78.0898 40.981 78.5684 40.981 79.2178C40.981 79.6084 40.9248 80.1187 40.8125 80.7485C40.7051 81.3784 40.5732 81.9912 40.417 82.5869C40.2656 83.1777 40.1338 83.6001 40.0215 83.854L40.0361 83.8687L41.1201 83.4731C41.3154 83.6392 41.4619 83.8223 41.5596 84.0225C41.6621 84.2227 41.728 84.4546 41.7573 84.7183C41.7573 84.7524 41.6499 84.894 41.4351 85.1431C41.2202 85.3872 40.9346 85.6167 40.5781 85.8315C40.2266 86.0415 39.8188 86.1465 39.355 86.1465C38.8862 86.1465 38.5054 86.0195 38.2124 85.7656C37.9243 85.5117 37.7803 85.0771 37.7803 84.4619C37.7803 83.7441 37.7998 82.9824 37.8389 82.1768C37.8779 81.3711 37.939 80.5898 38.022 79.833L37.1064 79.6792ZM42.9731 81.957C42.9731 81.1611 42.9854 80.436 43.0098 79.7817L42.2114 79.6426C42.1479 79.3984 42.104 79.1836 42.0796 78.998C42.0552 78.8125 42.043 78.6147 42.043 78.4048L42.0576 78.2583C42.0723 78.1899 42.0796 78.1338 42.0796 78.0898L43.1416 77.8555C43.166 77.5527 43.2222 77.2109 43.3101 76.8301C43.3979 76.4492 43.4907 76.1685 43.5884 75.9878C43.7446 75.8706 43.9326 75.7827 44.1523 75.7241C44.3721 75.6655 44.6089 75.6362 44.8628 75.6362C45.0776 75.6362 45.2852 75.6582 45.4854 75.7021C45.6904 75.7412 45.8687 75.7949 46.02 75.8633C46.0347 76.0293 46.042 76.2197 46.042 76.4346C46.042 76.7861 46.0249 77.1841 45.9907 77.6284L47.2798 77.394C47.4604 77.7065 47.5508 78.0459 47.5508 78.4121C47.5508 78.666 47.519 78.8955 47.4556 79.1006C47.397 79.3057 47.314 79.5376 47.2065 79.7964C46.8843 79.8501 46.4424 79.8843 45.8809 79.8989C45.8125 80.6948 45.6611 81.8643 45.4268 83.4072L45.3901 83.6562L45.4048 83.6709L47.126 83.1362C47.4824 83.4341 47.6997 83.8931 47.7778 84.5132C47.7778 84.5474 47.6191 84.7085 47.3018 84.9966C46.9893 85.2798 46.5962 85.5435 46.1226 85.7876C45.6489 86.0269 45.1338 86.1465 44.5771 86.1465C43.6055 86.1465 43.0879 85.5532 43.0244 84.3667C42.9902 83.7661 42.9731 82.9629 42.9731 81.957ZM48.2759 81.7446C48.2759 80.8999 48.4175 80.1455 48.7007 79.4814C48.9839 78.8174 49.4209 78.2925 50.0117 77.9067C50.6074 77.5161 51.3496 77.3208 52.2383 77.3208C52.7021 77.3208 53.166 77.377 53.6299 77.4893C54.0938 77.5967 54.4868 77.7773 54.8091 78.0312C55.1069 78.2705 55.3218 78.5879 55.4536 78.9834C55.5903 79.374 55.6587 79.8086 55.6587 80.2871C55.6587 80.6045 55.6318 80.9292 55.5781 81.2612C55.5195 81.3589 55.4048 81.4883 55.2339 81.6494C55.063 81.8057 54.8628 81.9595 54.6333 82.1108C54.4038 82.2622 54.1816 82.3794 53.9668 82.4624C53.7617 82.4771 53.5493 82.4844 53.3296 82.4844C52.9438 82.4844 52.5532 82.4673 52.1577 82.4331C51.7622 82.3989 51.4155 82.3599 51.1177 82.3159C51.1567 82.731 51.2837 83.0923 51.4985 83.3999C51.7134 83.7075 52.0552 83.8613 52.5239 83.8613C52.5679 83.8613 52.6387 83.8564 52.7363 83.8467C53.0342 83.8174 53.3809 83.7393 53.7764 83.6123C54.1768 83.4805 54.5747 83.3291 54.9702 83.1582C55.1558 83.3438 55.2925 83.5293 55.3804 83.7148C55.4683 83.9004 55.5293 84.1665 55.5635 84.5132C55.4121 84.689 55.1655 84.9038 54.8237 85.1577C54.4868 85.4116 54.0742 85.6411 53.5859 85.8462C53.0977 86.0464 52.5874 86.1465 52.0552 86.1465C51.2544 86.1465 50.5684 85.9536 49.9971 85.5679C49.4307 85.1772 49.001 84.6499 48.708 83.9858C48.4199 83.3169 48.2759 82.5698 48.2759 81.7446ZM52.9927 80.0601C52.9243 79.9868 52.8096 79.9307 52.6484 79.8916C52.4873 79.8477 52.3188 79.8257 52.1431 79.8257C52.0015 79.8257 51.8574 79.8379 51.7109 79.8623C51.5693 79.8867 51.4839 79.9136 51.4546 79.9429C51.2886 80.27 51.1836 80.6411 51.1396 81.0562L53.0952 80.8657L52.9927 80.0601ZM57.3213 83.4512C57.3213 82.6553 57.3311 82.0547 57.3506 81.6494C57.3701 81.2393 57.4214 80.6387 57.5044 79.8477L56.6621 79.7378C56.5596 79.4204 56.4912 79.1372 56.457 78.8882C56.4277 78.6392 56.4131 78.3169 56.4131 77.9214C56.4912 77.853 56.6206 77.7725 56.8013 77.6797C56.9868 77.582 57.2041 77.499 57.4531 77.4307C57.707 77.3574 57.9634 77.3208 58.2222 77.3208C58.813 77.3208 59.2305 77.4478 59.4746 77.7017C59.7236 77.9556 59.8481 78.3364 59.8481 78.8442C59.8481 79.1274 59.8066 79.5107 59.7236 79.9941C59.5869 80.7705 59.5186 81.1782 59.5186 81.2173C59.5186 81.2417 59.5356 81.2661 59.5698 81.2905C59.604 81.3101 59.6406 81.3198 59.6797 81.3198C59.7236 81.3198 59.7529 81.3027 59.7676 81.2686C59.7627 81.2881 59.8188 81.0415 59.936 80.5288C60.0776 79.855 60.2217 79.3057 60.3682 78.8809C60.5195 78.4561 60.7588 78.0923 61.0859 77.7896C61.4131 77.4868 61.8574 77.3354 62.4189 77.3354C63.1123 77.3354 63.6128 77.5356 63.9204 77.936C64.228 78.3315 64.3818 78.8589 64.3818 79.5181C64.3818 80.0405 64.2939 80.6216 64.1182 81.2612C64.1182 81.2856 64.1353 81.3101 64.1694 81.3345C64.2036 81.354 64.2402 81.3638 64.2793 81.3638C64.3232 81.3638 64.3525 81.3467 64.3672 81.3125L64.4697 80.9023C64.6455 80.1797 64.8188 79.5791 64.9897 79.1006C65.1655 78.6221 65.4268 78.2095 65.7734 77.8628C66.125 77.5112 66.5815 77.3354 67.1431 77.3354C67.8804 77.3354 68.4102 77.5723 68.7324 78.0459C69.0596 78.5195 69.2231 79.1152 69.2231 79.833C69.2231 80.3408 69.1743 80.8511 69.0767 81.3638C68.9839 81.8765 68.8838 82.3062 68.7764 82.6528C68.6738 82.9995 68.5469 83.3999 68.3955 83.854L68.4102 83.8687L69.4941 83.4146C69.875 83.7417 70.0972 84.1763 70.1606 84.7183C70.1606 84.7524 70.0508 84.894 69.8311 85.1431C69.6113 85.3872 69.3208 85.6167 68.9595 85.8315C68.603 86.0415 68.1929 86.1465 67.729 86.1465C67.2651 86.1465 66.8867 86.022 66.5938 85.7729C66.3008 85.5239 66.1543 85.0991 66.1543 84.4985C66.1543 83.8296 66.1665 83.1436 66.1909 82.4404C66.2202 81.7324 66.2617 81.0977 66.3154 80.5361C66.2324 80.4678 66.1177 80.4312 65.9712 80.4263C65.8247 80.5679 65.6416 80.8779 65.4219 81.3564C65.2021 81.8301 64.9995 82.3379 64.814 82.8799C64.6284 83.417 64.5112 83.8369 64.4624 84.1396C64.5308 84.6182 64.6357 85.0918 64.7773 85.5605C64.6895 85.7266 64.5088 85.8657 64.2354 85.978C63.9619 86.0903 63.625 86.1465 63.2246 86.1465C62.8633 86.1465 62.5801 86.1172 62.375 86.0586C62.1699 86 62.0283 85.939 61.9502 85.8755C61.877 85.812 61.8403 85.7705 61.8403 85.751C61.8354 85.707 61.8232 85.5923 61.8037 85.4067C61.7842 85.2163 61.7646 84.9526 61.7451 84.6157C61.7256 84.2739 61.7158 83.8857 61.7158 83.4512C61.7158 83.0361 61.7476 82.5161 61.811 81.8911C61.8159 81.813 61.8306 81.6274 61.855 81.3345C61.8794 81.0415 61.8916 80.7754 61.8916 80.5361C61.8086 80.4678 61.6938 80.4312 61.5474 80.4263C61.4644 80.4897 61.2324 80.895 60.8516 81.6421C60.4707 82.3892 60.2168 82.9165 60.0898 83.2241C60.0801 83.2925 60.0752 83.3584 60.0752 83.4219C60.0752 83.666 60.1118 83.9956 60.1851 84.4106C60.2583 84.8208 60.3486 85.2041 60.4561 85.5605C60.3682 85.7266 60.1875 85.8657 59.9141 85.978C59.6406 86.0903 59.3037 86.1465 58.9033 86.1465C58.542 86.1465 58.2515 86.1172 58.0317 86.0586C57.8169 86 57.6655 85.939 57.5776 85.8755C57.4897 85.8071 57.4458 85.7656 57.4458 85.751C57.4409 85.707 57.4287 85.5923 57.4092 85.4067C57.3896 85.2163 57.3701 84.9526 57.3506 84.6157C57.3311 84.2739 57.3213 83.8857 57.3213 83.4512ZM71.3325 83.4146C71.7622 83.5854 72.1064 83.7173 72.3652 83.8101C72.624 83.9028 72.9072 83.9834 73.2148 84.0518C73.5273 84.1201 73.8374 84.1543 74.145 84.1543C74.2817 84.1543 74.3794 84.1421 74.438 84.1177C74.4526 84.0981 74.4648 84.0688 74.4746 84.0298C74.4893 83.9858 74.4966 83.9419 74.4966 83.8979C74.4966 83.8003 74.4404 83.7197 74.3281 83.6562C74.1523 83.5586 73.8398 83.4048 73.3906 83.1948C72.7754 82.9019 72.2871 82.6406 71.9258 82.4111C71.5693 82.1816 71.2666 81.8765 71.0176 81.4956C70.7734 81.1147 70.6514 80.6362 70.6514 80.0601C70.6514 79.2349 70.8979 78.5732 71.3911 78.0752C71.8843 77.5723 72.6655 77.3208 73.7349 77.3208C75.0093 77.3208 76.0005 77.4868 76.7085 77.8188C76.7427 77.9604 76.7598 78.1387 76.7598 78.3535C76.7598 78.7637 76.6963 79.1836 76.5693 79.6133C76.4424 80.0381 76.2764 80.353 76.0713 80.5581C75.793 80.4653 75.3999 80.3164 74.8921 80.1113C74.521 79.9648 74.2256 79.8525 74.0059 79.7744C73.791 79.6914 73.5933 79.6328 73.4126 79.5986C73.3149 79.623 73.2368 79.6816 73.1782 79.7744C73.1196 79.8623 73.0903 79.9673 73.0903 80.0894C73.0903 80.1968 73.1221 80.2871 73.1855 80.3604C73.249 80.4336 73.3198 80.4922 73.3979 80.5361C73.481 80.5752 73.5981 80.6289 73.7495 80.6973C73.8276 80.7314 73.9009 80.7632 73.9692 80.7925C74.0376 80.8169 74.1011 80.8413 74.1597 80.8657C74.5405 81.0269 74.8408 81.1587 75.0605 81.2612C75.2803 81.3638 75.4927 81.4858 75.6978 81.6274C76.0737 81.8862 76.3691 82.1816 76.584 82.5137C76.7988 82.8457 76.9062 83.2095 76.9062 83.605C76.9062 84.1519 76.75 84.6255 76.4375 85.0259C76.1299 85.4214 75.7344 85.7095 75.251 85.8901C74.9971 85.9829 74.7188 86.0488 74.416 86.0879C74.1182 86.1318 73.769 86.1538 73.3687 86.1538C72.895 86.1538 72.4067 86.0635 71.9038 85.8828C71.4058 85.6973 71.0249 85.3896 70.7612 84.96C70.7661 84.6621 70.8052 84.4033 70.8784 84.1836C70.9565 83.959 71.1079 83.7026 71.3325 83.4146Z" fill="#E7E7E7"/>
<path d="M24.2744 77.1816L25.2734 77.2263L25.3134 76.3312L24.4281 76.1935L24.2744 77.1816ZM23.2856 77.0278L22.3422 77.3593L22.5406 77.924L23.1319 78.0159L23.2856 77.0278ZM23.1245 75.2773L22.7932 74.3338L22.2132 74.5375L22.1331 75.1469L23.1245 75.2773ZM32.0088 75.6216L31.2545 76.2783L31.2629 76.2876L32.0088 75.6216ZM32.397 78.5879L33.3636 78.8441L33.3643 78.8413L32.397 78.5879ZM31.9502 79.8037L32.8539 80.2318L32.8553 80.229L31.9502 79.8037ZM31.3496 80.8657L30.5176 80.311L30.5157 80.3139L31.3496 80.8657ZM30.6611 81.7227L29.954 81.0155L29.4958 81.4737L29.7268 82.0792L30.6611 81.7227ZM31.1006 82.7407L30.2033 83.1822L30.2062 83.1879L31.1006 82.7407ZM31.7964 83.8467L30.9845 84.4305L31.45 85.0778L32.1847 84.7682L31.7964 83.8467ZM32.8218 83.4146L33.4734 82.656L33.0038 82.2527L32.4334 82.493L32.8218 83.4146ZM33.4883 84.7183H34.4883V84.6599L34.4815 84.6019L33.4883 84.7183ZM33.1367 85.1357L32.4085 84.4503L32.4014 84.4581L33.1367 85.1357ZM32.2358 85.8315L32.7283 86.7019L32.7369 86.697L32.2358 85.8315ZM30.0093 85.9561L29.6002 86.8686L29.606 86.8711L30.0093 85.9561ZM29.3062 85.2896L28.4404 85.7901L28.4429 85.7942L29.3062 85.2896ZM28.647 82.9019L29.6415 82.7978L29.5518 81.9406L28.6908 81.9028L28.647 82.9019ZM26.9771 82.8286L27.0209 81.8296L25.8492 81.7782L25.9836 82.9432L26.9771 82.8286ZM27.1455 84.0078L26.1594 84.1741L26.1598 84.1761L27.1455 84.0078ZM27.27 84.7329L28.2556 84.5637L28.2548 84.5591L27.27 84.7329ZM27.4312 85.7217L27.9511 86.5759L28.512 86.2345L28.4216 85.5841L27.4312 85.7217ZM26.6108 86.0366L26.3892 85.0615L26.386 85.0622L26.6108 86.0366ZM24.5308 85.9927L23.5606 86.2352L23.7004 86.7944L24.2543 86.9537L24.5308 85.9927ZM24.2891 83.7368L23.2901 83.782L23.2903 83.7868L24.2891 83.7368ZM28.7715 81.0635L28.8399 82.0611L29.4976 82.0161L29.7153 81.3938L28.7715 81.0635ZM29.1743 79.4741L28.1898 79.2989L28.1886 79.3056L29.1743 79.4741ZM29.4526 77.416L30.4472 77.5197L30.5271 76.754L29.8073 76.481L29.4526 77.416ZM27.1309 77.2842L27.0314 76.2891L26.157 76.3766L26.1313 77.2549L27.1309 77.2842ZM26.9551 81.188L25.9585 81.1055L25.8625 82.2652L27.0235 82.1856L26.9551 81.188ZM25.2158 80.1846C25.2158 79.0675 25.2352 78.0819 25.2734 77.2263L23.2754 77.137C23.2355 78.0294 23.2158 79.0458 23.2158 80.1846H25.2158ZM24.4281 76.1935L23.4394 76.0397L23.1319 78.0159L24.1207 78.1698L24.4281 76.1935ZM24.2291 76.6963C24.1889 76.5818 24.1535 76.4422 24.1273 76.2735L22.151 76.581C22.1932 76.8518 22.2555 77.1125 22.3422 77.3593L24.2291 76.6963ZM24.1273 76.2735C24.1004 76.1004 24.0879 75.9396 24.0879 75.79H22.0879C22.0879 76.0507 22.1096 76.3146 22.151 76.581L24.1273 76.2735ZM24.0879 75.79C24.0879 75.6849 24.0962 75.5583 24.116 75.4078L22.1331 75.1469C22.104 75.3675 22.0879 75.5826 22.0879 75.79H24.0879ZM23.4558 76.2209C23.9881 76.0339 24.7433 75.8834 25.7513 75.7896L25.5661 73.7982C24.4745 73.8998 23.5402 74.0715 22.7932 74.3338L23.4558 76.2209ZM25.7513 75.7896C26.772 75.6947 27.7664 75.6475 28.7349 75.6475V73.6475C27.7014 73.6475 26.645 73.6979 25.5661 73.7982L25.7513 75.7896ZM28.7349 75.6475C29.4339 75.6475 30.0007 75.7027 30.448 75.8003L30.8743 73.8462C30.2473 73.7094 29.5299 73.6475 28.7349 73.6475V75.6475ZM30.448 75.8003C30.7747 75.8716 31.0343 76.0252 31.2546 76.2782L32.763 74.965C32.2606 74.3879 31.6217 74.0093 30.8743 73.8462L30.448 75.8003ZM31.2629 76.2876C31.4011 76.4424 31.5581 76.7749 31.5581 77.4673H33.5581C33.5581 76.519 33.3489 75.621 32.7547 74.9556L31.2629 76.2876ZM31.5581 77.4673C31.5581 77.7 31.5207 77.9868 31.4296 78.3345L33.3643 78.8413C33.4881 78.3686 33.5581 77.9084 33.5581 77.4673H31.5581ZM31.4304 78.3317C31.3393 78.6751 31.2117 79.0239 31.0451 79.3784L32.8553 80.229C33.0695 79.773 33.2398 79.3112 33.3636 78.8441L31.4304 78.3317ZM31.0465 79.3756C30.8912 79.7034 30.7149 80.0151 30.5176 80.311L32.1817 81.4204C32.4336 81.0425 32.6577 80.6462 32.8539 80.2318L31.0465 79.3756ZM30.5157 80.3139C30.3266 80.5995 30.1385 80.8311 29.954 81.0155L31.3682 82.4298C31.6623 82.1357 31.9331 81.796 32.1835 81.4176L30.5157 80.3139ZM29.7268 82.0792C29.8778 82.4747 30.0364 82.8429 30.2033 83.1822L31.9978 82.2992C31.8621 82.0233 31.7277 81.7128 31.5954 81.3661L29.7268 82.0792ZM30.2062 83.1879C30.3909 83.5575 30.6566 83.9745 30.9845 84.4305L32.6083 83.2629C32.3112 82.8498 32.113 82.5294 31.995 82.2935L30.2062 83.1879ZM32.1847 84.7682L33.2101 84.3361L32.4334 82.493L31.408 82.9252L32.1847 84.7682ZM32.1702 84.1731C32.3433 84.3218 32.458 84.5184 32.4951 84.8346L34.4815 84.6019C34.3916 83.8342 34.062 83.1616 33.4734 82.656L32.1702 84.1731ZM32.4883 84.7183C32.4883 84.638 32.4981 84.5711 32.5078 84.5228C32.5178 84.4737 32.53 84.433 32.5403 84.4028C32.5602 84.3441 32.5816 84.3 32.5942 84.2758C32.6189 84.2279 32.6407 84.1965 32.6454 84.1898C32.6567 84.1735 32.6576 84.1742 32.6355 84.2005C32.5949 84.2487 32.522 84.3298 32.4085 84.4504L33.8649 85.8211C33.9858 85.6926 34.0887 85.5797 34.1653 85.4887C34.2018 85.4454 34.2466 85.3903 34.2872 85.3319C34.3065 85.3041 34.3394 85.2551 34.3714 85.193C34.3813 85.1739 34.4883 84.9819 34.4883 84.7183H32.4883ZM32.4014 84.4581C32.2554 84.6164 32.0408 84.7889 31.7348 84.9661L32.7369 86.697C33.173 86.4445 33.559 86.1531 33.8721 85.8134L32.4014 84.4581ZM31.7434 84.9612C31.5355 85.0788 31.2903 85.1465 30.9834 85.1465V87.1465C31.6042 87.1465 32.1939 87.0042 32.7283 86.7019L31.7434 84.9612ZM30.9834 85.1465C30.7405 85.1465 30.5561 85.1042 30.4125 85.041L29.606 86.8711C30.0386 87.0618 30.5036 87.1465 30.9834 87.1465V85.1465ZM30.4183 85.0435C30.3585 85.0167 30.2697 84.9564 30.1694 84.7849L28.4429 85.7942C28.7137 86.2575 29.0937 86.6415 29.6002 86.8686L30.4183 85.0435ZM30.1719 84.789C30.047 84.5731 29.9339 84.2926 29.8442 83.9337L27.9039 84.4188C28.029 84.9193 28.2039 85.381 28.4404 85.7901L30.1719 84.789ZM29.8442 83.9337C29.7476 83.5474 29.6804 83.1688 29.6415 82.7978L27.6524 83.0059C27.7015 83.4747 27.7856 83.9458 27.9039 84.4188L29.8442 83.9337ZM28.6908 81.9028L27.0209 81.8296L26.9332 83.8277L28.6032 83.9009L28.6908 81.9028ZM25.9836 82.9432C26.0297 83.3426 26.0884 83.7529 26.1594 84.1741L28.1316 83.8415C28.0659 83.4522 28.0123 83.0764 27.9705 82.714L25.9836 82.9432ZM26.1598 84.1761C26.2279 84.5751 26.27 84.8202 26.2852 84.9067L28.2548 84.5591C28.2408 84.4796 28.1998 84.2413 28.1312 83.8395L26.1598 84.1761ZM26.2844 84.9022C26.3677 85.3872 26.4188 85.7016 26.4407 85.8592L28.4216 85.5841C28.3947 85.3902 28.3383 85.0454 28.2556 84.5637L26.2844 84.9022ZM26.9112 84.8675C26.799 84.9357 26.632 85.0063 26.3892 85.0615L26.8325 87.0118C27.2342 86.9204 27.614 86.781 27.9511 86.5759L26.9112 84.8675ZM26.386 85.0622C26.1438 85.1181 25.8945 85.1465 25.6367 85.1465V87.1465C26.043 87.1465 26.4432 87.1016 26.8357 87.011L26.386 85.0622ZM25.6367 85.1465C25.3469 85.1465 25.0714 85.1076 24.8072 85.0317L24.2543 86.9537C24.703 87.0828 25.1649 87.1465 25.6367 87.1465V85.1465ZM25.5009 85.7501C25.4197 85.4255 25.3416 84.762 25.2878 83.6869L23.2903 83.7868C23.344 84.8601 23.4269 85.7005 23.5606 86.2352L25.5009 85.7501ZM25.288 83.6916C25.24 82.6301 25.2158 81.4613 25.2158 80.1846H23.2158C23.2158 81.4859 23.2405 82.6853 23.2901 83.782L25.288 83.6916ZM29.7153 81.3938C29.9067 80.847 30.0541 80.2625 30.16 79.6426L28.1886 79.3056C28.0993 79.8283 27.978 80.3034 27.8276 80.7331L29.7153 81.3938ZM30.1588 79.6493C30.2668 79.0427 30.3626 78.3316 30.4472 77.5197L28.458 77.3123C28.3767 78.0923 28.2869 78.7532 28.1898 79.2989L30.1588 79.6493ZM29.8073 76.481C29.5644 76.3889 29.2938 76.3342 29.0226 76.2996L28.7694 78.2835C28.9572 78.3074 29.0577 78.3357 29.098 78.351L29.8073 76.481ZM29.0226 76.2996C28.7543 76.2653 28.4898 76.2476 28.2295 76.2476V78.2476C28.3989 78.2476 28.5787 78.2591 28.7694 78.2835L29.0226 76.2996ZM28.2295 76.2476C27.7337 76.2476 27.3269 76.2596 27.0314 76.2891L27.2304 78.2792C27.4231 78.2599 27.7487 78.2476 28.2295 78.2476V76.2476ZM26.1313 77.2549C26.0776 79.0907 26.0195 80.3682 25.9585 81.1055L27.9517 81.2705C28.0176 80.4746 28.0767 79.1496 28.1304 77.3134L26.1313 77.2549ZM27.0235 82.1856L28.8399 82.0611L28.7031 80.0658L26.8867 80.1903L27.0235 82.1856ZM37.8828 74.4424L37.1947 73.7167L37.1884 73.7228L37.8828 74.4424ZM40.5708 74.4424L39.8764 75.162L39.8827 75.168L40.5708 74.4424ZM40.7393 76.1636L39.971 75.5234L39.9665 75.5289L39.962 75.5344L40.7393 76.1636ZM40.0801 76.6543L40.474 77.5734L40.4809 77.5705L40.4877 77.5674L40.0801 76.6543ZM38.3442 76.625L37.8778 77.5096L37.8874 77.5146L37.897 77.5194L38.3442 76.625ZM37.6997 76.0977L36.8975 76.6947L36.9019 76.7006L36.9064 76.7065L37.6997 76.0977ZM37.1064 79.6792L36.1399 79.9356L36.3052 80.5586L36.9408 80.6654L37.1064 79.6792ZM36.9746 79.0273L35.982 79.1484L35.9823 79.1514L36.9746 79.0273ZM36.938 78.4048L35.9386 78.3691L35.938 78.3869V78.4048H36.938ZM36.9453 78.1997L36.156 77.5858L35.9575 77.8409L35.9459 78.164L36.9453 78.1997ZM37.4214 77.8042L37.9444 78.6565L37.9497 78.6533L37.4214 77.8042ZM38.1831 77.46L37.8812 76.5066L37.8766 76.5081L38.1831 77.46ZM40.8125 80.7485L39.828 80.573L39.8267 80.5804L40.8125 80.7485ZM40.417 82.5869L39.4497 82.3332L39.4483 82.3387L40.417 82.5869ZM40.0215 83.854L39.1069 83.4495L38.8297 84.0764L39.3144 84.5611L40.0215 83.854ZM40.0361 83.8687L39.329 84.5758L39.7799 85.0266L40.3789 84.8081L40.0361 83.8687ZM41.1201 83.4731L41.7678 82.7112L41.3242 82.3342L40.7774 82.5337L41.1201 83.4731ZM41.5596 84.0225L40.6608 84.4609L40.6651 84.4697L40.6695 84.4783L41.5596 84.0225ZM41.7573 84.7183H42.7573V84.6629L42.7512 84.6078L41.7573 84.7183ZM41.4351 85.1431L42.1858 85.8037L42.1922 85.7963L41.4351 85.1431ZM40.5781 85.8315L41.0909 86.6901L41.0943 86.688L40.5781 85.8315ZM38.2124 85.7656L37.5512 86.5159L37.5575 86.5213L38.2124 85.7656ZM38.022 79.833L39.016 79.942L39.119 79.0033L38.1877 78.8468L38.022 79.833ZM38.4653 75.4897C38.4653 75.2983 38.5168 75.2202 38.5772 75.162L37.1884 73.7228C36.6922 74.2016 36.4653 74.8218 36.4653 75.4897H38.4653ZM38.5709 75.168C38.5861 75.1536 38.7295 75.0396 39.2305 75.0396V73.0396C38.501 73.0396 37.7459 73.1941 37.1947 73.7168L38.5709 75.168ZM39.2305 75.0396C39.7335 75.0396 39.8686 75.1544 39.8764 75.162L41.2652 73.7228C40.7164 73.1932 39.9579 73.0396 39.2305 73.0396V75.0396ZM39.8827 75.168C39.9456 75.2276 39.9956 75.3038 39.9956 75.4897H41.9956C41.9956 74.8163 41.7624 74.1943 41.2589 73.7168L39.8827 75.168ZM39.9956 75.4897C39.9956 75.4921 39.9954 75.4919 39.9958 75.4899C39.9962 75.4878 39.9967 75.4862 39.9969 75.4857C39.9976 75.4838 39.9934 75.4965 39.971 75.5234L41.5075 76.8038C41.8131 76.437 41.9956 75.9902 41.9956 75.4897H39.9956ZM39.962 75.5344C39.9078 75.6014 39.8216 75.6746 39.6724 75.7412L40.4877 77.5674C40.8855 77.3899 41.2387 77.1359 41.5165 76.7928L39.962 75.5344ZM39.6862 75.7352C39.5352 75.7998 39.3859 75.8301 39.2305 75.8301V77.8301C39.661 77.8301 40.0781 77.7431 40.474 77.5734L39.6862 75.7352ZM39.2305 75.8301C39.0622 75.8301 38.9207 75.7952 38.7915 75.7306L37.897 77.5194C38.3147 77.7283 38.764 77.8301 39.2305 77.8301V75.8301ZM38.8106 75.7404C38.6509 75.6562 38.5543 75.5687 38.493 75.4888L36.9064 76.7065C37.1674 77.0465 37.5004 77.3106 37.8778 77.5096L38.8106 75.7404ZM38.5019 75.5006C38.4673 75.4541 38.4575 75.4299 38.457 75.4285C38.4569 75.4282 38.4591 75.4339 38.4612 75.445C38.4635 75.4563 38.4653 75.4715 38.4653 75.4897H36.4653C36.4653 75.9628 36.6561 76.3703 36.8975 76.6947L38.5019 75.5006ZM38.073 79.4228C38.0183 79.2165 37.9845 79.0443 37.9669 78.9033L35.9823 79.1514C36.0135 79.401 36.0677 79.6634 36.1399 79.9356L38.073 79.4228ZM37.9673 78.9063C37.948 78.7488 37.938 78.5818 37.938 78.4048H35.938C35.938 78.6575 35.9523 78.9055 35.982 79.1484L37.9673 78.9063ZM37.9374 78.4405L37.9447 78.2354L35.9459 78.164L35.9386 78.3691L37.9374 78.4405ZM37.7347 78.8136C37.7327 78.8162 37.7441 78.8012 37.7803 78.7711C37.816 78.7415 37.869 78.7028 37.9444 78.6565L36.8984 76.9519C36.628 77.1178 36.3598 77.3237 36.156 77.5858L37.7347 78.8136ZM37.9497 78.6533C38.0894 78.5663 38.2666 78.4836 38.4896 78.4118L37.8766 76.5081C37.5234 76.6218 37.1928 76.7687 36.8931 76.9551L37.9497 78.6533ZM38.485 78.4133C38.6787 78.352 38.8795 78.3208 39.0913 78.3208V76.3208C38.6781 76.3208 38.2735 76.3824 37.8812 76.5066L38.485 78.4133ZM39.0913 78.3208C39.6646 78.3208 39.8095 78.4557 39.8189 78.4658L41.2787 77.0987C40.712 76.4935 39.8852 76.3208 39.0913 76.3208V78.3208ZM39.8189 78.4658C39.8601 78.5097 39.981 78.6893 39.981 79.2178H41.981C41.981 78.4474 41.8138 77.67 41.2787 77.0987L39.8189 78.4658ZM39.981 79.2178C39.981 79.5244 39.9356 79.9695 39.828 80.573L41.797 80.9241C41.914 80.2678 41.981 79.6924 41.981 79.2178H39.981ZM39.8267 80.5804C39.724 81.1826 39.5983 81.7668 39.4497 82.3332L41.3843 82.8406C41.5482 82.2156 41.6861 81.5742 41.7983 80.9167L39.8267 80.5804ZM39.4483 82.3387C39.2984 82.9238 39.1832 83.277 39.1069 83.4495L40.936 84.2585C41.0843 83.9232 41.2329 83.4316 41.3857 82.8351L39.4483 82.3387ZM39.3144 84.5611L39.329 84.5758L40.7432 83.1615L40.7286 83.1469L39.3144 84.5611ZM40.3789 84.8081L41.4629 84.4126L40.7774 82.5337L39.6934 82.9292L40.3789 84.8081ZM40.4725 84.2351C40.5784 84.3251 40.6321 84.402 40.6608 84.4609L42.4583 83.584C42.2917 83.2425 42.0524 82.9532 41.7678 82.7112L40.4725 84.2351ZM40.6695 84.4783C40.7079 84.5532 40.7452 84.6643 40.7634 84.8287L42.7512 84.6078C42.7109 84.2448 42.6164 83.8921 42.4496 83.5666L40.6695 84.4783ZM40.7573 84.7183C40.7573 84.5977 40.7796 84.5041 40.7936 84.4545C40.8089 84.4003 40.8259 84.3586 40.837 84.3334C40.8585 84.2844 40.8784 84.2516 40.8839 84.2426C40.896 84.2228 40.8989 84.2209 40.8801 84.2457C40.8455 84.2913 40.781 84.3703 40.6779 84.4898L42.1922 85.7963C42.3039 85.6668 42.4006 85.5505 42.4734 85.4545C42.5083 85.4085 42.5515 85.3492 42.5905 85.2855C42.6094 85.2545 42.6393 85.2031 42.6676 85.1389C42.6837 85.1022 42.7573 84.9385 42.7573 84.7183H40.7573ZM40.6843 84.4824C40.553 84.6316 40.3539 84.7991 40.0619 84.9751L41.0943 86.688C41.5153 86.4343 41.8874 86.1428 42.1858 85.8037L40.6843 84.4824ZM40.0654 84.973C39.8886 85.0786 39.6628 85.1465 39.355 85.1465V87.1465C39.9749 87.1465 40.5645 87.0044 41.0909 86.6901L40.0654 84.973ZM39.355 85.1465C39.0742 85.1465 38.9423 85.0749 38.8673 85.0099L37.5575 86.5213C38.0684 86.9641 38.6982 87.1465 39.355 87.1465V85.1465ZM38.8736 85.0154C38.9018 85.0403 38.7803 84.9596 38.7803 84.4619H36.7803C36.7803 85.1947 36.9468 85.9831 37.5512 86.5158L38.8736 85.0154ZM38.7803 84.4619C38.7803 83.7621 38.7993 83.0167 38.8377 82.2252L36.84 82.1283C36.8003 82.9482 36.7803 83.7262 36.7803 84.4619H38.7803ZM38.8377 82.2252C38.8758 81.4386 38.9353 80.6776 39.016 79.942L37.0279 79.724C36.9426 80.5021 36.88 81.3036 36.84 82.1283L38.8377 82.2252ZM38.1877 78.8468L37.2721 78.693L36.9408 80.6654L37.8563 80.8192L38.1877 78.8468ZM43.0098 79.7817L44.0091 79.819L44.0416 78.9465L43.1815 78.7966L43.0098 79.7817ZM42.2114 79.6426L41.2436 79.8942L41.4056 80.5172L42.0397 80.6277L42.2114 79.6426ZM42.043 78.4048L41.0479 78.3053L41.043 78.3549V78.4048H42.043ZM42.0576 78.2583L41.0798 78.0488L41.0681 78.1033L41.0626 78.1588L42.0576 78.2583ZM42.0796 78.0898L41.8641 77.1133L41.0796 77.2865V78.0898H42.0796ZM43.1416 77.8555L43.3571 78.832L44.0789 78.6727L44.1384 77.9359L43.1416 77.8555ZM43.5884 75.9878L42.9884 75.1878L42.8129 75.3194L42.7087 75.5123L43.5884 75.9878ZM45.4854 75.7021L45.2709 76.6789L45.2846 76.6819L45.2982 76.6845L45.4854 75.7021ZM46.02 75.8633L47.0161 75.7754L46.9647 75.1927L46.4316 74.9519L46.02 75.8633ZM45.9907 77.6284L44.9937 77.5517L44.8942 78.8442L46.1696 78.6123L45.9907 77.6284ZM47.2798 77.394L48.1455 76.8935L47.7933 76.2843L47.1009 76.4102L47.2798 77.394ZM47.4556 79.1006L46.5003 78.8049L46.497 78.8153L46.494 78.8259L47.4556 79.1006ZM47.2065 79.7964L47.3709 80.7828L47.9176 80.6917L48.1301 80.1798L47.2065 79.7964ZM45.8809 79.8989L45.8548 78.8993L44.961 78.9226L44.8845 79.8134L45.8809 79.8989ZM45.4268 83.4072L44.4381 83.257L44.4374 83.2617L45.4268 83.4072ZM45.3901 83.6562L44.4008 83.5108L44.3277 84.008L44.683 84.3634L45.3901 83.6562ZM45.4048 83.6709L44.6977 84.378L45.1247 84.805L45.7014 84.6259L45.4048 83.6709ZM47.126 83.1362L47.7672 82.3689L47.3493 82.0197L46.8293 82.1812L47.126 83.1362ZM47.7778 84.5132H48.7778V84.4504L48.77 84.3882L47.7778 84.5132ZM47.3018 84.9966L47.9733 85.7376L47.9739 85.737L47.3018 84.9966ZM46.1226 85.7876L46.5735 86.6802L46.5807 86.6765L46.1226 85.7876ZM43.0244 84.3667L44.023 84.3133L44.0228 84.3099L43.0244 84.3667ZM43.9731 81.957C43.9731 81.171 43.9852 80.4586 44.0091 79.819L42.0105 79.7445C41.9855 80.4135 41.9731 81.1512 41.9731 81.957H43.9731ZM43.1815 78.7966L42.3831 78.6574L42.0397 80.6277L42.838 80.7669L43.1815 78.7966ZM43.1792 79.3909C43.1228 79.1739 43.0886 79.0011 43.071 78.8676L41.0881 79.1285C41.1194 79.3661 41.1731 79.6229 41.2436 79.8942L43.1792 79.3909ZM43.071 78.8676C43.053 78.7301 43.043 78.5763 43.043 78.4048H41.043C41.043 78.6532 41.0574 78.8949 41.0881 79.1285L43.071 78.8676ZM43.038 78.5043L43.0527 78.3578L41.0626 78.1588L41.0479 78.3053L43.038 78.5043ZM43.0354 78.4678C43.0573 78.3659 43.0796 78.2329 43.0796 78.0898H41.0796C41.0796 78.0734 41.0803 78.0606 41.0809 78.0521C41.0815 78.0436 41.0822 78.0379 41.0825 78.0356C41.083 78.0314 41.0827 78.0353 41.0798 78.0488L43.0354 78.4678ZM42.2951 79.0663L43.3571 78.832L42.9261 76.879L41.8641 77.1133L42.2951 79.0663ZM44.1384 77.9359C44.1579 77.6932 44.2046 77.401 44.2844 77.0549L42.3357 76.6052C42.2397 77.0209 42.1741 77.4122 42.1448 77.7751L44.1384 77.9359ZM44.2844 77.0549C44.3669 76.6978 44.4358 76.523 44.4681 76.4633L42.7087 75.5123C42.5456 75.8139 42.429 76.2006 42.3357 76.6052L44.2844 77.0549ZM44.1884 76.7878C44.2268 76.759 44.2939 76.7213 44.41 76.6904L43.8947 74.7579C43.5713 74.8441 43.2624 74.9823 42.9884 75.1878L44.1884 76.7878ZM44.41 76.6904C44.5366 76.6566 44.6859 76.6362 44.8628 76.6362V74.6362C44.5319 74.6362 44.2076 74.6744 43.8947 74.7579L44.41 76.6904ZM44.8628 76.6362C45.009 76.6362 45.1445 76.6511 45.2709 76.6789L45.6998 74.7254C45.4258 74.6653 45.1463 74.6362 44.8628 74.6362V76.6362ZM45.2982 76.6845C45.4448 76.7124 45.5444 76.7457 45.6084 76.7747L46.4316 74.9519C46.1929 74.8441 45.9361 74.77 45.6725 74.7198L45.2982 76.6845ZM45.0239 75.9512C45.0353 76.081 45.042 76.2412 45.042 76.4346H47.042C47.042 76.1983 47.034 75.9776 47.0161 75.7754L45.0239 75.9512ZM45.042 76.4346C45.042 76.7548 45.0264 77.1265 44.9937 77.5517L46.9878 77.7051C47.0234 77.2416 47.042 76.8174 47.042 76.4346H45.042ZM46.1696 78.6123L47.4587 78.3779L47.1009 76.4102L45.8118 76.6445L46.1696 78.6123ZM46.4141 77.8945C46.5054 78.0526 46.5508 78.219 46.5508 78.4121H48.5508C48.5508 77.8728 48.4155 77.3605 48.1455 76.8935L46.4141 77.8945ZM46.5508 78.4121C46.5508 78.5836 46.5293 78.7112 46.5003 78.8049L48.4109 79.3963C48.5088 79.0798 48.5508 78.7485 48.5508 78.4121H46.5508ZM46.494 78.8259C46.4487 78.9847 46.3799 79.1794 46.283 79.413L48.1301 80.1798C48.248 79.8958 48.3453 79.6267 48.4171 79.3753L46.494 78.8259ZM47.0421 78.81C46.7867 78.8526 46.3978 78.8851 45.8548 78.8993L45.9069 80.8986C46.487 80.8835 46.9819 80.8476 47.3709 80.7828L47.0421 78.81ZM44.8845 79.8134C44.819 80.5759 44.6717 81.7194 44.4381 83.2571L46.4154 83.5574C46.6506 82.0091 46.806 80.8137 46.8772 79.9845L44.8845 79.8134ZM44.4374 83.2617L44.4008 83.5108L46.3795 83.8017L46.4161 83.5527L44.4374 83.2617ZM44.683 84.3634L44.6977 84.378L46.1119 82.9638L46.0972 82.9491L44.683 84.3634ZM45.7014 84.6259L47.4226 84.0912L46.8293 82.1812L45.1081 82.7159L45.7014 84.6259ZM46.4848 83.9036C46.5883 83.9901 46.728 84.1806 46.7857 84.6382L48.77 84.3882C48.6714 83.6056 48.3765 82.878 47.7672 82.3689L46.4848 83.9036ZM46.7778 84.5132C46.7778 84.4198 46.7911 84.3425 46.804 84.2875C46.8172 84.2316 46.8331 84.1859 46.8463 84.1526C46.8718 84.0883 46.8987 84.041 46.9136 84.0163C46.9431 83.9673 46.9684 83.9365 46.972 83.932C46.982 83.9197 46.9782 83.9256 46.9463 83.958C46.8869 84.0183 46.7844 84.1157 46.6297 84.2561L47.9739 85.737C48.1365 85.5894 48.272 85.4622 48.3713 85.3614C48.4187 85.3132 48.4745 85.2544 48.5242 85.1932C48.5476 85.1644 48.5878 85.1131 48.6272 85.0476C48.6355 85.0338 48.7778 84.818 48.7778 84.5132H46.7778ZM46.6302 84.2556C46.3964 84.4675 46.08 84.6845 45.6644 84.8987L46.5807 86.6765C47.1123 86.4024 47.5821 86.0921 47.9733 85.7376L46.6302 84.2556ZM45.6717 84.895C45.3447 85.0602 44.9851 85.1465 44.5771 85.1465V87.1465C45.2825 87.1465 45.9531 86.9935 46.5734 86.6802L45.6717 84.895ZM44.5771 85.1465C44.3068 85.1465 44.2392 85.0733 44.2137 85.0441C44.1599 84.9825 44.0486 84.7917 44.023 84.3133L42.0258 84.4201C42.0637 85.1282 42.2429 85.8274 42.7067 86.3589C43.1988 86.923 43.8758 87.1465 44.5771 87.1465V85.1465ZM44.0228 84.3099C43.9902 83.7365 43.9731 82.9547 43.9731 81.957H41.9731C41.9731 82.9711 41.9903 83.7957 42.026 84.4235L44.0228 84.3099ZM50.0117 77.9067L50.5584 78.7441L50.5601 78.743L50.0117 77.9067ZM53.6299 77.4893L53.3946 78.4612L53.4043 78.4635L53.6299 77.4893ZM54.8091 78.0312L55.4354 77.2516L55.428 77.2458L54.8091 78.0312ZM55.4536 78.9834L54.5049 79.2996L54.5073 79.3067L54.5098 79.3137L55.4536 78.9834ZM55.5781 81.2612L56.4356 81.7757L56.5346 81.6108L56.5653 81.4209L55.5781 81.2612ZM55.2339 81.6494L55.9087 82.3874L55.9143 82.3823L55.9199 82.377L55.2339 81.6494ZM53.9668 82.4624L54.038 83.4599L54.1875 83.4492L54.3272 83.3952L53.9668 82.4624ZM51.1177 82.3159L51.2636 81.3266L50.0026 81.1406L50.1221 82.4096L51.1177 82.3159ZM51.4985 83.3999L50.6787 83.9725L51.4985 83.3999ZM52.7363 83.8467L52.6384 82.8515L52.6368 82.8516L52.7363 83.8467ZM53.7764 83.6123L54.082 84.5645L54.0891 84.5621L53.7764 83.6123ZM54.9702 83.1582L55.6773 82.4511L55.1971 81.9708L54.5736 82.2402L54.9702 83.1582ZM55.5635 84.5132L56.3212 85.1657L56.6007 84.8412L56.5587 84.4151L55.5635 84.5132ZM54.8237 85.1577L54.2274 84.355L54.2219 84.3591L54.8237 85.1577ZM53.5859 85.8462L53.9653 86.7715L53.9732 86.7682L53.5859 85.8462ZM49.9971 85.5679L49.4293 86.3911L49.4375 86.3966L49.9971 85.5679ZM48.708 83.9858L47.7895 84.3814L47.7931 84.3895L48.708 83.9858ZM52.9927 80.0601L53.9847 79.9338L53.9439 79.6137L53.7237 79.3777L52.9927 80.0601ZM52.6484 79.8916L52.3853 80.8564L52.399 80.8601L52.4128 80.8635L52.6484 79.8916ZM51.7109 79.8623L51.5465 78.8759L51.541 78.8768L51.7109 79.8623ZM51.4546 79.9429L50.7475 79.2358L50.6349 79.3484L50.5628 79.4903L51.4546 79.9429ZM51.1396 81.0562L50.1452 80.9509L50.0161 82.1703L51.2366 82.0514L51.1396 81.0562ZM53.0952 80.8657L53.1921 81.861L54.2173 81.7612L54.0872 80.7395L53.0952 80.8657ZM49.2759 81.7446C49.2759 81.0121 49.3984 80.3945 49.6205 79.8737L47.7808 79.0892C47.4365 79.8965 47.2759 80.7877 47.2759 81.7446H49.2759ZM49.6205 79.8737C49.828 79.3872 50.1373 79.019 50.5584 78.7441L49.465 77.0694C48.7045 77.5659 48.1398 78.2476 47.7808 79.0892L49.6205 79.8737ZM50.5601 78.743C50.9567 78.4829 51.4962 78.3208 52.2383 78.3208V76.3208C51.203 76.3208 50.2581 76.5493 49.4634 77.0705L50.5601 78.743ZM52.2383 78.3208C52.6206 78.3208 53.0055 78.367 53.3946 78.4612L53.8652 76.5173C53.3265 76.3869 52.7837 76.3208 52.2383 76.3208V78.3208ZM53.4043 78.4635C53.7477 78.543 54.0007 78.6674 54.1902 78.8167L55.428 77.2458C54.9729 76.8873 54.4398 76.6504 53.8555 76.515L53.4043 78.4635ZM54.1828 78.8109C54.3173 78.9189 54.4281 79.0691 54.5049 79.2996L56.4023 78.6672C56.2155 78.1067 55.8965 77.6221 55.4353 77.2516L54.1828 78.8109ZM54.5098 79.3137C54.604 79.5831 54.6587 79.9038 54.6587 80.2871H56.6587C56.6587 79.7134 56.5767 79.165 56.3975 78.653L54.5098 79.3137ZM54.6587 80.2871C54.6587 80.5479 54.6366 80.8192 54.591 81.1015L56.5653 81.4209C56.627 81.0392 56.6587 80.6611 56.6587 80.2871H54.6587ZM54.7206 80.7467C54.7349 80.723 54.7351 80.7284 54.6999 80.768C54.6679 80.8042 54.6187 80.855 54.5479 80.9218L55.9199 82.377C56.1025 82.2049 56.3025 81.9976 56.4356 81.7757L54.7206 80.7467ZM54.5591 80.9114C54.4334 81.0263 54.2762 81.1484 54.0827 81.2761L55.1839 82.9456C55.4494 82.7705 55.6926 82.585 55.9087 82.3874L54.5591 80.9114ZM54.0827 81.2761C53.9018 81.3954 53.7432 81.4768 53.6064 81.5296L54.3272 83.3952C54.6201 83.282 54.9058 83.129 55.1839 82.9456L54.0827 81.2761ZM53.8955 81.4649C53.7157 81.4778 53.5272 81.4844 53.3296 81.4844V83.4844C53.5715 83.4844 53.8077 83.4763 54.038 83.4599L53.8955 81.4649ZM53.3296 81.4844C52.9734 81.4844 52.6115 81.4686 52.2438 81.4368L52.0716 83.4294C52.4949 83.466 52.9143 83.4844 53.3296 83.4844V81.4844ZM52.2438 81.4368C51.8624 81.4039 51.5365 81.3669 51.2636 81.3266L50.9717 83.3052C51.2945 83.3528 51.662 83.394 52.0716 83.4294L52.2438 81.4368ZM50.1221 82.4096C50.1755 82.9773 50.3542 83.5079 50.6787 83.9725L52.3184 82.8273C52.2132 82.6767 52.138 82.4847 52.1133 82.2222L50.1221 82.4096ZM50.6787 83.9725C51.1275 84.6151 51.82 84.8613 52.5239 84.8613V82.8613C52.3966 82.8613 52.3402 82.8403 52.3264 82.8341C52.3199 82.8311 52.3195 82.8301 52.3217 82.8319C52.3238 82.8337 52.3226 82.8334 52.3184 82.8273L50.6787 83.9725ZM52.5239 84.8613C52.6217 84.8613 52.7352 84.8518 52.8358 84.8417L52.6368 82.8516C52.5947 82.8559 52.5633 82.8585 52.5412 82.86C52.5166 82.8617 52.5134 82.8613 52.5239 82.8613V84.8613ZM52.8342 84.8419C53.2239 84.8035 53.6429 84.7054 54.082 84.5645L53.4707 82.6602C53.1188 82.7731 52.8445 82.8312 52.6384 82.8515L52.8342 84.8419ZM54.0891 84.5621C54.5186 84.4207 54.9445 84.2587 55.3669 84.0762L54.5736 82.2402C54.2049 82.3995 53.835 82.5402 53.4636 82.6625L54.0891 84.5621ZM54.2631 83.8653C54.3891 83.9913 54.4493 84.0852 54.4766 84.1429L56.2841 83.2868C56.1357 82.9733 55.9225 82.6962 55.6773 82.4511L54.2631 83.8653ZM54.4766 84.1429C54.4927 84.1768 54.5387 84.3108 54.5683 84.6113L56.5587 84.4151C56.5199 84.0222 56.4439 83.624 56.2841 83.2868L54.4766 84.1429ZM54.8057 83.8607C54.7268 83.9522 54.5504 84.115 54.2274 84.355L55.4201 85.9605C55.7807 85.6926 56.0974 85.4257 56.3212 85.1657L54.8057 83.8607ZM54.2219 84.3591C53.9654 84.5524 53.6291 84.7434 53.1987 84.9242L53.9732 86.7682C54.5193 86.5388 55.0082 86.2709 55.4256 85.9563L54.2219 84.3591ZM53.2066 84.9209C52.8397 85.0713 52.4584 85.1465 52.0552 85.1465V87.1465C52.7164 87.1465 53.3556 87.0214 53.9653 86.7714L53.2066 84.9209ZM52.0552 85.1465C51.4207 85.1465 50.9372 84.9961 50.5567 84.7391L49.4375 86.3966C50.1995 86.9112 51.0881 87.1465 52.0552 87.1465V85.1465ZM50.5648 84.7447C50.1592 84.4649 49.8455 84.0867 49.6229 83.5822L47.7931 84.3895C48.1565 85.2131 48.7021 85.8895 49.4293 86.3911L50.5648 84.7447ZM49.6265 83.5903C49.3989 83.0619 49.2759 82.4518 49.2759 81.7446H47.2759C47.2759 82.6878 47.441 83.5719 47.7896 84.3814L49.6265 83.5903ZM53.7237 79.3777C53.4607 79.0959 53.1231 78.9777 52.884 78.9198L52.4128 80.8635C52.4426 80.8707 52.4395 80.8728 52.4158 80.8612C52.3924 80.8498 52.33 80.8157 52.2616 80.7424L53.7237 79.3777ZM52.9116 78.9268C52.6603 78.8583 52.4031 78.8257 52.1431 78.8257V80.8257C52.2346 80.8257 52.3143 80.837 52.3853 80.8564L52.9116 78.9268ZM52.1431 78.8257C51.9438 78.8257 51.7447 78.8429 51.5465 78.8759L51.8753 80.8487C51.9701 80.8329 52.0591 80.8257 52.1431 80.8257V78.8257ZM51.541 78.8768C51.4491 78.8927 51.3436 78.9145 51.2408 78.9468C51.1835 78.9648 50.9472 79.0361 50.7475 79.2358L52.1617 80.65C52.0607 80.751 51.9637 80.8014 51.9266 80.8196C51.882 80.8414 51.8496 80.8519 51.8405 80.8548C51.8231 80.8602 51.8312 80.8563 51.8808 80.8478L51.541 78.8768ZM50.5628 79.4903C50.3347 79.9399 50.2002 80.4313 50.1452 80.9509L52.1341 81.1614C52.167 80.8509 52.2424 80.6001 52.3463 80.3954L50.5628 79.4903ZM51.2366 82.0514L53.1921 81.861L52.9983 79.8704L51.0427 80.0609L51.2366 82.0514ZM54.0872 80.7395L53.9847 79.9338L52.0007 80.1863L52.1032 80.992L54.0872 80.7395ZM57.3506 81.6494L58.3494 81.6976L58.3495 81.697L57.3506 81.6494ZM57.5044 79.8477L58.4989 79.952L58.6007 78.9822L57.6337 78.8561L57.5044 79.8477ZM56.6621 79.7378L55.7105 80.0452L55.9051 80.6475L56.5328 80.7294L56.6621 79.7378ZM56.457 78.8882L55.4639 79.005L55.465 79.0146L55.4663 79.0242L56.457 78.8882ZM56.4131 77.9214L55.7546 77.1688L55.4131 77.4676V77.9214H56.4131ZM56.8013 77.6797L57.2581 78.5693L57.267 78.5646L56.8013 77.6797ZM57.4531 77.4307L57.7179 78.3951L57.7303 78.3915L57.4531 77.4307ZM59.4746 77.7017L58.7537 78.3948L58.7607 78.4019L59.4746 77.7017ZM59.7236 79.9941L60.7085 80.1676L60.7092 80.1634L59.7236 79.9941ZM59.5698 81.2905L58.9886 82.1043L59.0298 82.1337L59.0737 82.1588L59.5698 81.2905ZM59.7676 81.2686L60.7377 81.5111L58.8484 80.8746L59.7676 81.2686ZM59.936 80.5288L60.9109 80.7516L60.9129 80.7431L60.9147 80.7345L59.936 80.5288ZM60.3682 78.8809L59.4261 78.5452L59.4228 78.5549L60.3682 78.8809ZM61.0859 77.7896L61.7651 78.5235L61.0859 77.7896ZM63.9204 77.936L63.1274 78.5453L63.1311 78.55L63.9204 77.936ZM64.1182 81.2612L63.1539 80.9962L63.1182 81.1263V81.2612H64.1182ZM64.1694 81.3345L63.5882 82.1482L63.6294 82.1776L63.6733 82.2027L64.1694 81.3345ZM64.3672 81.3125L65.2863 81.7064L65.3179 81.6328L65.3373 81.555L64.3672 81.3125ZM64.4697 80.9023L65.4399 81.1449L65.4414 81.1387L64.4697 80.9023ZM64.9897 79.1006L64.051 78.7558L64.048 78.7642L64.9897 79.1006ZM65.7734 77.8628L66.4805 78.5699L65.7734 77.8628ZM68.7324 78.0459L67.9056 78.6085L67.9096 78.6142L68.7324 78.0459ZM69.0767 81.3638L68.0943 81.1766L68.0926 81.1857L69.0767 81.3638ZM68.7764 82.6528L67.8211 82.3568L67.8174 82.3692L68.7764 82.6528ZM68.3955 83.854L67.4468 83.5378L67.2514 84.1241L67.6884 84.5611L68.3955 83.854ZM68.4102 83.8687L67.703 84.5758L68.1776 85.0503L68.7965 84.791L68.4102 83.8687ZM69.4941 83.4146L70.1457 82.656L69.6773 82.2536L69.1078 82.4922L69.4941 83.4146ZM70.1606 84.7183H71.1606V84.6599L71.1539 84.6019L70.1606 84.7183ZM69.8311 85.1431L70.5744 85.8121L70.5809 85.8047L69.8311 85.1431ZM68.9595 85.8315L69.467 86.6932L69.4705 86.6911L68.9595 85.8315ZM66.1909 82.4404L65.1918 82.3991L65.1915 82.4057L66.1909 82.4404ZM66.3154 80.5361L67.3109 80.6314L67.3615 80.1022L66.9511 79.7642L66.3154 80.5361ZM65.9712 80.4263L66.0045 79.4268L65.5809 79.4127L65.2762 79.7073L65.9712 80.4263ZM65.4219 81.3564L66.329 81.7773L66.3306 81.7737L65.4219 81.3564ZM64.814 82.8799L65.7592 83.2064L65.7601 83.2038L64.814 82.8799ZM64.4624 84.1396L63.4752 83.9804L63.4509 84.1305L63.4725 84.2811L64.4624 84.1396ZM64.7773 85.5605L65.6611 86.0284L65.8535 85.665L65.7346 85.2714L64.7773 85.5605ZM64.2354 85.978L63.8554 85.053L64.2354 85.978ZM61.9502 85.8755L61.2953 86.6312L61.3073 86.6416L61.3196 86.6516L61.9502 85.8755ZM61.8403 85.751H62.8403V85.6956L62.8342 85.6405L61.8403 85.751ZM61.8037 85.4067L60.8089 85.5088L60.8092 85.5114L61.8037 85.4067ZM61.7451 84.6157L60.7467 84.6728L60.7468 84.6736L61.7451 84.6157ZM61.811 81.8911L62.8059 81.9922L62.8079 81.9729L62.8091 81.9535L61.811 81.8911ZM61.8916 80.5361H62.8916V80.0642L62.5273 79.7642L61.8916 80.5361ZM61.5474 80.4263L61.5807 79.4268L61.2237 79.4149L60.9399 79.6319L61.5474 80.4263ZM60.0898 83.2241L59.1655 82.8426L59.1176 82.9586L59.0999 83.0827L60.0898 83.2241ZM60.1851 84.4106L59.2003 84.5844L59.2006 84.5864L60.1851 84.4106ZM60.4561 85.5605L61.3398 86.0284L61.5321 85.6653L61.4135 85.272L60.4561 85.5605ZM58.0317 86.0586L57.7686 87.0234L57.7741 87.0248L58.0317 86.0586ZM57.5776 85.8755L56.9637 86.6648L56.9777 86.6758L56.9921 86.6862L57.5776 85.8755ZM57.4458 85.751H58.4458V85.6956L58.4397 85.6405L57.4458 85.751ZM57.4092 85.4067L56.4144 85.5088L56.4147 85.5114L57.4092 85.4067ZM57.3506 84.6157L56.3522 84.6728L56.3523 84.6736L57.3506 84.6157ZM58.3213 83.4512C58.3213 82.6592 58.3311 82.0781 58.3494 81.6976L56.3517 81.6013C56.331 82.0313 56.3213 82.6513 56.3213 83.4512H58.3213ZM58.3495 81.697C58.3676 81.316 58.4164 80.7381 58.4989 79.952L56.5099 79.7433C56.4263 80.5392 56.3726 81.1625 56.3517 81.6018L58.3495 81.697ZM57.6337 78.8561L56.7914 78.7462L56.5328 80.7294L57.3751 80.8393L57.6337 78.8561ZM57.6137 79.4304C57.5237 79.152 57.4718 78.9277 57.4477 78.7522L55.4663 79.0242C55.5106 79.3467 55.5954 79.6889 55.7105 80.0452L57.6137 79.4304ZM57.4502 78.7713C57.4273 78.5766 57.4131 78.2973 57.4131 77.9214H55.4131C55.4131 78.3364 55.4282 78.7018 55.4639 79.005L57.4502 78.7713ZM57.0716 78.674C57.056 78.6876 57.0593 78.6822 57.0973 78.6586C57.1324 78.6367 57.1847 78.6069 57.2581 78.5693L56.3445 76.7901C56.1463 76.8919 55.9277 77.0173 55.7546 77.1688L57.0716 78.674ZM57.267 78.5646C57.3759 78.5073 57.5232 78.4484 57.7178 78.395L57.1884 76.4663C56.885 76.5496 56.5977 76.6568 56.3355 76.7948L57.267 78.5646ZM57.7303 78.3915C57.896 78.3437 58.0591 78.3208 58.2222 78.3208V76.3208C57.8676 76.3208 57.518 76.3712 57.176 76.4698L57.7303 78.3915ZM58.2222 78.3208C58.4514 78.3208 58.5997 78.3461 58.6875 78.3728C58.7713 78.3983 58.7752 78.4171 58.7538 78.3948L60.1954 77.0086C59.6688 76.4608 58.9102 76.3208 58.2222 76.3208V78.3208ZM58.7607 78.4019C58.7644 78.4057 58.7837 78.4257 58.8043 78.4885C58.8263 78.5559 58.8481 78.669 58.8481 78.8442H60.8481C60.8481 78.1871 60.687 77.5097 60.1885 77.0015L58.7607 78.4019ZM58.8481 78.8442C58.8481 79.0443 58.8173 79.3633 58.7381 79.8249L60.7092 80.1634C60.796 79.6582 60.8481 79.2106 60.8481 78.8442H58.8481ZM58.7388 79.8207C58.6703 80.2096 58.6185 80.5089 58.5836 80.7168C58.5662 80.8203 58.5525 80.9047 58.5429 80.9676C58.5381 80.9986 58.5337 81.0291 58.5301 81.0562C58.5284 81.0695 58.5262 81.0869 58.5244 81.1058C58.5234 81.1149 58.5186 81.1612 58.5186 81.2173H60.5186C60.5186 81.2899 60.5091 81.3475 60.5134 81.3145C60.5141 81.3088 60.5161 81.295 60.5199 81.2701C60.5273 81.2213 60.5392 81.1479 60.5561 81.0476C60.5895 80.8478 60.6403 80.555 60.7085 80.1676L58.7388 79.8207ZM58.5186 81.2173C58.5186 81.7405 58.8781 82.0253 58.9886 82.1043L60.1511 80.4768C60.1916 80.5057 60.2733 80.5701 60.3506 80.6804C60.4334 80.7987 60.5186 80.9827 60.5186 81.2173H58.5186ZM59.0737 82.1588C59.2577 82.2639 59.4652 82.3198 59.6797 82.3198V80.3198C59.8161 80.3198 59.9503 80.3562 60.066 80.4223L59.0737 82.1588ZM59.6797 82.3198C59.8276 82.3198 60.0321 82.2912 60.2385 82.1708C60.4563 82.0437 60.6035 81.8566 60.6867 81.6625L58.8484 80.8746C58.917 80.7147 59.0422 80.5532 59.2307 80.4432C59.4079 80.3399 59.5758 80.3198 59.6797 80.3198V82.3198ZM58.7974 81.026C58.7978 81.0245 58.7991 81.0194 58.8008 81.0128C58.8016 81.0098 58.8035 81.0029 58.806 80.9941C58.8061 80.9937 58.8149 80.9621 58.829 80.9239C58.8336 80.9115 58.8461 80.8806 58.8541 80.8622C58.8684 80.8314 58.918 80.7418 58.9561 80.6848C59.0809 80.5423 59.762 80.2696 60.2952 80.4203C60.557 80.6562 60.7477 81.0725 60.7632 81.1791C60.7663 81.2256 60.7669 81.2979 60.7658 81.3235C60.7648 81.3395 60.7626 81.3666 60.7614 81.3775C60.7591 81.399 60.7566 81.4157 60.7555 81.4227C60.7531 81.4379 60.7509 81.4498 60.7502 81.4534C60.7493 81.4587 60.7484 81.4629 60.748 81.4652C60.7458 81.476 60.7439 81.4845 60.7451 81.479C60.7458 81.4757 60.7476 81.4678 60.7508 81.4536C60.757 81.4261 60.767 81.3819 60.7811 81.3203C60.8091 81.1974 60.8523 81.0079 60.9109 80.7516L58.9612 80.306C58.9026 80.5624 58.8592 80.7525 58.831 80.8762C58.8169 80.9379 58.8065 80.9837 58.7999 81.013C58.7967 81.0272 58.794 81.0394 58.7921 81.0478C58.792 81.0482 58.7893 81.0604 58.7868 81.073C58.7863 81.0755 58.7854 81.0799 58.7844 81.0853C58.7837 81.0891 58.7815 81.1011 58.7791 81.1164C58.778 81.1234 58.7755 81.1402 58.7731 81.1617C58.772 81.1726 58.7697 81.1997 58.7687 81.2158C58.7677 81.2413 58.7683 81.3136 58.7714 81.3602C58.7869 81.4668 58.9775 81.8831 59.2394 82.1189C59.7726 82.2696 60.4536 81.9969 60.5785 81.8544C60.6166 81.7975 60.6662 81.7078 60.6805 81.6771C60.6885 81.6586 60.701 81.6277 60.7056 81.6153C60.7197 81.5771 60.7285 81.5454 60.7287 81.5449C60.7312 81.536 60.7331 81.529 60.734 81.5257C60.7358 81.5188 60.7372 81.5132 60.7377 81.5111L58.7974 81.026ZM60.9147 80.7345C61.0517 80.0824 61.1858 79.5774 61.3135 79.2069L59.4228 78.5549C59.2576 79.0339 59.1036 79.6276 58.9574 80.3232L60.9147 80.7345ZM61.3102 79.2165C61.408 78.9419 61.5579 78.7153 61.7651 78.5235L60.4067 77.0556C59.9597 77.4693 59.6311 77.9702 59.4262 78.5452L61.3102 79.2165ZM61.7651 78.5235C61.8629 78.433 62.0411 78.3354 62.4189 78.3354V76.3354C61.6737 76.3354 60.9633 76.5406 60.4067 77.0556L61.7651 78.5235ZM62.4189 78.3354C62.9255 78.3354 63.0736 78.4752 63.1274 78.5453L64.7134 77.3268C64.152 76.5961 63.2991 76.3354 62.4189 76.3354V78.3354ZM63.1311 78.55C63.2645 78.7215 63.3818 79.0109 63.3818 79.5181H65.3818C65.3818 78.7068 65.1916 77.9416 64.7098 77.3221L63.1311 78.55ZM63.3818 79.5181C63.3818 79.9307 63.312 80.4209 63.1539 80.9962L65.0824 81.5262C65.2759 80.8223 65.3818 80.1503 65.3818 79.5181H63.3818ZM63.1182 81.2612C63.1182 81.7844 63.4777 82.0693 63.5882 82.1482L64.7507 80.5207C64.7912 80.5497 64.873 80.614 64.9502 80.7244C65.033 80.8426 65.1182 81.0267 65.1182 81.2612H63.1182ZM63.6733 82.2027C63.8573 82.3079 64.0648 82.3638 64.2793 82.3638V80.3638C64.4157 80.3638 64.5499 80.4001 64.6656 80.4662L63.6733 82.2027ZM64.2793 82.3638C64.4272 82.3638 64.6317 82.3351 64.8381 82.2147C65.056 82.0876 65.2031 81.9006 65.2863 81.7064L63.448 80.9186C63.5166 80.7586 63.6418 80.5972 63.8304 80.4872C64.0075 80.3838 64.1754 80.3638 64.2793 80.3638V82.3638ZM65.3373 81.555L65.4399 81.1449L63.4996 80.6598L63.397 81.07L65.3373 81.555ZM65.4414 81.1387C65.6123 80.4359 65.7763 79.8715 65.9315 79.4369L64.048 78.7642C63.8614 79.2868 63.6787 79.9235 63.4981 80.666L65.4414 81.1387ZM65.9284 79.4454C66.0562 79.0975 66.2405 78.8099 66.4805 78.5699L65.0663 77.1557C64.613 77.609 64.2748 78.1467 64.0511 78.7558L65.9284 79.4454ZM66.4805 78.5699C66.6197 78.4308 66.8093 78.3354 67.1431 78.3354V76.3354C66.3537 76.3354 65.6303 76.5917 65.0663 77.1557L66.4805 78.5699ZM67.1431 78.3354C67.6556 78.3354 67.8223 78.4859 67.9057 78.6084L69.5592 77.4834C68.998 76.6586 68.1052 76.3354 67.1431 76.3354V78.3354ZM67.9096 78.6142C68.0957 78.8836 68.2231 79.2678 68.2231 79.833H70.2231C70.2231 78.9626 70.0235 78.1555 69.5552 77.4776L67.9096 78.6142ZM68.2231 79.833C68.2231 80.2763 68.1806 80.7239 68.0943 81.1767L70.059 81.5509C70.1681 80.9782 70.2231 80.4053 70.2231 79.833H68.2231ZM68.0926 81.1857C68.0043 81.6741 67.9127 82.0615 67.8212 82.3569L69.7316 82.9488C69.8549 82.5508 69.9635 82.0788 70.0607 81.5418L68.0926 81.1857ZM67.8174 82.3692C67.719 82.7021 67.5957 83.0913 67.4468 83.5378L69.3442 84.1702C69.4981 83.7085 69.6287 83.2969 69.7353 82.9365L67.8174 82.3692ZM67.6884 84.5611L67.703 84.5758L69.1173 83.1615L69.1026 83.1469L67.6884 84.5611ZM68.7965 84.791L69.8805 84.3369L69.1078 82.4922L68.0238 82.9463L68.7965 84.791ZM68.8425 84.1731C69.0157 84.3218 69.1304 84.5184 69.1674 84.8346L71.1539 84.6019C71.0639 83.8342 70.7343 83.1616 70.1457 82.656L68.8425 84.1731ZM69.1606 84.7183C69.1606 84.5949 69.184 84.4992 69.1985 84.4488C69.2144 84.3936 69.2321 84.3512 69.2436 84.3257C69.2659 84.2762 69.2864 84.2431 69.292 84.234C69.3045 84.2141 69.3075 84.2122 69.2882 84.2371C69.2527 84.2828 69.1867 84.3619 69.0812 84.4814L70.5809 85.8047C70.6951 85.6753 70.7939 85.559 70.8683 85.4631C70.9039 85.4172 70.9481 85.3579 70.988 85.294C71.0074 85.263 71.0382 85.2113 71.0674 85.1465C71.0838 85.11 71.1606 84.9433 71.1606 84.7183H69.1606ZM69.0878 84.4741C68.9512 84.6258 68.7461 84.795 68.4484 84.972L69.4705 86.6911C69.8955 86.4384 70.2715 86.1486 70.5743 85.812L69.0878 84.4741ZM68.4519 84.9699C68.2673 85.0787 68.0365 85.1465 67.729 85.1465V87.1465C68.3492 87.1465 68.9387 87.0043 69.467 86.6932L68.4519 84.9699ZM67.729 85.1465C67.4513 85.1465 67.3181 85.0762 67.2414 85.011L65.9461 86.5349C66.4553 86.9677 67.0789 87.1465 67.729 87.1465V85.1465ZM67.2414 85.011C67.2726 85.0375 67.1543 84.9702 67.1543 84.4985H65.1543C65.1543 85.228 65.329 86.0104 65.9461 86.5349L67.2414 85.011ZM67.1543 84.4985C67.1543 83.8417 67.1663 83.1673 67.1903 82.4751L65.1915 82.4057C65.1667 83.1198 65.1543 83.8174 65.1543 84.4985H67.1543ZM67.1901 82.4818C67.2188 81.7874 67.2593 81.1711 67.3109 80.6314L65.32 80.4409C65.2642 81.0242 65.2216 81.6774 65.1918 82.3991L67.1901 82.4818ZM66.9511 79.7642C66.6455 79.5125 66.2923 79.4364 66.0045 79.4268L65.9379 81.4257C65.9375 81.4257 65.9306 81.4255 65.9182 81.4235C65.9058 81.4215 65.8869 81.4177 65.8631 81.4101C65.8139 81.3944 65.7474 81.3638 65.6797 81.3081L66.9511 79.7642ZM65.2762 79.7073C64.9773 79.9962 64.7274 80.4724 64.5131 80.9392L66.3306 81.7737C66.4321 81.5528 66.5169 81.3889 66.5851 81.2735C66.6602 81.1463 66.6888 81.1235 66.6662 81.1453L65.2762 79.7073ZM64.5147 80.9356C64.279 81.4437 64.0636 81.9842 63.8679 82.556L65.7601 83.2038C65.9354 82.6916 66.1253 82.2164 66.329 81.7773L64.5147 80.9356ZM63.8688 82.5534C63.6774 83.1073 63.5379 83.5917 63.4752 83.9804L65.4496 84.2989C65.4846 84.0821 65.5794 83.7267 65.7592 83.2064L63.8688 82.5534ZM63.4725 84.2811C63.548 84.8102 63.664 85.3332 63.8201 85.8497L65.7346 85.2714C65.6074 84.8503 65.5135 84.4261 65.4524 83.9982L63.4725 84.2811ZM63.8936 85.0927C63.9293 85.0252 63.9665 84.9966 63.9657 84.9972C63.9653 84.9975 63.9573 85.0036 63.9386 85.0139C63.9199 85.0243 63.8928 85.0377 63.8554 85.053L64.6153 86.903C64.9878 86.75 65.4165 86.4905 65.6611 86.0284L63.8936 85.0927ZM63.8554 85.053C63.7371 85.1016 63.5381 85.1465 63.2246 85.1465V87.1465C63.7119 87.1465 64.1868 87.079 64.6153 86.903L63.8554 85.053ZM63.2246 85.1465C62.9014 85.1465 62.7248 85.1185 62.6497 85.0971L62.1003 87.0201C62.4354 87.1159 62.8252 87.1465 63.2246 87.1465V85.1465ZM62.6497 85.0971C62.613 85.0866 62.5831 85.0771 62.5593 85.0689C62.5352 85.0606 62.5196 85.0543 62.5108 85.0505C62.5017 85.0466 62.5037 85.0469 62.5137 85.0526C62.523 85.0579 62.5479 85.0727 62.5808 85.0994L61.3196 86.6516C61.5661 86.8519 61.8783 86.9567 62.1003 87.0201L62.6497 85.0971ZM62.6051 85.1198C62.5812 85.0991 62.5925 85.1066 62.6176 85.1351C62.6292 85.1483 62.6657 85.1903 62.7047 85.2552C62.7249 85.2889 62.7547 85.3435 62.7812 85.4157C62.8066 85.4853 62.8403 85.6021 62.8403 85.751H60.8403C60.8403 86.0322 60.9575 86.2305 60.9897 86.2842C61.0378 86.3644 61.088 86.4245 61.118 86.4584C61.1797 86.5284 61.2459 86.5884 61.2953 86.6312L62.6051 85.1198ZM62.8342 85.6405C62.8297 85.6001 62.8179 85.4888 62.7982 85.3021L60.8092 85.5114C60.8286 85.6958 60.8412 85.8139 60.8464 85.8614L62.8342 85.6405ZM62.7985 85.3047C62.7812 85.136 62.7627 84.8893 62.7434 84.5578L60.7468 84.6736C60.7666 85.016 60.7872 85.2967 60.8089 85.5088L62.7985 85.3047ZM62.7435 84.5587C62.7253 84.2401 62.7158 83.8715 62.7158 83.4512H60.7158C60.7158 83.9 60.7259 84.3077 60.7467 84.6728L62.7435 84.5587ZM62.7158 83.4512C62.7158 83.0823 62.7443 82.5987 62.8059 81.9922L60.8162 81.7901C60.7508 82.4335 60.7158 82.99 60.7158 83.4512H62.7158ZM62.8091 81.9535C62.8132 81.8879 62.8268 81.7139 62.8515 81.4175L60.8584 81.2514C60.8343 81.541 60.8187 81.738 60.813 81.8287L62.8091 81.9535ZM62.8515 81.4175C62.8777 81.1029 62.8916 80.8085 62.8916 80.5361H60.8916C60.8916 80.7423 60.881 80.9801 60.8584 81.2514L62.8515 81.4175ZM62.5273 79.7642C62.2217 79.5125 61.8685 79.4364 61.5807 79.4268L61.514 81.4257C61.5136 81.4257 61.5067 81.4255 61.4944 81.4235C61.482 81.4215 61.4631 81.4177 61.4392 81.4101C61.3901 81.3944 61.3236 81.3638 61.2559 81.3081L62.5273 79.7642ZM60.9399 79.6319C60.7701 79.7617 60.6574 79.9353 60.6271 79.9803C60.5686 80.0673 60.5065 80.1705 60.4432 80.2811C60.3154 80.5046 60.1536 80.8094 59.9607 81.1879L61.7425 82.0963C61.9303 81.7278 62.075 81.4564 62.1791 81.2745C62.2318 81.1825 62.267 81.1258 62.2872 81.0957C62.2975 81.0804 62.297 81.0823 62.2873 81.0943C62.2864 81.0955 62.2398 81.1557 62.1548 81.2206L60.9399 79.6319ZM59.9607 81.1879C59.5804 81.9338 59.3095 82.4936 59.1655 82.8426L61.0142 83.6056C61.1241 83.3394 61.361 82.8446 61.7425 82.0963L59.9607 81.1879ZM59.0999 83.0827C59.084 83.1939 59.0752 83.3072 59.0752 83.4219H61.0752C61.0752 83.4096 61.0761 83.3911 61.0798 83.3655L59.0999 83.0827ZM59.0752 83.4219C59.0752 83.7513 59.1231 84.1468 59.2003 84.5844L61.1698 84.2369C61.1006 83.8444 61.0752 83.5807 61.0752 83.4219H59.0752ZM59.2006 84.5864C59.2799 85.0303 59.3788 85.4516 59.4986 85.8491L61.4135 85.272C61.3185 84.9566 61.2367 84.6113 61.1695 84.2349L59.2006 84.5864ZM59.5723 85.0927C59.608 85.0252 59.6452 84.9966 59.6444 84.9972C59.644 84.9975 59.636 85.0036 59.6173 85.0139C59.5986 85.0243 59.5715 85.0377 59.5341 85.053L60.294 86.903C60.6665 86.75 61.0952 86.4905 61.3398 86.0284L59.5723 85.0927ZM59.5341 85.053C59.4158 85.1016 59.2168 85.1465 58.9033 85.1465V87.1465C59.3906 87.1465 59.8655 87.079 60.294 86.903L59.5341 85.053ZM58.9033 85.1465C58.5844 85.1465 58.3908 85.1194 58.2894 85.0924L57.7741 87.0248C58.1122 87.115 58.4996 87.1465 58.9033 87.1465V85.1465ZM58.2949 85.0938C58.2125 85.0714 58.1602 85.0532 58.131 85.0414C58.1171 85.0358 58.1133 85.0336 58.1171 85.0356C58.1204 85.0373 58.1376 85.0464 58.1631 85.0648L56.9921 86.6862C57.2342 86.861 57.5338 86.9593 57.7686 87.0234L58.2949 85.0938ZM58.1916 85.0861C58.1557 85.0582 58.1524 85.0538 58.1654 85.0661C58.1695 85.07 58.2023 85.1006 58.2415 85.1507C58.2609 85.1755 58.2995 85.2271 58.3371 85.3004C58.3673 85.3591 58.4458 85.5231 58.4458 85.751H56.4458C56.4458 85.9825 56.5256 86.151 56.5586 86.2151C56.599 86.2937 56.6417 86.3515 56.6665 86.3833C56.7167 86.4475 56.7661 86.4955 56.7921 86.5201C56.8491 86.5739 56.9117 86.6244 56.9637 86.6648L58.1916 85.0861ZM58.4397 85.6405C58.4352 85.6001 58.4233 85.4888 58.4037 85.3021L56.4147 85.5114C56.4341 85.6958 56.4466 85.8139 56.4519 85.8614L58.4397 85.6405ZM58.404 85.3047C58.3867 85.136 58.3681 84.8893 58.3489 84.5578L56.3523 84.6736C56.3721 85.016 56.3926 85.2967 56.4144 85.5088L58.404 85.3047ZM58.349 84.5587C58.3308 84.2401 58.3213 83.8715 58.3213 83.4512H56.3213C56.3213 83.9 56.3314 84.3077 56.3522 84.6728L58.349 84.5587ZM71.3325 83.4146L71.7021 82.4853L71.0051 82.2081L70.5439 82.7997L71.3325 83.4146ZM73.2148 84.0518L72.9979 85.028L73.0011 85.0287L73.2148 84.0518ZM74.438 84.1177L74.8226 85.0408L75.0744 84.9359L75.238 84.7177L74.438 84.1177ZM74.4746 84.0298L73.5259 83.7136L73.5138 83.75L73.5045 83.7872L74.4746 84.0298ZM74.3281 83.6562L74.8202 82.7857L74.8138 82.7821L74.3281 83.6562ZM73.3906 83.1948L72.9607 84.0977L72.9672 84.1008L73.3906 83.1948ZM71.9258 82.4111L71.3844 83.252L71.3896 83.2553L71.9258 82.4111ZM71.0176 81.4956L70.1757 82.0353L70.1806 82.0429L71.0176 81.4956ZM71.3911 78.0752L72.1017 78.7788L72.1051 78.7753L71.3911 78.0752ZM76.7085 77.8188L77.6806 77.5842L77.5679 77.1174L77.1331 76.9135L76.7085 77.8188ZM76.5693 79.6133L77.5275 79.8996L77.5284 79.8966L76.5693 79.6133ZM76.0713 80.5581L75.7551 81.5068L76.3414 81.7022L76.7784 81.2652L76.0713 80.5581ZM74.8921 80.1113L75.2666 79.1841L75.2593 79.1812L74.8921 80.1113ZM74.0059 79.7744L73.6455 80.7072L73.6581 80.7121L73.6708 80.7166L74.0059 79.7744ZM73.4126 79.5986L73.5985 78.6161L73.3829 78.5753L73.1701 78.6285L73.4126 79.5986ZM73.1782 79.7744L74.0103 80.3291L74.0171 80.3188L74.0237 80.3084L73.1782 79.7744ZM73.3979 80.5361L72.9077 81.4077L72.9393 81.4255L72.9722 81.441L73.3979 80.5361ZM73.7495 80.6973L73.3379 81.6087L73.3487 81.6134L73.7495 80.6973ZM73.9692 80.7925L73.5753 81.7116L73.6038 81.7238L73.6329 81.7342L73.9692 80.7925ZM74.1597 80.8657L74.5493 79.9447L74.5443 79.9426L74.1597 80.8657ZM75.6978 81.6274L75.1296 82.4503L75.1308 82.4512L75.6978 81.6274ZM76.584 82.5137L75.7444 83.0569L76.584 82.5137ZM76.4375 85.0259L75.6492 84.4106L75.6481 84.4119L76.4375 85.0259ZM75.251 85.8901L75.5942 86.8294L75.6011 86.8269L75.251 85.8901ZM74.416 86.0879L74.288 85.0961L74.279 85.0973L74.2701 85.0986L74.416 86.0879ZM71.9038 85.8828L71.5547 86.82L71.5657 86.8239L71.9038 85.8828ZM70.7612 84.96L69.7614 84.9436L69.7566 85.2348L69.9089 85.483L70.7612 84.96ZM70.8784 84.1836L69.9338 83.855L69.9297 83.8674L70.8784 84.1836ZM70.963 84.3438C71.3972 84.5165 71.7534 84.653 72.0278 84.7514L72.7027 82.8687C72.4595 82.7815 72.1272 82.6544 71.7021 82.4853L70.963 84.3438ZM72.0278 84.7514C72.3312 84.8602 72.6552 84.9518 72.9979 85.0279L73.4318 83.0756C73.1592 83.015 72.9169 82.9455 72.7027 82.8687L72.0278 84.7514ZM73.0011 85.0287C73.381 85.1118 73.7627 85.1543 74.145 85.1543V83.1543C73.9121 83.1543 73.6736 83.1285 73.4285 83.0749L73.0011 85.0287ZM74.145 85.1543C74.2964 85.1543 74.5673 85.1471 74.8226 85.0408L74.0534 83.1946C74.1006 83.1749 74.1379 83.1649 74.1585 83.1601C74.18 83.155 74.1937 83.1533 74.1968 83.1529C74.2014 83.1523 74.1866 83.1543 74.145 83.1543V85.1543ZM75.238 84.7177C75.368 84.5443 75.421 84.3675 75.4448 84.2723L73.5045 83.7872C73.5086 83.7705 73.5176 83.7382 73.5351 83.6964C73.5519 83.656 73.5832 83.5907 73.638 83.5177L75.238 84.7177ZM75.4233 84.346C75.4701 84.2056 75.4966 84.0551 75.4966 83.8979H73.4966C73.4966 83.8287 73.5084 83.766 73.5259 83.7136L75.4233 84.346ZM75.4966 83.8979C75.4966 83.3242 75.1308 82.9613 74.8202 82.7857L73.8361 84.5268C73.801 84.507 73.7142 84.451 73.6341 84.3361C73.5459 84.2096 73.4966 84.0548 73.4966 83.8979H75.4966ZM74.8138 82.7821C74.604 82.6656 74.2627 82.4986 73.814 82.2889L72.9672 84.1008C73.417 84.311 73.7007 84.4516 73.8425 84.5304L74.8138 82.7821ZM73.8206 82.292C73.2232 82.0075 72.7752 81.766 72.4619 81.567L71.3896 83.2553C71.799 83.5153 72.3276 83.7962 72.9607 84.0977L73.8206 82.292ZM72.4671 81.5703C72.2372 81.4223 72.0325 81.2204 71.8545 80.9484L70.1806 82.0429C70.5007 82.5325 70.9014 82.941 71.3844 83.2519L72.4671 81.5703ZM71.8595 80.9559C71.7434 80.7749 71.6514 80.4968 71.6514 80.0601H69.6514C69.6514 80.7756 69.8035 81.4546 70.1757 82.0353L71.8595 80.9559ZM71.6514 80.0601C71.6514 79.4481 71.8265 79.0567 72.1017 78.7788L70.6805 77.3716C69.9694 78.0898 69.6514 79.0216 69.6514 80.0601H71.6514ZM72.1051 78.7753C72.332 78.544 72.7969 78.3208 73.7349 78.3208V76.3208C72.5342 76.3208 71.4366 76.6006 70.6771 77.3751L72.1051 78.7753ZM73.7349 78.3208C74.944 78.3208 75.7668 78.4817 76.2839 78.7242L77.1331 76.9135C76.2342 76.4919 75.0745 76.3208 73.7349 76.3208V78.3208ZM75.7364 78.0535C75.7455 78.0913 75.7598 78.1841 75.7598 78.3535H77.7598C77.7598 78.0932 77.7398 77.8296 77.6806 77.5842L75.7364 78.0535ZM75.7598 78.3535C75.7598 78.6593 75.7126 78.9838 75.6103 79.3299L77.5284 79.8966C77.68 79.3834 77.7598 78.868 77.7598 78.3535H75.7598ZM75.6112 79.3269C75.5088 79.6696 75.406 79.8091 75.3642 79.851L76.7784 81.2652C77.1467 80.8969 77.376 80.4065 77.5275 79.8996L75.6112 79.3269ZM76.3875 79.6094C76.1389 79.5266 75.7685 79.3868 75.2666 79.1841L74.5176 81.0386C75.0313 81.246 75.447 81.4041 75.7551 81.5068L76.3875 79.6094ZM75.2593 79.1812C74.8838 79.033 74.5763 78.9159 74.3409 78.8322L73.6708 80.7166C73.8749 80.7892 74.1582 80.8967 74.5249 81.0415L75.2593 79.1812ZM74.3663 78.8416C74.1084 78.742 73.8514 78.6639 73.5985 78.6161L73.2267 80.5812C73.3351 80.6017 73.4737 80.6408 73.6455 80.7072L74.3663 78.8416ZM73.1701 78.6285C72.7992 78.7212 72.5152 78.9515 72.3327 79.2404L74.0237 80.3084C73.996 80.3522 73.9503 80.4087 73.8808 80.4609C73.8099 80.514 73.7315 80.5497 73.6551 80.5688L73.1701 78.6285ZM72.3462 79.2197C72.1618 79.4963 72.0903 79.8014 72.0903 80.0894H74.0903C74.0903 80.1332 74.0775 80.2283 74.0103 80.3291L72.3462 79.2197ZM72.0903 80.0894C72.0903 80.4094 72.1914 80.7401 72.4299 81.0153L73.9412 79.7054C73.9908 79.7627 74.0313 79.8312 74.0576 79.9062C74.0834 79.9797 74.0903 80.0438 74.0903 80.0894H72.0903ZM72.4299 81.0153C72.5626 81.1684 72.7214 81.3029 72.9077 81.4077L73.8882 79.6646C73.9182 79.6814 73.9355 79.6988 73.9412 79.7054L72.4299 81.0153ZM72.9722 81.441C73.0622 81.4833 73.1849 81.5395 73.3379 81.6086L74.1611 79.7859C74.0113 79.7183 73.8997 79.6671 73.8237 79.6313L72.9722 81.441ZM73.3487 81.6134C73.4288 81.6485 73.5044 81.6812 73.5753 81.7116L74.3632 79.8733C74.2974 79.8452 74.2265 79.8144 74.1503 79.7811L73.3487 81.6134ZM73.6329 81.7342C73.6873 81.7536 73.7345 81.7719 73.7751 81.7888L74.5443 79.9426C74.4677 79.9107 74.3879 79.8802 74.3056 79.8507L73.6329 81.7342ZM73.77 81.7867C74.1463 81.9459 74.4339 82.0723 74.6377 82.1674L75.4834 80.355C75.2477 80.2451 74.9348 80.1078 74.5493 79.9448L73.77 81.7867ZM74.6377 82.1674C74.8053 82.2457 74.9692 82.3396 75.1296 82.4503L76.2659 80.8045C76.0161 80.632 75.7552 80.4819 75.4834 80.355L74.6377 82.1674ZM75.1308 82.4512C75.4149 82.6467 75.6112 82.8511 75.7444 83.0569L77.4236 81.9704C77.127 81.5122 76.7326 81.1257 76.2647 80.8037L75.1308 82.4512ZM75.7444 83.0569C75.8545 83.2271 75.9062 83.4022 75.9062 83.605H77.9062C77.9062 83.0167 77.7431 82.4643 77.4236 81.9704L75.7444 83.0569ZM75.9062 83.605C75.9062 83.9472 75.8137 84.1998 75.6492 84.4106L77.2258 85.6411C77.6863 85.0511 77.9062 84.3566 77.9062 83.605H75.9062ZM75.6481 84.4119C75.4578 84.6567 75.2163 84.8356 74.9009 84.9534L75.6011 86.8269C76.2525 86.5834 76.802 86.1861 77.2269 85.6398L75.6481 84.4119ZM74.9078 84.9509C74.7317 85.0152 74.5266 85.0653 74.288 85.0961L74.544 87.0797C74.9109 87.0323 75.2624 86.9506 75.5942 86.8294L74.9078 84.9509ZM74.2701 85.0986C74.0333 85.1335 73.7351 85.1538 73.3687 85.1538V87.1538C73.803 87.1538 74.203 87.1301 74.562 87.0772L74.2701 85.0986ZM73.3687 85.1538C73.024 85.1538 72.6501 85.0883 72.2419 84.9417L71.5657 86.8239C72.1633 87.0386 72.766 87.1538 73.3687 87.1538V85.1538ZM72.2529 84.9457C71.952 84.8336 71.7538 84.6655 71.6136 84.4369L69.9089 85.483C70.296 86.1138 70.8596 86.5609 71.5547 86.8199L72.2529 84.9457ZM71.7611 84.9764C71.7648 84.7529 71.7938 84.5997 71.8271 84.4998L69.9297 83.8674C69.8165 84.2069 69.7675 84.5713 69.7614 84.9436L71.7611 84.9764ZM71.8229 84.5121C71.8512 84.4307 71.9317 84.2724 72.1212 84.0294L70.5439 82.7997C70.2841 83.1329 70.0618 83.4873 69.9339 83.8551L71.8229 84.5121Z" fill="black" mask="url(#path-4-outside-2_29_2)"/>
</svg>
