<svg width="236" height="54" viewBox="0 0 236 54" fill="none" xmlns="http://www.w3.org/2000/svg">
<mask id="path-1-outside-1_70_17" maskUnits="userSpaceOnUse" x="3" y="10" width="228" height="41" fill="black">
<rect fill="white" x="3" y="10" width="228" height="41"/>
<path d="M9.17 43.006C8.87 43.006 8.72 42.856 8.72 42.556V39.694C8.72 39.466 8.78 39.286 8.9 39.154L11.564 36.49C11.708 36.358 11.78 36.166 11.78 35.914V16.456C11.78 16.156 11.93 16.006 12.23 16.006H17.324C17.624 16.006 17.774 16.156 17.774 16.456V38.434C17.774 38.542 17.762 38.644 17.738 38.74C17.726 38.824 17.672 38.914 17.576 39.01L13.85 42.736C13.67 42.916 13.49 43.006 13.31 43.006H9.17ZM26.578 40C26.302 40 26.062 39.898 25.858 39.694L22.258 36.094C22.054 35.902 21.952 35.662 21.952 35.374V24.826C21.952 24.538 22.054 24.298 22.258 24.106L25.858 20.506C26.062 20.302 26.302 20.2 26.578 20.2H36.208C36.508 20.2 36.658 20.35 36.658 20.65V39.55C36.658 39.85 36.508 40 36.208 40H32.464C32.308 40 32.188 39.97 32.104 39.91C32.032 39.85 31.948 39.778 31.852 39.694L30.952 38.794L30.052 39.694C29.86 39.898 29.62 40 29.332 40H26.578ZM28.684 35.806H29.944C30.328 35.806 30.592 35.728 30.736 35.572C30.88 35.416 30.952 35.14 30.952 34.744V24.394H28.684C28.288 24.394 28.018 24.472 27.874 24.628C27.73 24.784 27.658 25.06 27.658 25.456V34.744C27.658 35.14 27.73 35.416 27.874 35.572C28.018 35.728 28.288 35.806 28.684 35.806ZM41.3014 45.4C41.0014 45.4 40.8514 45.25 40.8514 44.95V20.65C40.8514 20.35 41.0014 20.2 41.3014 20.2H45.0274C45.2434 20.2 45.4534 20.302 45.6574 20.506L46.5574 21.406L47.4574 20.506C47.6494 20.302 47.8894 20.2 48.1774 20.2H50.9314C51.2074 20.2 51.4474 20.302 51.6514 20.506L55.2514 24.106C55.4554 24.298 55.5574 24.538 55.5574 24.826V35.374C55.5574 35.662 55.4554 35.902 55.2514 36.094L51.6514 39.694C51.4474 39.898 51.2074 40 50.9314 40H48.1774C47.8894 40 47.6494 39.898 47.4574 39.694L46.5574 38.794V44.95C46.5574 45.25 46.4074 45.4 46.1074 45.4H41.3014ZM46.5574 35.806H48.8254C49.2214 35.806 49.4914 35.728 49.6354 35.572C49.7794 35.416 49.8514 35.14 49.8514 34.744V25.456C49.8514 25.06 49.7794 24.784 49.6354 24.628C49.4914 24.472 49.2214 24.394 48.8254 24.394H47.5654C47.1814 24.394 46.9174 24.472 46.7734 24.628C46.6294 24.784 46.5574 25.06 46.5574 25.456V35.806ZM64.2655 40C63.9895 40 63.7495 39.898 63.5455 39.694L59.9455 36.094C59.7415 35.902 59.6395 35.662 59.6395 35.374V24.826C59.6395 24.538 59.7415 24.298 59.9455 24.106L63.5455 20.506C63.7495 20.302 63.9895 20.2 64.2655 20.2H73.8955C74.1955 20.2 74.3455 20.35 74.3455 20.65V39.55C74.3455 39.85 74.1955 40 73.8955 40H70.1515C69.9955 40 69.8755 39.97 69.7915 39.91C69.7195 39.85 69.6355 39.778 69.5395 39.694L68.6395 38.794L67.7395 39.694C67.5475 39.898 67.3075 40 67.0195 40H64.2655ZM66.3715 35.806H67.6315C68.0155 35.806 68.2795 35.728 68.4235 35.572C68.5675 35.416 68.6395 35.14 68.6395 34.744V24.394H66.3715C65.9755 24.394 65.7055 24.472 65.5615 24.628C65.4175 24.784 65.3455 25.06 65.3455 25.456V34.744C65.3455 35.14 65.4175 35.416 65.5615 35.572C65.7055 35.728 65.9755 35.806 66.3715 35.806ZM78.9889 40C78.6889 40 78.5389 39.85 78.5389 39.55V20.65C78.5389 20.35 78.6889 20.2 78.9889 20.2H88.6189C88.8949 20.2 89.1349 20.302 89.3389 20.506L92.9389 24.106C93.1429 24.298 93.2449 24.538 93.2449 24.826V39.55C93.2449 39.85 93.0949 40 92.7949 40H87.9889C87.6889 40 87.5389 39.85 87.5389 39.55V25.546C87.5389 24.982 87.2569 24.7 86.6929 24.7H84.2449V39.55C84.2449 39.85 84.0949 40 83.7949 40H78.9889ZM105.517 40C105.397 40 105.265 39.982 105.121 39.946C104.989 39.91 104.863 39.88 104.743 39.856L101.539 39.064L97.867 37.84C97.507 37.72 97.327 37.372 97.327 36.796V24.826C97.327 24.538 97.429 24.298 97.633 24.106L101.233 20.506C101.437 20.302 101.677 20.2 101.953 20.2H107.713C107.989 20.2 108.229 20.302 108.433 20.506L112.033 24.106C112.237 24.298 112.339 24.538 112.339 24.826V32.206H102.673L102.547 34.6L105.103 35.446L109.693 35.77C109.897 35.806 109.999 35.944 109.999 36.184V39.55C109.999 39.85 109.849 40 109.549 40H105.517ZM104.797 29.38H105.139C105.727 29.38 106.195 29.158 106.543 28.714C106.903 28.27 107.083 27.67 107.083 26.914V26.554C107.083 25.81 106.903 25.216 106.543 24.772C106.195 24.328 105.727 24.106 105.139 24.106H104.779C104.203 24.106 103.741 24.328 103.393 24.772C103.057 25.216 102.889 25.81 102.889 26.554V26.914C102.889 27.67 103.057 28.27 103.393 28.714C103.741 29.158 104.209 29.38 104.797 29.38ZM115.978 40C115.678 40 115.528 39.85 115.528 39.55V36.634C115.528 36.358 115.618 36.178 115.798 36.094L119.47 33.916V32.044L115.798 30.064C115.618 29.956 115.528 29.77 115.528 29.506V23.764C115.528 23.632 115.546 23.524 115.582 23.44C115.63 23.356 115.696 23.284 115.78 23.224L119.614 20.416C119.746 20.32 119.854 20.26 119.938 20.236C120.022 20.212 120.106 20.2 120.19 20.2H124.564C124.864 20.2 125.014 20.35 125.014 20.65V23.476C125.014 23.68 124.996 23.818 124.96 23.89C124.936 23.962 124.876 24.022 124.78 24.07L121.378 25.906V27.994L125.014 29.794C125.218 29.878 125.32 30.058 125.32 30.334V35.86C125.32 36.16 125.218 36.4 125.014 36.58L121.18 39.766C120.988 39.922 120.748 40 120.46 40H115.978ZM137.158 40C137.038 40 136.906 39.982 136.762 39.946C136.63 39.91 136.504 39.88 136.384 39.856L133.18 39.064L129.508 37.84C129.148 37.72 128.968 37.372 128.968 36.796V24.826C128.968 24.538 129.07 24.298 129.274 24.106L132.874 20.506C133.078 20.302 133.318 20.2 133.594 20.2H139.354C139.63 20.2 139.87 20.302 140.074 20.506L143.674 24.106C143.878 24.298 143.98 24.538 143.98 24.826V32.206H134.314L134.188 34.6L136.744 35.446L141.334 35.77C141.538 35.806 141.64 35.944 141.64 36.184V39.55C141.64 39.85 141.49 40 141.19 40H137.158ZM136.438 29.38H136.78C137.368 29.38 137.836 29.158 138.184 28.714C138.544 28.27 138.724 27.67 138.724 26.914V26.554C138.724 25.81 138.544 25.216 138.184 24.772C137.836 24.328 137.368 24.106 136.78 24.106H136.42C135.844 24.106 135.382 24.328 135.034 24.772C134.698 25.216 134.53 25.81 134.53 26.554V26.914C134.53 27.67 134.698 28.27 135.034 28.714C135.382 29.158 135.85 29.38 136.438 29.38ZM153.907 40C153.607 40 153.457 39.85 153.457 39.55V20.02C153.457 19.744 153.559 19.504 153.763 19.3L156.751 16.294C156.955 16.102 157.195 16.006 157.471 16.006H161.593C161.869 16.006 162.109 16.102 162.313 16.294L165.337 19.336H166.183L169.207 16.294C169.411 16.102 169.651 16.006 169.927 16.006H174.031C174.319 16.006 174.559 16.102 174.751 16.294L177.757 19.3C177.961 19.504 178.063 19.744 178.063 20.02V39.55C178.063 39.85 177.913 40 177.613 40H172.501C172.201 40 172.051 39.85 172.051 39.55V20.794H168.757V39.55C168.757 39.85 168.607 40 168.307 40H163.213C162.913 40 162.763 39.85 162.763 39.55V20.794H159.451V39.55C159.451 39.85 159.301 40 159.001 40H153.907ZM182.84 40C182.54 40 182.39 39.85 182.39 39.55V20.65C182.39 20.35 182.54 20.2 182.84 20.2H187.628C187.928 20.2 188.078 20.35 188.078 20.65V39.55C188.078 39.85 187.928 40 187.628 40H182.84ZM182.75 18.706C182.51 18.706 182.39 18.586 182.39 18.346V16.06C182.39 15.82 182.51 15.7 182.75 15.7H187.754C187.97 15.7 188.078 15.82 188.078 16.06V18.346C188.078 18.586 187.97 18.706 187.754 18.706H182.75ZM202.259 40C202.103 40 201.977 39.976 201.881 39.928C201.797 39.88 201.743 39.814 201.719 39.73L199.649 31.576H197.975V27.256H199.649L201.719 20.506C201.743 20.41 201.797 20.344 201.881 20.308C201.977 20.26 202.103 20.236 202.259 20.236H206.813C207.113 20.236 207.263 20.386 207.263 20.686V22.594C207.263 22.762 207.251 22.894 207.227 22.99C207.203 23.086 207.167 23.188 207.119 23.296L204.455 29.434V30.046L207.263 36.94C207.323 37.072 207.365 37.192 207.389 37.3C207.413 37.396 207.425 37.504 207.425 37.624V39.55C207.425 39.85 207.275 40 206.975 40H202.259ZM192.719 40C192.419 40 192.269 39.85 192.269 39.55V16.456C192.269 16.156 192.419 16.006 192.719 16.006H197.525C197.825 16.006 197.975 16.156 197.975 16.456V39.55C197.975 39.85 197.825 40 197.525 40H192.719ZM215.156 40C214.88 40 214.64 39.898 214.436 39.694L210.836 36.094C210.632 35.902 210.53 35.662 210.53 35.374V24.826C210.53 24.538 210.632 24.298 210.836 24.106L214.436 20.506C214.64 20.302 214.88 20.2 215.156 20.2H220.61C220.898 20.2 221.138 20.302 221.33 20.506L224.93 24.106C225.134 24.298 225.236 24.538 225.236 24.826V35.374C225.236 35.662 225.134 35.902 224.93 36.094L221.33 39.694C221.138 39.898 220.898 40 220.61 40H215.156ZM217.262 35.806H218.522C218.906 35.806 219.17 35.728 219.314 35.572C219.458 35.416 219.53 35.14 219.53 34.744V25.456C219.53 25.06 219.458 24.784 219.314 24.628C219.17 24.472 218.906 24.394 218.522 24.394H217.262C216.866 24.394 216.596 24.472 216.452 24.628C216.308 24.784 216.236 25.06 216.236 25.456V34.744C216.236 35.14 216.308 35.416 216.452 35.572C216.596 35.728 216.866 35.806 217.262 35.806Z"/>
</mask>
<path d="M9.17 43.006C8.87 43.006 8.72 42.856 8.72 42.556V39.694C8.72 39.466 8.78 39.286 8.9 39.154L11.564 36.49C11.708 36.358 11.78 36.166 11.78 35.914V16.456C11.78 16.156 11.93 16.006 12.23 16.006H17.324C17.624 16.006 17.774 16.156 17.774 16.456V38.434C17.774 38.542 17.762 38.644 17.738 38.74C17.726 38.824 17.672 38.914 17.576 39.01L13.85 42.736C13.67 42.916 13.49 43.006 13.31 43.006H9.17ZM26.578 40C26.302 40 26.062 39.898 25.858 39.694L22.258 36.094C22.054 35.902 21.952 35.662 21.952 35.374V24.826C21.952 24.538 22.054 24.298 22.258 24.106L25.858 20.506C26.062 20.302 26.302 20.2 26.578 20.2H36.208C36.508 20.2 36.658 20.35 36.658 20.65V39.55C36.658 39.85 36.508 40 36.208 40H32.464C32.308 40 32.188 39.97 32.104 39.91C32.032 39.85 31.948 39.778 31.852 39.694L30.952 38.794L30.052 39.694C29.86 39.898 29.62 40 29.332 40H26.578ZM28.684 35.806H29.944C30.328 35.806 30.592 35.728 30.736 35.572C30.88 35.416 30.952 35.14 30.952 34.744V24.394H28.684C28.288 24.394 28.018 24.472 27.874 24.628C27.73 24.784 27.658 25.06 27.658 25.456V34.744C27.658 35.14 27.73 35.416 27.874 35.572C28.018 35.728 28.288 35.806 28.684 35.806ZM41.3014 45.4C41.0014 45.4 40.8514 45.25 40.8514 44.95V20.65C40.8514 20.35 41.0014 20.2 41.3014 20.2H45.0274C45.2434 20.2 45.4534 20.302 45.6574 20.506L46.5574 21.406L47.4574 20.506C47.6494 20.302 47.8894 20.2 48.1774 20.2H50.9314C51.2074 20.2 51.4474 20.302 51.6514 20.506L55.2514 24.106C55.4554 24.298 55.5574 24.538 55.5574 24.826V35.374C55.5574 35.662 55.4554 35.902 55.2514 36.094L51.6514 39.694C51.4474 39.898 51.2074 40 50.9314 40H48.1774C47.8894 40 47.6494 39.898 47.4574 39.694L46.5574 38.794V44.95C46.5574 45.25 46.4074 45.4 46.1074 45.4H41.3014ZM46.5574 35.806H48.8254C49.2214 35.806 49.4914 35.728 49.6354 35.572C49.7794 35.416 49.8514 35.14 49.8514 34.744V25.456C49.8514 25.06 49.7794 24.784 49.6354 24.628C49.4914 24.472 49.2214 24.394 48.8254 24.394H47.5654C47.1814 24.394 46.9174 24.472 46.7734 24.628C46.6294 24.784 46.5574 25.06 46.5574 25.456V35.806ZM64.2655 40C63.9895 40 63.7495 39.898 63.5455 39.694L59.9455 36.094C59.7415 35.902 59.6395 35.662 59.6395 35.374V24.826C59.6395 24.538 59.7415 24.298 59.9455 24.106L63.5455 20.506C63.7495 20.302 63.9895 20.2 64.2655 20.2H73.8955C74.1955 20.2 74.3455 20.35 74.3455 20.65V39.55C74.3455 39.85 74.1955 40 73.8955 40H70.1515C69.9955 40 69.8755 39.97 69.7915 39.91C69.7195 39.85 69.6355 39.778 69.5395 39.694L68.6395 38.794L67.7395 39.694C67.5475 39.898 67.3075 40 67.0195 40H64.2655ZM66.3715 35.806H67.6315C68.0155 35.806 68.2795 35.728 68.4235 35.572C68.5675 35.416 68.6395 35.14 68.6395 34.744V24.394H66.3715C65.9755 24.394 65.7055 24.472 65.5615 24.628C65.4175 24.784 65.3455 25.06 65.3455 25.456V34.744C65.3455 35.14 65.4175 35.416 65.5615 35.572C65.7055 35.728 65.9755 35.806 66.3715 35.806ZM78.9889 40C78.6889 40 78.5389 39.85 78.5389 39.55V20.65C78.5389 20.35 78.6889 20.2 78.9889 20.2H88.6189C88.8949 20.2 89.1349 20.302 89.3389 20.506L92.9389 24.106C93.1429 24.298 93.2449 24.538 93.2449 24.826V39.55C93.2449 39.85 93.0949 40 92.7949 40H87.9889C87.6889 40 87.5389 39.85 87.5389 39.55V25.546C87.5389 24.982 87.2569 24.7 86.6929 24.7H84.2449V39.55C84.2449 39.85 84.0949 40 83.7949 40H78.9889ZM105.517 40C105.397 40 105.265 39.982 105.121 39.946C104.989 39.91 104.863 39.88 104.743 39.856L101.539 39.064L97.867 37.84C97.507 37.72 97.327 37.372 97.327 36.796V24.826C97.327 24.538 97.429 24.298 97.633 24.106L101.233 20.506C101.437 20.302 101.677 20.2 101.953 20.2H107.713C107.989 20.2 108.229 20.302 108.433 20.506L112.033 24.106C112.237 24.298 112.339 24.538 112.339 24.826V32.206H102.673L102.547 34.6L105.103 35.446L109.693 35.77C109.897 35.806 109.999 35.944 109.999 36.184V39.55C109.999 39.85 109.849 40 109.549 40H105.517ZM104.797 29.38H105.139C105.727 29.38 106.195 29.158 106.543 28.714C106.903 28.27 107.083 27.67 107.083 26.914V26.554C107.083 25.81 106.903 25.216 106.543 24.772C106.195 24.328 105.727 24.106 105.139 24.106H104.779C104.203 24.106 103.741 24.328 103.393 24.772C103.057 25.216 102.889 25.81 102.889 26.554V26.914C102.889 27.67 103.057 28.27 103.393 28.714C103.741 29.158 104.209 29.38 104.797 29.38ZM115.978 40C115.678 40 115.528 39.85 115.528 39.55V36.634C115.528 36.358 115.618 36.178 115.798 36.094L119.47 33.916V32.044L115.798 30.064C115.618 29.956 115.528 29.77 115.528 29.506V23.764C115.528 23.632 115.546 23.524 115.582 23.44C115.63 23.356 115.696 23.284 115.78 23.224L119.614 20.416C119.746 20.32 119.854 20.26 119.938 20.236C120.022 20.212 120.106 20.2 120.19 20.2H124.564C124.864 20.2 125.014 20.35 125.014 20.65V23.476C125.014 23.68 124.996 23.818 124.96 23.89C124.936 23.962 124.876 24.022 124.78 24.07L121.378 25.906V27.994L125.014 29.794C125.218 29.878 125.32 30.058 125.32 30.334V35.86C125.32 36.16 125.218 36.4 125.014 36.58L121.18 39.766C120.988 39.922 120.748 40 120.46 40H115.978ZM137.158 40C137.038 40 136.906 39.982 136.762 39.946C136.63 39.91 136.504 39.88 136.384 39.856L133.18 39.064L129.508 37.84C129.148 37.72 128.968 37.372 128.968 36.796V24.826C128.968 24.538 129.07 24.298 129.274 24.106L132.874 20.506C133.078 20.302 133.318 20.2 133.594 20.2H139.354C139.63 20.2 139.87 20.302 140.074 20.506L143.674 24.106C143.878 24.298 143.98 24.538 143.98 24.826V32.206H134.314L134.188 34.6L136.744 35.446L141.334 35.77C141.538 35.806 141.64 35.944 141.64 36.184V39.55C141.64 39.85 141.49 40 141.19 40H137.158ZM136.438 29.38H136.78C137.368 29.38 137.836 29.158 138.184 28.714C138.544 28.27 138.724 27.67 138.724 26.914V26.554C138.724 25.81 138.544 25.216 138.184 24.772C137.836 24.328 137.368 24.106 136.78 24.106H136.42C135.844 24.106 135.382 24.328 135.034 24.772C134.698 25.216 134.53 25.81 134.53 26.554V26.914C134.53 27.67 134.698 28.27 135.034 28.714C135.382 29.158 135.85 29.38 136.438 29.38ZM153.907 40C153.607 40 153.457 39.85 153.457 39.55V20.02C153.457 19.744 153.559 19.504 153.763 19.3L156.751 16.294C156.955 16.102 157.195 16.006 157.471 16.006H161.593C161.869 16.006 162.109 16.102 162.313 16.294L165.337 19.336H166.183L169.207 16.294C169.411 16.102 169.651 16.006 169.927 16.006H174.031C174.319 16.006 174.559 16.102 174.751 16.294L177.757 19.3C177.961 19.504 178.063 19.744 178.063 20.02V39.55C178.063 39.85 177.913 40 177.613 40H172.501C172.201 40 172.051 39.85 172.051 39.55V20.794H168.757V39.55C168.757 39.85 168.607 40 168.307 40H163.213C162.913 40 162.763 39.85 162.763 39.55V20.794H159.451V39.55C159.451 39.85 159.301 40 159.001 40H153.907ZM182.84 40C182.54 40 182.39 39.85 182.39 39.55V20.65C182.39 20.35 182.54 20.2 182.84 20.2H187.628C187.928 20.2 188.078 20.35 188.078 20.65V39.55C188.078 39.85 187.928 40 187.628 40H182.84ZM182.75 18.706C182.51 18.706 182.39 18.586 182.39 18.346V16.06C182.39 15.82 182.51 15.7 182.75 15.7H187.754C187.97 15.7 188.078 15.82 188.078 16.06V18.346C188.078 18.586 187.97 18.706 187.754 18.706H182.75ZM202.259 40C202.103 40 201.977 39.976 201.881 39.928C201.797 39.88 201.743 39.814 201.719 39.73L199.649 31.576H197.975V27.256H199.649L201.719 20.506C201.743 20.41 201.797 20.344 201.881 20.308C201.977 20.26 202.103 20.236 202.259 20.236H206.813C207.113 20.236 207.263 20.386 207.263 20.686V22.594C207.263 22.762 207.251 22.894 207.227 22.99C207.203 23.086 207.167 23.188 207.119 23.296L204.455 29.434V30.046L207.263 36.94C207.323 37.072 207.365 37.192 207.389 37.3C207.413 37.396 207.425 37.504 207.425 37.624V39.55C207.425 39.85 207.275 40 206.975 40H202.259ZM192.719 40C192.419 40 192.269 39.85 192.269 39.55V16.456C192.269 16.156 192.419 16.006 192.719 16.006H197.525C197.825 16.006 197.975 16.156 197.975 16.456V39.55C197.975 39.85 197.825 40 197.525 40H192.719ZM215.156 40C214.88 40 214.64 39.898 214.436 39.694L210.836 36.094C210.632 35.902 210.53 35.662 210.53 35.374V24.826C210.53 24.538 210.632 24.298 210.836 24.106L214.436 20.506C214.64 20.302 214.88 20.2 215.156 20.2H220.61C220.898 20.2 221.138 20.302 221.33 20.506L224.93 24.106C225.134 24.298 225.236 24.538 225.236 24.826V35.374C225.236 35.662 225.134 35.902 224.93 36.094L221.33 39.694C221.138 39.898 220.898 40 220.61 40H215.156ZM217.262 35.806H218.522C218.906 35.806 219.17 35.728 219.314 35.572C219.458 35.416 219.53 35.14 219.53 34.744V25.456C219.53 25.06 219.458 24.784 219.314 24.628C219.17 24.472 218.906 24.394 218.522 24.394H217.262C216.866 24.394 216.596 24.472 216.452 24.628C216.308 24.784 216.236 25.06 216.236 25.456V34.744C216.236 35.14 216.308 35.416 216.452 35.572C216.596 35.728 216.866 35.806 217.262 35.806Z" fill="#FF0000"/>
<path d="M8.9 39.154L5.36447 35.6185C5.30839 35.6745 5.25365 35.732 5.2003 35.7906L8.9 39.154ZM11.564 36.49L8.18538 32.8042C8.13199 32.8532 8.07968 32.9033 8.02847 32.9545L11.564 36.49ZM17.738 38.74L12.8873 37.5273C12.8456 37.694 12.8126 37.8628 12.7883 38.0329L17.738 38.74ZM17.576 39.01L14.0405 35.4745L14.0405 35.4745L17.576 39.01ZM13.85 42.736L17.3855 46.2715L17.3855 46.2715L13.85 42.736ZM9.17 38.006C9.79072 38.006 11.1746 38.1646 12.368 39.358C13.5614 40.5514 13.72 41.9353 13.72 42.556H3.72C3.72 43.4767 3.95357 45.0856 5.29697 46.429C6.64036 47.7724 8.24928 48.006 9.17 48.006V38.006ZM13.72 42.556V39.694H3.72V42.556H13.72ZM13.72 39.694C13.72 40.3523 13.5292 41.4949 12.5997 42.5174L5.2003 35.7906C4.03079 37.0771 3.72 38.5797 3.72 39.694H13.72ZM12.4355 42.6895L15.0995 40.0255L8.02847 32.9545L5.36447 35.6185L12.4355 42.6895ZM14.9426 40.1758C16.3995 38.8403 16.78 37.1368 16.78 35.914H6.78C6.78 35.1952 7.01649 33.8757 8.18538 32.8042L14.9426 40.1758ZM16.78 35.914V16.456H6.78V35.914H16.78ZM16.78 16.456C16.78 17.0767 16.6214 18.4606 15.428 19.654C14.2346 20.8474 12.8507 21.006 12.23 21.006V11.006C11.3093 11.006 9.70037 11.2396 8.35697 12.583C7.01357 13.9264 6.78 15.5353 6.78 16.456H16.78ZM12.23 21.006H17.324V11.006H12.23V21.006ZM17.324 21.006C16.7033 21.006 15.3194 20.8474 14.126 19.654C12.9326 18.4606 12.774 17.0767 12.774 16.456H22.774C22.774 15.5353 22.5404 13.9264 21.197 12.583C19.8536 11.2396 18.2447 11.006 17.324 11.006V21.006ZM12.774 16.456V38.434H22.774V16.456H12.774ZM12.774 38.434C12.774 38.1701 12.8036 37.8622 12.8873 37.5273L22.5887 39.9527C22.7204 39.4258 22.774 38.9139 22.774 38.434H12.774ZM12.7883 38.0329C12.9967 36.5738 13.7965 35.7184 14.0405 35.4745L21.1115 42.5455C21.5475 42.1096 22.4553 41.0742 22.6877 39.4471L12.7883 38.0329ZM14.0405 35.4745L10.3145 39.2005L17.3855 46.2715L21.1115 42.5455L14.0405 35.4745ZM10.3145 39.2005C10.6795 38.8355 11.6962 38.006 13.31 38.006V48.006C15.2838 48.006 16.6606 46.9965 17.3855 46.2715L10.3145 39.2005ZM13.31 38.006H9.17V48.006H13.31V38.006ZM25.858 39.694L29.3935 36.1585L29.3935 36.1585L25.858 39.694ZM22.258 36.094L25.7935 32.5585C25.7578 32.5228 25.7216 32.4876 25.6848 32.453L22.258 36.094ZM22.258 24.106L25.6848 27.747C25.7216 27.7124 25.7578 27.6772 25.7935 27.6415L22.258 24.106ZM25.858 20.506L22.3224 16.9705L22.3224 16.9705L25.858 20.506ZM32.104 39.91L28.9031 43.7511C28.9984 43.8306 29.0967 43.9065 29.1978 43.9787L32.104 39.91ZM31.852 39.694L28.3164 43.2295C28.3949 43.308 28.4759 43.3838 28.5594 43.4569L31.852 39.694ZM30.952 38.794L34.4875 35.2585C32.5349 33.3058 29.3691 33.3058 27.4164 35.2585L30.952 38.794ZM30.052 39.694L26.5164 36.1585C26.4807 36.1942 26.4456 36.2304 26.411 36.2672L30.052 39.694ZM30.736 35.572L27.062 32.1806L27.0619 32.1806L30.736 35.572ZM30.952 24.394H35.952C35.952 21.6326 33.7134 19.394 30.952 19.394V24.394ZM27.874 24.628L31.548 28.0194L31.548 28.0194L27.874 24.628ZM27.874 35.572L31.548 32.1806L31.548 32.1806L27.874 35.572ZM26.578 35C27.0722 35 27.6125 35.0948 28.1467 35.3218C28.6765 35.547 29.0904 35.8553 29.3935 36.1585L22.3224 43.2295C23.4168 44.3239 24.9104 45 26.578 45V35ZM29.3935 36.1585L25.7935 32.5585L18.7224 39.6295L22.3224 43.2295L29.3935 36.1585ZM25.6848 32.453C26.0489 32.7957 26.3907 33.251 26.6301 33.8143C26.8682 34.3745 26.952 34.9164 26.952 35.374H16.952C16.952 36.997 17.5918 38.5686 18.8311 39.735L25.6848 32.453ZM26.952 35.374V24.826H16.952V35.374H26.952ZM26.952 24.826C26.952 25.2836 26.8682 25.8255 26.6301 26.3857C26.3907 26.949 26.0489 27.4043 25.6848 27.747L18.8311 20.465C17.5918 21.6314 16.952 23.203 16.952 24.826H26.952ZM25.7935 27.6415L29.3935 24.0415L22.3224 16.9705L18.7224 20.5705L25.7935 27.6415ZM29.3935 24.0415C29.0904 24.3447 28.6765 24.653 28.1467 24.8782C27.6125 25.1052 27.0722 25.2 26.578 25.2V15.2C24.9104 15.2 23.4168 15.8761 22.3224 16.9705L29.3935 24.0415ZM26.578 25.2H36.208V15.2H26.578V25.2ZM36.208 25.2C35.5872 25.2 34.2033 25.0414 33.0099 23.848C31.8165 22.6546 31.658 21.2707 31.658 20.65H41.658C41.658 19.7293 41.4244 18.1204 40.081 16.777C38.7376 15.4336 37.1287 15.2 36.208 15.2V25.2ZM31.658 20.65V39.55H41.658V20.65H31.658ZM31.658 39.55C31.658 38.9293 31.8165 37.5454 33.0099 36.352C34.2033 35.1586 35.5872 35 36.208 35V45C37.1287 45 38.7376 44.7664 40.081 43.423C41.4244 42.0796 41.658 40.4707 41.658 39.55H31.658ZM36.208 35H32.464V45H36.208V35ZM32.464 35C32.848 35 33.913 35.0577 35.0102 35.8413L29.1978 43.9787C30.4629 44.8823 31.7679 45 32.464 45V35ZM35.3049 36.0689C35.2724 36.0419 35.2202 35.9974 35.1445 35.9311L28.5594 43.4569C28.6757 43.5586 28.7915 43.6581 28.9031 43.7511L35.3049 36.0689ZM35.3875 36.1585L34.4875 35.2585L27.4164 42.3295L28.3164 43.2295L35.3875 36.1585ZM27.4164 35.2585L26.5164 36.1585L33.5875 43.2295L34.4875 42.3295L27.4164 35.2585ZM26.411 36.2672C26.7536 35.9031 27.209 35.5612 27.7723 35.3218C28.3325 35.0838 28.8744 35 29.332 35V45C30.9549 45 32.5266 44.3601 33.693 43.1208L26.411 36.2672ZM29.332 35H26.578V45H29.332V35ZM28.684 40.806H29.944V30.806H28.684V40.806ZM29.944 40.806C30.6826 40.806 32.7906 40.7178 34.41 38.9634L27.0619 32.1806C27.7581 31.4264 28.5312 31.0948 29.0132 30.9524C29.4825 30.8138 29.8302 30.806 29.944 30.806V40.806ZM34.41 38.9634C35.8902 37.3598 35.952 35.4313 35.952 34.744H25.952C25.952 34.6677 25.9559 34.3846 26.0599 33.9859C26.1629 33.5908 26.4187 32.8775 27.062 32.1806L34.41 38.9634ZM35.952 34.744V24.394H25.952V34.744H35.952ZM30.952 19.394H28.684V29.394H30.952V19.394ZM28.684 19.394C27.9898 19.394 25.8402 19.4596 24.1999 21.2366L31.548 28.0194C30.8314 28.7957 30.0376 29.1216 29.5722 29.2561C29.1139 29.3885 28.7799 29.394 28.684 29.394V19.394ZM24.2 21.2366C22.7197 22.8402 22.658 24.7687 22.658 25.456H32.658C32.658 25.5323 32.6541 25.8154 32.5501 26.2141C32.447 26.6092 32.1913 27.3225 31.548 28.0194L24.2 21.2366ZM22.658 25.456V34.744H32.658V25.456H22.658ZM22.658 34.744C22.658 35.4313 22.7197 37.3598 24.2 38.9634L31.548 32.1806C32.1913 32.8775 32.447 33.5908 32.5501 33.9859C32.6541 34.3846 32.658 34.6677 32.658 34.744H22.658ZM24.2 38.9634C25.8402 40.7404 27.9898 40.806 28.684 40.806V30.806C28.7799 30.806 29.1139 30.8115 29.5722 30.9439C30.0376 31.0784 30.8314 31.4043 31.548 32.1806L24.2 38.9634ZM45.6574 20.506L49.1929 16.9705L49.1929 16.9705L45.6574 20.506ZM46.5574 21.406L43.0219 24.9415C43.9596 25.8792 45.2313 26.406 46.5574 26.406C47.8835 26.406 49.1553 25.8792 50.0929 24.9415L46.5574 21.406ZM47.4574 20.506L50.9929 24.0415C51.0286 24.0058 51.0638 23.9696 51.0984 23.9328L47.4574 20.506ZM51.6514 20.506L55.1869 16.9705L55.1869 16.9705L51.6514 20.506ZM55.2514 24.106L51.7159 27.6415C51.7516 27.6772 51.7878 27.7124 51.8246 27.747L55.2514 24.106ZM55.2514 36.094L51.8246 32.453C51.7878 32.4876 51.7516 32.5228 51.7159 32.5585L55.2514 36.094ZM51.6514 39.694L55.1869 43.2295L55.1869 43.2295L51.6514 39.694ZM47.4574 39.694L51.0984 36.2672C51.0638 36.2304 51.0286 36.1942 50.9929 36.1585L47.4574 39.694ZM46.5574 38.794L50.0929 35.2585C48.6629 33.8285 46.5124 33.4007 44.644 34.1746C42.7756 34.9485 41.5574 36.7717 41.5574 38.794H46.5574ZM46.5574 35.806H41.5574C41.5574 38.5674 43.796 40.806 46.5574 40.806V35.806ZM49.6354 35.572L53.3094 38.9634L53.3094 38.9634L49.6354 35.572ZM49.6354 24.628L53.3094 21.2366L53.3094 21.2366L49.6354 24.628ZM46.7734 24.628L50.4474 28.0194L50.4474 28.0194L46.7734 24.628ZM41.3014 40.4C41.9221 40.4 43.306 40.5586 44.4994 41.752C45.6928 42.9454 45.8514 44.3293 45.8514 44.95H35.8514C35.8514 45.8707 36.085 47.4796 37.4284 48.823C38.7718 50.1664 40.3807 50.4 41.3014 50.4V40.4ZM45.8514 44.95V20.65H35.8514V44.95H45.8514ZM45.8514 20.65C45.8514 21.2707 45.6928 22.6546 44.4994 23.848C43.306 25.0414 41.9221 25.2 41.3014 25.2V15.2C40.3807 15.2 38.7718 15.4336 37.4284 16.777C36.085 18.1204 35.8514 19.7293 35.8514 20.65H45.8514ZM41.3014 25.2H45.0274V15.2H41.3014V25.2ZM45.0274 25.2C43.5193 25.2 42.5306 24.4503 42.1219 24.0415L49.1929 16.9705C48.3762 16.1537 46.9675 15.2 45.0274 15.2V25.2ZM42.1219 24.0415L43.0219 24.9415L50.0929 17.8705L49.1929 16.9705L42.1219 24.0415ZM50.0929 24.9415L50.9929 24.0415L43.9219 16.9705L43.0219 17.8705L50.0929 24.9415ZM51.0984 23.9328C50.7557 24.2969 50.3004 24.6388 49.7371 24.8782C49.1769 25.1162 48.635 25.2 48.1774 25.2V15.2C46.5545 15.2 44.9828 15.8399 43.8164 17.0792L51.0984 23.9328ZM48.1774 25.2H50.9314V15.2H48.1774V25.2ZM50.9314 25.2C50.4372 25.2 49.8969 25.1052 49.3627 24.8782C48.8329 24.653 48.419 24.3447 48.1159 24.0415L55.1869 16.9705C54.0926 15.8761 52.5989 15.2 50.9314 15.2V25.2ZM48.1159 24.0415L51.7159 27.6415L58.7869 20.5705L55.1869 16.9705L48.1159 24.0415ZM51.8246 27.747C51.4605 27.4043 51.1187 26.949 50.8793 26.3857C50.6412 25.8255 50.5574 25.2836 50.5574 24.826H60.5574C60.5574 23.203 59.9175 21.6314 58.6782 20.465L51.8246 27.747ZM50.5574 24.826V35.374H60.5574V24.826H50.5574ZM50.5574 35.374C50.5574 34.9164 50.6412 34.3745 50.8793 33.8143C51.1187 33.251 51.4605 32.7957 51.8246 32.453L58.6782 39.735C59.9175 38.5686 60.5574 36.997 60.5574 35.374H50.5574ZM51.7159 32.5585L48.1159 36.1585L55.1869 43.2295L58.7869 39.6295L51.7159 32.5585ZM48.1159 36.1585C48.419 35.8553 48.8329 35.547 49.3627 35.3218C49.8969 35.0948 50.4372 35 50.9314 35V45C52.5989 45 54.0926 44.3239 55.1869 43.2295L48.1159 36.1585ZM50.9314 35H48.1774V45H50.9314V35ZM48.1774 35C48.635 35 49.1769 35.0838 49.7371 35.3218C50.3004 35.5612 50.7557 35.9031 51.0984 36.2672L43.8164 43.1208C44.9828 44.3601 46.5545 45 48.1774 45V35ZM50.9929 36.1585L50.0929 35.2585L43.0219 42.3295L43.9219 43.2295L50.9929 36.1585ZM41.5574 38.794V44.95H51.5574V38.794H41.5574ZM41.5574 44.95C41.5574 44.3293 41.716 42.9454 42.9094 41.752C44.1028 40.5586 45.4867 40.4 46.1074 40.4V50.4C47.0281 50.4 48.637 50.1664 49.9804 48.823C51.3238 47.4796 51.5574 45.8707 51.5574 44.95H41.5574ZM46.1074 40.4H41.3014V50.4H46.1074V40.4ZM46.5574 40.806H48.8254V30.806H46.5574V40.806ZM48.8254 40.806C49.5195 40.806 51.6691 40.7404 53.3094 38.9634L45.9614 32.1806C46.678 31.4043 47.4718 31.0784 47.9372 30.9439C48.3955 30.8115 48.7294 30.806 48.8254 30.806V40.806ZM53.3094 38.9634C54.7896 37.3598 54.8514 35.4313 54.8514 34.744H44.8514C44.8514 34.6677 44.8553 34.3846 44.9593 33.9859C45.0624 33.5908 45.3181 32.8775 45.9614 32.1806L53.3094 38.9634ZM54.8514 34.744V25.456H44.8514V34.744H54.8514ZM54.8514 25.456C54.8514 24.7687 54.7896 22.8402 53.3094 21.2366L45.9614 28.0194C45.3181 27.3225 45.0624 26.6092 44.9593 26.2141C44.8553 25.8154 44.8514 25.5323 44.8514 25.456H54.8514ZM53.3094 21.2366C51.6691 19.4596 49.5195 19.394 48.8254 19.394V29.394C48.7294 29.394 48.3955 29.3885 47.9372 29.2561C47.4718 29.1216 46.678 28.7957 45.9614 28.0194L53.3094 21.2366ZM48.8254 19.394H47.5654V29.394H48.8254V19.394ZM47.5654 19.394C46.8267 19.394 44.7188 19.4822 43.0994 21.2366L50.4474 28.0194C49.7513 28.7736 48.9781 29.1052 48.4961 29.2476C48.0268 29.3862 47.6792 29.394 47.5654 29.394V19.394ZM43.0994 21.2366C41.6192 22.8402 41.5574 24.7687 41.5574 25.456H51.5574C51.5574 25.5323 51.5535 25.8154 51.4495 26.2141C51.3464 26.6092 51.0907 27.3225 50.4474 28.0194L43.0994 21.2366ZM41.5574 25.456V35.806H51.5574V25.456H41.5574ZM63.5455 39.694L67.081 36.1585L67.081 36.1585L63.5455 39.694ZM59.9455 36.094L63.481 32.5585C63.4453 32.5228 63.4091 32.4876 63.3723 32.453L59.9455 36.094ZM59.9455 24.106L63.3723 27.747C63.4091 27.7124 63.4453 27.6772 63.481 27.6415L59.9455 24.106ZM63.5455 20.506L60.0099 16.9705L60.0099 16.9705L63.5455 20.506ZM69.7915 39.91L66.5906 43.7511C66.6859 43.8306 66.7842 43.9065 66.8853 43.9787L69.7915 39.91ZM69.5395 39.694L66.0039 43.2295C66.0824 43.308 66.1634 43.3838 66.2469 43.4569L69.5395 39.694ZM68.6395 38.794L72.175 35.2585C70.2224 33.3058 67.0566 33.3058 65.1039 35.2585L68.6395 38.794ZM67.7395 39.694L64.2039 36.1585C64.1682 36.1942 64.1331 36.2304 64.0985 36.2672L67.7395 39.694ZM68.4235 35.572L64.7495 32.1806L64.7494 32.1806L68.4235 35.572ZM68.6395 24.394H73.6395C73.6395 21.6326 71.4009 19.394 68.6395 19.394V24.394ZM65.5615 24.628L69.2355 28.0194L69.2355 28.0194L65.5615 24.628ZM65.5615 35.572L69.2355 32.1806L69.2355 32.1806L65.5615 35.572ZM64.2655 35C64.7597 35 65.3 35.0948 65.8342 35.3218C66.364 35.547 66.7779 35.8553 67.081 36.1585L60.0099 43.2295C61.1043 44.3239 62.5979 45 64.2655 45V35ZM67.081 36.1585L63.481 32.5585L56.4099 39.6295L60.0099 43.2295L67.081 36.1585ZM63.3723 32.453C63.7364 32.7957 64.0782 33.251 64.3176 33.8143C64.5557 34.3745 64.6395 34.9164 64.6395 35.374H54.6395C54.6395 36.997 55.2793 38.5686 56.5186 39.735L63.3723 32.453ZM64.6395 35.374V24.826H54.6395V35.374H64.6395ZM64.6395 24.826C64.6395 25.2836 64.5557 25.8255 64.3176 26.3857C64.0782 26.949 63.7364 27.4043 63.3723 27.747L56.5186 20.465C55.2793 21.6314 54.6395 23.203 54.6395 24.826H64.6395ZM63.481 27.6415L67.081 24.0415L60.0099 16.9705L56.4099 20.5705L63.481 27.6415ZM67.081 24.0415C66.7779 24.3447 66.364 24.653 65.8342 24.8782C65.3 25.1052 64.7597 25.2 64.2655 25.2V15.2C62.5979 15.2 61.1043 15.8761 60.0099 16.9705L67.081 24.0415ZM64.2655 25.2H73.8955V15.2H64.2655V25.2ZM73.8955 25.2C73.2747 25.2 71.8908 25.0414 70.6974 23.848C69.504 22.6546 69.3455 21.2707 69.3455 20.65H79.3455C79.3455 19.7293 79.1119 18.1204 77.7685 16.777C76.4251 15.4336 74.8162 15.2 73.8955 15.2V25.2ZM69.3455 20.65V39.55H79.3455V20.65H69.3455ZM69.3455 39.55C69.3455 38.9293 69.504 37.5454 70.6974 36.352C71.8908 35.1586 73.2747 35 73.8955 35V45C74.8162 45 76.4251 44.7664 77.7685 43.423C79.1119 42.0796 79.3455 40.4707 79.3455 39.55H69.3455ZM73.8955 35H70.1515V45H73.8955V35ZM70.1515 35C70.5355 35 71.6005 35.0577 72.6977 35.8413L66.8853 43.9787C68.1504 44.8823 69.4554 45 70.1515 45V35ZM72.9924 36.0689C72.9599 36.0419 72.9077 35.9974 72.832 35.9311L66.2469 43.4569C66.3632 43.5586 66.479 43.6581 66.5906 43.7511L72.9924 36.0689ZM73.075 36.1585L72.175 35.2585L65.1039 42.3295L66.0039 43.2295L73.075 36.1585ZM65.1039 35.2585L64.2039 36.1585L71.275 43.2295L72.175 42.3295L65.1039 35.2585ZM64.0985 36.2672C64.4411 35.9031 64.8965 35.5612 65.4598 35.3218C66.02 35.0838 66.5619 35 67.0195 35V45C68.6424 45 70.2141 44.3601 71.3805 43.1208L64.0985 36.2672ZM67.0195 35H64.2655V45H67.0195V35ZM66.3715 40.806H67.6315V30.806H66.3715V40.806ZM67.6315 40.806C68.3701 40.806 70.4781 40.7178 72.0975 38.9634L64.7494 32.1806C65.4456 31.4264 66.2187 31.0948 66.7007 30.9524C67.17 30.8138 67.5177 30.806 67.6315 30.806V40.806ZM72.0975 38.9634C73.5777 37.3598 73.6395 35.4313 73.6395 34.744H63.6395C63.6395 34.6677 63.6434 34.3846 63.7474 33.9859C63.8504 33.5908 64.1062 32.8775 64.7495 32.1806L72.0975 38.9634ZM73.6395 34.744V24.394H63.6395V34.744H73.6395ZM68.6395 19.394H66.3715V29.394H68.6395V19.394ZM66.3715 19.394C65.6773 19.394 63.5277 19.4596 61.8874 21.2366L69.2355 28.0194C68.5189 28.7957 67.7251 29.1216 67.2597 29.2561C66.8014 29.3885 66.4674 29.394 66.3715 29.394V19.394ZM61.8875 21.2366C60.4072 22.8402 60.3455 24.7687 60.3455 25.456H70.3455C70.3455 25.5323 70.3416 25.8154 70.2376 26.2141C70.1345 26.6092 69.8788 27.3225 69.2355 28.0194L61.8875 21.2366ZM60.3455 25.456V34.744H70.3455V25.456H60.3455ZM60.3455 34.744C60.3455 35.4313 60.4072 37.3598 61.8875 38.9634L69.2355 32.1806C69.8788 32.8775 70.1345 33.5908 70.2376 33.9859C70.3416 34.3846 70.3455 34.6677 70.3455 34.744H60.3455ZM61.8875 38.9634C63.5277 40.7404 65.6773 40.806 66.3715 40.806V30.806C66.4674 30.806 66.8014 30.8115 67.2597 30.9439C67.7251 31.0784 68.5189 31.4043 69.2355 32.1806L61.8875 38.9634ZM89.3389 20.506L92.8744 16.9705L92.8744 16.9705L89.3389 20.506ZM92.9389 24.106L89.4034 27.6415C89.4391 27.6772 89.4753 27.7124 89.5121 27.747L92.9389 24.106ZM84.2449 24.7V19.7C81.4835 19.7 79.2449 21.9386 79.2449 24.7H84.2449ZM78.9889 35C79.6096 35 80.9935 35.1586 82.1869 36.352C83.3803 37.5454 83.5389 38.9293 83.5389 39.55H73.5389C73.5389 40.4707 73.7725 42.0796 75.1159 43.423C76.4593 44.7664 78.0682 45 78.9889 45V35ZM83.5389 39.55V20.65H73.5389V39.55H83.5389ZM83.5389 20.65C83.5389 21.2707 83.3803 22.6546 82.1869 23.848C80.9935 25.0414 79.6096 25.2 78.9889 25.2V15.2C78.0682 15.2 76.4593 15.4336 75.1159 16.777C73.7725 18.1204 73.5389 19.7293 73.5389 20.65H83.5389ZM78.9889 25.2H88.6189V15.2H78.9889V25.2ZM88.6189 25.2C88.1247 25.2 87.5844 25.1052 87.0502 24.8782C86.5204 24.653 86.1065 24.3447 85.8034 24.0415L92.8744 16.9705C91.7801 15.8761 90.2864 15.2 88.6189 15.2V25.2ZM85.8034 24.0415L89.4034 27.6415L96.4744 20.5705L92.8744 16.9705L85.8034 24.0415ZM89.5121 27.747C89.148 27.4043 88.8062 26.949 88.5668 26.3857C88.3287 25.8255 88.2449 25.2836 88.2449 24.826H98.2449C98.2449 23.203 97.605 21.6314 96.3657 20.465L89.5121 27.747ZM88.2449 24.826V39.55H98.2449V24.826H88.2449ZM88.2449 39.55C88.2449 38.9293 88.4035 37.5454 89.5969 36.352C90.7903 35.1586 92.1742 35 92.7949 35V45C93.7156 45 95.3245 44.7664 96.6679 43.423C98.0113 42.0796 98.2449 40.4707 98.2449 39.55H88.2449ZM92.7949 35H87.9889V45H92.7949V35ZM87.9889 35C88.6096 35 89.9935 35.1586 91.1869 36.352C92.3803 37.5454 92.5389 38.9293 92.5389 39.55H82.5389C82.5389 40.4707 82.7725 42.0796 84.1159 43.423C85.4593 44.7664 87.0682 45 87.9889 45V35ZM92.5389 39.55V25.546H82.5389V39.55H92.5389ZM92.5389 25.546C92.5389 24.4933 92.2723 22.7854 90.8629 21.376C89.4535 19.9666 87.7456 19.7 86.6929 19.7V29.7C86.2042 29.7 84.9193 29.5744 83.7919 28.447C82.6645 27.3196 82.5389 26.0347 82.5389 25.546H92.5389ZM86.6929 19.7H84.2449V29.7H86.6929V19.7ZM79.2449 24.7V39.55H89.2449V24.7H79.2449ZM79.2449 39.55C79.2449 38.9293 79.4035 37.5454 80.5969 36.352C81.7903 35.1586 83.1742 35 83.7949 35V45C84.7156 45 86.3245 44.7664 87.6679 43.423C89.0113 42.0796 89.2449 40.4707 89.2449 39.55H79.2449ZM83.7949 35H78.9889V45H83.7949V35ZM105.121 39.946L103.805 44.7698C103.84 44.7791 103.874 44.7881 103.908 44.7967L105.121 39.946ZM104.743 39.856L103.543 44.7099C103.616 44.7279 103.689 44.7442 103.762 44.7589L104.743 39.856ZM101.539 39.064L99.9578 43.8074C100.083 43.8493 100.211 43.8861 100.339 43.9179L101.539 39.064ZM97.867 37.84L96.2858 42.5834L96.2858 42.5834L97.867 37.84ZM97.633 24.106L101.06 27.747C101.097 27.7124 101.133 27.6772 101.169 27.6415L97.633 24.106ZM101.233 20.506L97.6974 16.9705L97.6974 16.9705L101.233 20.506ZM112.033 24.106L108.497 27.6415C108.533 27.6772 108.569 27.7124 108.606 27.747L112.033 24.106ZM112.339 32.206V37.206C115.1 37.206 117.339 34.9674 117.339 32.206H112.339ZM102.673 32.206V27.206C100.014 27.206 97.8196 29.2876 97.6799 31.9432L102.673 32.206ZM102.547 34.6L97.5539 34.3372C97.4355 36.5874 98.8367 38.6387 100.976 39.3467L102.547 34.6ZM105.103 35.446L103.532 40.1927C103.927 40.3234 104.336 40.4043 104.751 40.4336L105.103 35.446ZM109.693 35.77L110.562 30.8461C110.391 30.8159 110.218 30.7946 110.045 30.7824L109.693 35.77ZM106.543 28.714L102.659 25.565C102.642 25.5864 102.625 25.6079 102.608 25.6296L106.543 28.714ZM106.543 24.772L102.608 27.8564C102.625 27.8781 102.642 27.8996 102.659 27.921L106.543 24.772ZM103.393 24.772L99.4577 21.6876C99.4402 21.7098 99.423 21.7322 99.4059 21.7548L103.393 24.772ZM103.393 28.714L99.4059 31.7312C99.423 31.7538 99.4402 31.7762 99.4577 31.7984L103.393 28.714ZM105.517 35C105.889 35 106.171 35.0545 106.334 35.0953L103.908 44.7967C104.359 44.9095 104.905 45 105.517 45V35ZM106.437 35.1222C106.207 35.0594 105.968 35.002 105.724 34.9531L103.762 44.7589C103.758 44.758 103.771 44.7606 103.805 44.7698L106.437 35.1222ZM105.943 35.0021L102.739 34.2101L100.339 43.9179L103.543 44.7099L105.943 35.0021ZM103.12 34.3206L99.4481 33.0966L96.2858 42.5834L99.9578 43.8074L103.12 34.3206ZM99.4481 33.0966C100.548 33.4631 101.416 34.2509 101.903 35.1919C102.312 35.983 102.327 36.6322 102.327 36.796H92.327C92.327 37.5358 92.4317 38.647 93.0209 39.7861C93.6876 41.0751 94.8263 42.0969 96.2858 42.5834L99.4481 33.0966ZM102.327 36.796V24.826H92.327V36.796H102.327ZM102.327 24.826C102.327 25.2836 102.243 25.8255 102.005 26.3857C101.766 26.949 101.424 27.4043 101.06 27.747L94.2061 20.465C92.9668 21.6314 92.327 23.203 92.327 24.826H102.327ZM101.169 27.6415L104.769 24.0415L97.6974 16.9705L94.0974 20.5705L101.169 27.6415ZM104.768 24.0415C104.465 24.3447 104.051 24.653 103.522 24.8782C102.988 25.1052 102.447 25.2 101.953 25.2V15.2C100.285 15.2 98.7918 15.8761 97.6974 16.9705L104.768 24.0415ZM101.953 25.2H107.713V15.2H101.953V25.2ZM107.713 25.2C107.219 25.2 106.678 25.1052 106.144 24.8782C105.614 24.653 105.201 24.3447 104.897 24.0415L111.969 16.9705C110.874 15.8761 109.38 15.2 107.713 15.2V25.2ZM104.897 24.0415L108.497 27.6415L115.569 20.5705L111.969 16.9705L104.897 24.0415ZM108.606 27.747C108.242 27.4043 107.9 26.949 107.661 26.3857C107.423 25.8255 107.339 25.2836 107.339 24.826H117.339C117.339 23.203 116.699 21.6314 115.46 20.465L108.606 27.747ZM107.339 24.826V32.206H117.339V24.826H107.339ZM112.339 27.206H102.673V37.206H112.339V27.206ZM97.6799 31.9432L97.5539 34.3372L107.54 34.8628L107.666 32.4688L97.6799 31.9432ZM100.976 39.3467L103.532 40.1927L106.674 30.6993L104.118 29.8533L100.976 39.3467ZM104.751 40.4336L109.341 40.7576L110.045 30.7824L105.455 30.4584L104.751 40.4336ZM108.824 40.6939C107.941 40.5381 106.765 40.04 105.902 38.8725C105.108 37.7981 104.999 36.7184 104.999 36.184H114.999C114.999 35.4096 114.839 34.1409 113.943 32.9285C112.978 31.623 111.649 31.0379 110.562 30.8461L108.824 40.6939ZM104.999 36.184V39.55H114.999V36.184H104.999ZM104.999 39.55C104.999 38.9293 105.158 37.5454 106.351 36.352C107.544 35.1586 108.928 35 109.549 35V45C110.47 45 112.079 44.7664 113.422 43.423C114.765 42.0796 114.999 40.4707 114.999 39.55H104.999ZM109.549 35H105.517V45H109.549V35ZM104.797 34.38H105.139V24.38H104.797V34.38ZM105.139 34.38C107.188 34.38 109.137 33.5099 110.478 31.7984L102.608 25.6296C102.869 25.2967 103.261 24.9462 103.788 24.696C104.309 24.4489 104.792 24.38 105.139 24.38V34.38ZM110.427 31.863C111.713 30.277 112.083 28.4447 112.083 26.914H102.083C102.083 26.8953 102.093 26.263 102.659 25.565L110.427 31.863ZM112.083 26.914V26.554H102.083V26.914H112.083ZM112.083 26.554C112.083 25.0131 111.702 23.1958 110.427 21.623L102.659 27.921C102.104 27.2362 102.083 26.6069 102.083 26.554H112.083ZM110.478 21.6876C109.137 19.9761 107.188 19.106 105.139 19.106V29.106C104.792 29.106 104.309 29.0371 103.788 28.79C103.261 28.5398 102.869 28.1893 102.608 27.8564L110.478 21.6876ZM105.139 19.106H104.779V29.106H105.139V19.106ZM104.779 19.106C102.704 19.106 100.777 20.0049 99.4577 21.6876L107.328 27.8564C107.077 28.1764 106.693 28.5258 106.166 28.7792C105.642 29.0311 105.147 29.106 104.779 29.106V19.106ZM99.4059 21.7548C98.2226 23.3185 97.889 25.0845 97.889 26.554H107.889C107.889 26.5552 107.889 26.5878 107.882 26.647C107.874 26.7066 107.859 26.797 107.826 26.9113C107.759 27.1479 107.626 27.464 107.38 27.7892L99.4059 21.7548ZM97.889 26.554V26.914H107.889V26.554H97.889ZM97.889 26.914C97.889 28.3743 98.2131 30.155 99.4059 31.7312L107.38 25.6968C107.901 26.385 107.889 26.9657 107.889 26.914H97.889ZM99.4577 31.7984C100.799 33.5099 102.748 34.38 104.797 34.38V24.38C105.144 24.38 105.627 24.4489 106.148 24.696C106.675 24.9462 107.067 25.2967 107.328 25.6296L99.4577 31.7984ZM115.798 36.094L117.912 40.6249C118.061 40.5553 118.207 40.4784 118.349 40.3944L115.798 36.094ZM119.47 33.916L122.021 38.2164C123.539 37.3158 124.47 35.6813 124.47 33.916H119.47ZM119.47 32.044H124.47C124.47 30.2056 123.461 28.5155 121.843 27.643L119.47 32.044ZM115.798 30.064L113.225 34.3515C113.291 34.3908 113.357 34.4287 113.425 34.465L115.798 30.064ZM115.582 23.44L111.241 20.9593C111.146 21.1247 111.061 21.2953 110.986 21.4704L115.582 23.44ZM115.78 23.224L118.686 27.2927C118.702 27.2812 118.718 27.2695 118.734 27.2578L115.78 23.224ZM119.614 20.416L116.673 16.3723C116.668 16.3756 116.664 16.3789 116.659 16.3822L119.614 20.416ZM124.96 23.89L120.488 21.6539C120.382 21.8655 120.291 22.0844 120.216 22.3088L124.96 23.89ZM124.78 24.07L122.544 19.5979C122.497 19.6212 122.451 19.6452 122.405 19.6699L124.78 24.07ZM121.378 25.906L119.003 21.5059C117.386 22.3787 116.378 24.0683 116.378 25.906H121.378ZM121.378 27.994H116.378C116.378 29.895 117.456 31.6316 119.159 32.475L121.378 27.994ZM125.014 29.794L122.795 34.275C122.899 34.3261 123.004 34.3736 123.11 34.4174L125.014 29.794ZM125.014 36.58L128.209 40.4255C128.247 40.394 128.285 40.3619 128.322 40.3292L125.014 36.58ZM121.18 39.766L124.333 43.6466C124.347 43.635 124.361 43.6233 124.375 43.6115L121.18 39.766ZM115.978 35C116.599 35 117.982 35.1586 119.176 36.352C120.369 37.5454 120.528 38.9293 120.528 39.55H110.528C110.528 40.4707 110.761 42.0796 112.105 43.423C113.448 44.7664 115.057 45 115.978 45V35ZM120.528 39.55V36.634H110.528V39.55H120.528ZM120.528 36.634C120.528 36.9993 120.474 37.7151 120.067 38.5281C119.615 39.4327 118.859 40.1831 117.912 40.6249L113.683 31.5631C111.064 32.7857 110.528 35.2978 110.528 36.634H120.528ZM118.349 40.3944L122.021 38.2164L116.919 29.6156L113.247 31.7936L118.349 40.3944ZM124.47 33.916V32.044H114.47V33.916H124.47ZM121.843 27.643L118.171 25.663L113.425 34.465L117.097 36.445L121.843 27.643ZM118.37 25.7765C119.101 26.2147 119.71 26.8682 120.096 27.6657C120.458 28.4132 120.528 29.0864 120.528 29.506H110.528C110.528 31.0042 111.14 33.1002 113.225 34.3515L118.37 25.7765ZM120.528 29.506V23.764H110.528V29.506H120.528ZM120.528 23.764C120.528 24.0323 120.499 24.6592 120.178 25.4096L110.986 21.4704C110.592 22.3888 110.528 23.2317 110.528 23.764H120.528ZM119.923 25.9207C119.589 26.5048 119.149 26.9618 118.686 27.2927L112.874 19.1553C112.242 19.6062 111.67 20.2072 111.241 20.9593L119.923 25.9207ZM118.734 27.2578L122.568 24.4498L116.659 16.3822L112.825 19.1902L118.734 27.2578ZM122.555 24.4597C122.505 24.4956 122.391 24.5758 122.222 24.6698C122.068 24.7554 121.753 24.9175 121.311 25.0436L118.564 15.4284C117.621 15.6978 116.941 16.1772 116.673 16.3723L122.555 24.4597ZM121.311 25.0436C120.967 25.1421 120.589 25.2 120.19 25.2V15.2C119.623 15.2 119.077 15.2819 118.564 15.4284L121.311 25.0436ZM120.19 25.2H124.564V15.2H120.19V25.2ZM124.564 25.2C123.943 25.2 122.559 25.0414 121.366 23.848C120.172 22.6546 120.014 21.2707 120.014 20.65H130.014C130.014 19.7293 129.78 18.1204 128.437 16.777C127.093 15.4336 125.485 15.2 124.564 15.2V25.2ZM120.014 20.65V23.476H130.014V20.65H120.014ZM120.014 23.476C120.014 23.4515 120.014 23.3048 120.042 23.0858C120.057 22.972 120.085 22.7951 120.141 22.5784C120.194 22.3718 120.295 22.0395 120.488 21.6539L129.432 26.1261C129.817 25.3555 129.922 24.6597 129.958 24.3792C130.005 24.0222 130.014 23.7045 130.014 23.476H120.014ZM120.216 22.3088C120.76 20.6791 121.95 19.8945 122.544 19.5979L127.016 28.5421C127.801 28.1494 129.112 27.2449 129.703 25.4712L120.216 22.3088ZM122.405 19.6699L119.003 21.5059L123.752 30.3061L127.154 28.4701L122.405 19.6699ZM116.378 25.906V27.994H126.378V25.906H116.378ZM119.159 32.475L122.795 34.275L127.232 25.313L123.596 23.513L119.159 32.475ZM123.11 34.4174C122.252 34.0639 121.431 33.4067 120.893 32.4571C120.399 31.5853 120.32 30.7815 120.32 30.334H130.32C130.32 29.6105 130.189 28.5787 129.593 27.5269C128.953 26.3973 127.98 25.6081 126.918 25.1706L123.11 34.4174ZM120.32 30.334V35.86H130.32V30.334H120.32ZM120.32 35.86C120.32 35.4383 120.393 34.8939 120.642 34.3093C120.895 33.7125 121.273 33.2127 121.706 32.8308L128.322 40.3292C129.719 39.096 130.32 37.4295 130.32 35.86H120.32ZM121.818 32.7345L117.984 35.9205L124.375 43.6115L128.209 40.4255L121.818 32.7345ZM118.027 35.8854C118.868 35.2017 119.797 35 120.46 35V45C121.698 45 123.107 44.6423 124.333 43.6466L118.027 35.8854ZM120.46 35H115.978V45H120.46V35ZM136.762 39.946L135.446 44.7698C135.48 44.7791 135.515 44.7881 135.549 44.7967L136.762 39.946ZM136.384 39.856L135.184 44.7099C135.256 44.7279 135.33 44.7442 135.403 44.7589L136.384 39.856ZM133.18 39.064L131.598 43.8074C131.724 43.8493 131.851 43.8861 131.98 43.9179L133.18 39.064ZM129.508 37.84L127.926 42.5834L127.926 42.5834L129.508 37.84ZM129.274 24.106L132.7 27.747C132.737 27.7124 132.773 27.6772 132.809 27.6415L129.274 24.106ZM132.874 20.506L129.338 16.9705L129.338 16.9705L132.874 20.506ZM143.674 24.106L140.138 27.6415C140.174 27.6772 140.21 27.7124 140.247 27.747L143.674 24.106ZM143.98 32.206V37.206C146.741 37.206 148.98 34.9674 148.98 32.206H143.98ZM134.314 32.206V27.206C131.654 27.206 129.46 29.2876 129.321 31.9432L134.314 32.206ZM134.188 34.6L129.195 34.3372C129.076 36.5874 130.477 38.6387 132.616 39.3467L134.188 34.6ZM136.744 35.446L135.172 40.1927C135.567 40.3234 135.977 40.4043 136.392 40.4336L136.744 35.446ZM141.334 35.77L142.203 30.8461C142.031 30.8159 141.859 30.7946 141.686 30.7824L141.334 35.77ZM138.184 28.714L134.3 25.565C134.282 25.5864 134.265 25.6079 134.248 25.6296L138.184 28.714ZM138.184 24.772L134.248 27.8564C134.265 27.8781 134.282 27.8996 134.3 27.921L138.184 24.772ZM135.034 24.772L131.098 21.6876C131.081 21.7098 131.064 21.7322 131.047 21.7548L135.034 24.772ZM135.034 28.714L131.047 31.7312C131.064 31.7538 131.081 31.7762 131.098 31.7984L135.034 28.714ZM137.158 35C137.529 35 137.811 35.0545 137.974 35.0953L135.549 44.7967C136 44.9095 136.546 45 137.158 45V35ZM138.077 35.1222C137.847 35.0594 137.609 35.002 137.364 34.9531L135.403 44.7589C135.398 44.758 135.412 44.7606 135.446 44.7698L138.077 35.1222ZM137.583 35.0021L134.379 34.2101L131.98 43.9179L135.184 44.7099L137.583 35.0021ZM134.761 34.3206L131.089 33.0966L127.926 42.5834L131.598 43.8074L134.761 34.3206ZM131.089 33.0966C132.188 33.4631 133.057 34.2509 133.544 35.1919C133.953 35.983 133.968 36.6322 133.968 36.796H123.968C123.968 37.5358 124.072 38.647 124.662 39.7861C125.328 41.0751 126.467 42.0969 127.926 42.5834L131.089 33.0966ZM133.968 36.796V24.826H123.968V36.796H133.968ZM133.968 24.826C133.968 25.2836 133.884 25.8255 133.646 26.3857C133.406 26.949 133.065 27.4043 132.7 27.747L125.847 20.465C124.607 21.6314 123.968 23.203 123.968 24.826H133.968ZM132.809 27.6415L136.409 24.0415L129.338 16.9705L125.738 20.5705L132.809 27.6415ZM136.409 24.0415C136.106 24.3447 135.692 24.653 135.162 24.8782C134.628 25.1052 134.088 25.2 133.594 25.2V15.2C131.926 15.2 130.432 15.8761 129.338 16.9705L136.409 24.0415ZM133.594 25.2H139.354V15.2H133.594V25.2ZM139.354 25.2C138.859 25.2 138.319 25.1052 137.785 24.8782C137.255 24.653 136.841 24.3447 136.538 24.0415L143.609 16.9705C142.515 15.8761 141.021 15.2 139.354 15.2V25.2ZM136.538 24.0415L140.138 27.6415L147.209 20.5705L143.609 16.9705L136.538 24.0415ZM140.247 27.747C139.883 27.4043 139.541 26.949 139.301 26.3857C139.063 25.8255 138.98 25.2836 138.98 24.826H148.98C148.98 23.203 148.34 21.6314 147.1 20.465L140.247 27.747ZM138.98 24.826V32.206H148.98V24.826H138.98ZM143.98 27.206H134.314V37.206H143.98V27.206ZM129.321 31.9432L129.195 34.3372L139.181 34.8628L139.307 32.4688L129.321 31.9432ZM132.616 39.3467L135.172 40.1927L138.315 30.6993L135.759 29.8533L132.616 39.3467ZM136.392 40.4336L140.982 40.7576L141.686 30.7824L137.096 30.4584L136.392 40.4336ZM140.465 40.6939C139.582 40.5381 138.405 40.04 137.542 38.8725C136.748 37.7981 136.64 36.7184 136.64 36.184H146.64C146.64 35.4096 146.48 34.1409 145.584 32.9285C144.619 31.623 143.289 31.0379 142.203 30.8461L140.465 40.6939ZM136.64 36.184V39.55H146.64V36.184H136.64ZM136.64 39.55C136.64 38.9293 136.798 37.5454 137.992 36.352C139.185 35.1586 140.569 35 141.19 35V45C142.11 45 143.719 44.7664 145.063 43.423C146.406 42.0796 146.64 40.4707 146.64 39.55H136.64ZM141.19 35H137.158V45H141.19V35ZM136.438 34.38H136.78V24.38H136.438V34.38ZM136.78 34.38C138.828 34.38 140.777 33.5099 142.119 31.7984L134.248 25.6296C134.509 25.2967 134.901 24.9462 135.429 24.696C135.95 24.4489 136.433 24.38 136.78 24.38V34.38ZM142.067 31.863C143.353 30.277 143.724 28.4447 143.724 26.914H133.724C133.724 26.8953 133.734 26.263 134.3 25.565L142.067 31.863ZM143.724 26.914V26.554H133.724V26.914H143.724ZM143.724 26.554C143.724 25.0131 143.343 23.1958 142.067 21.623L134.3 27.921C133.745 27.2362 133.724 26.6069 133.724 26.554H143.724ZM142.119 21.6876C140.777 19.9761 138.828 19.106 136.78 19.106V29.106C136.433 29.106 135.95 29.0371 135.429 28.79C134.901 28.5398 134.509 28.1893 134.248 27.8564L142.119 21.6876ZM136.78 19.106H136.42V29.106H136.78V19.106ZM136.42 19.106C134.345 19.106 132.417 20.0049 131.098 21.6876L138.969 27.8564C138.718 28.1764 138.334 28.5258 137.807 28.7792C137.283 29.0311 136.788 29.106 136.42 29.106V19.106ZM131.047 21.7548C129.863 23.3185 129.53 25.0845 129.53 26.554H139.53C139.53 26.5552 139.53 26.5878 139.522 26.647C139.515 26.7066 139.499 26.797 139.467 26.9113C139.4 27.1479 139.267 27.464 139.021 27.7892L131.047 21.7548ZM129.53 26.554V26.914H139.53V26.554H129.53ZM129.53 26.914C129.53 28.3743 129.854 30.155 131.047 31.7312L139.021 25.6968C139.541 26.385 139.53 26.9657 139.53 26.914H129.53ZM131.098 31.7984C132.44 33.5099 134.389 34.38 136.438 34.38V24.38C136.784 24.38 137.268 24.4489 137.789 24.696C138.316 24.9462 138.708 25.2967 138.969 25.6296L131.098 31.7984ZM153.763 19.3L157.298 22.8355C157.302 22.832 157.305 22.8284 157.309 22.8249L153.763 19.3ZM156.751 16.294L153.324 12.653C153.284 12.691 153.244 12.7297 153.205 12.7691L156.751 16.294ZM162.313 16.294L165.859 12.769C165.82 12.7297 165.78 12.691 165.74 12.653L162.313 16.294ZM165.337 19.336L161.791 22.861C162.729 23.8051 164.006 24.336 165.337 24.336V19.336ZM166.183 19.336V24.336C167.514 24.336 168.79 23.8051 169.729 22.861L166.183 19.336ZM169.207 16.294L165.78 12.653C165.74 12.691 165.7 12.7297 165.661 12.769L169.207 16.294ZM172.051 20.794H177.051C177.051 18.0326 174.812 15.794 172.051 15.794V20.794ZM168.757 20.794V15.794C165.995 15.794 163.757 18.0326 163.757 20.794H168.757ZM162.763 20.794H167.763C167.763 18.0326 165.524 15.794 162.763 15.794V20.794ZM159.451 20.794V15.794C156.689 15.794 154.451 18.0326 154.451 20.794H159.451ZM153.907 35C154.528 35 155.912 35.1586 157.105 36.352C158.298 37.5454 158.457 38.9293 158.457 39.55H148.457C148.457 40.4707 148.69 42.0796 150.034 43.423C151.377 44.7664 152.986 45 153.907 45V35ZM158.457 39.55V20.02H148.457V39.55H158.457ZM158.457 20.02C158.457 20.5142 158.362 21.0545 158.135 21.5887C157.91 22.1185 157.602 22.5324 157.298 22.8355L150.227 15.7645C149.133 16.8588 148.457 18.3525 148.457 20.02H158.457ZM157.309 22.8249L160.297 19.8189L153.205 12.7691L150.217 15.7751L157.309 22.8249ZM160.178 19.935C159.862 20.232 159.449 20.517 158.941 20.7204C158.431 20.9243 157.925 21.006 157.471 21.006V11.006C155.9 11.006 154.44 11.6026 153.324 12.653L160.178 19.935ZM157.471 21.006H161.593V11.006H157.471V21.006ZM161.593 21.006C161.138 21.006 160.633 20.9243 160.123 20.7204C159.615 20.517 159.202 20.232 158.886 19.935L165.74 12.653C164.624 11.6026 163.164 11.006 161.593 11.006V21.006ZM158.767 19.819L161.791 22.861L168.883 15.811L165.859 12.769L158.767 19.819ZM165.337 24.336H166.183V14.336H165.337V24.336ZM169.729 22.861L172.753 19.819L165.661 12.769L162.637 15.811L169.729 22.861ZM172.634 19.935C172.318 20.232 171.905 20.517 171.397 20.7204C170.887 20.9243 170.381 21.006 169.927 21.006V11.006C168.356 11.006 166.896 11.6026 165.78 12.653L172.634 19.935ZM169.927 21.006H174.031V11.006H169.927V21.006ZM174.031 21.006C173.611 21.006 173.104 20.9341 172.57 20.7204C172.03 20.5043 171.574 20.1877 171.215 19.8295L178.286 12.7585C177.095 11.5675 175.556 11.006 174.031 11.006V21.006ZM171.215 19.8295L174.221 22.8355L181.292 15.7645L178.286 12.7585L171.215 19.8295ZM174.221 22.8355C173.918 22.5324 173.61 22.1185 173.385 21.5887C173.158 21.0545 173.063 20.5142 173.063 20.02H183.063C183.063 18.3525 182.387 16.8588 181.292 15.7645L174.221 22.8355ZM173.063 20.02V39.55H183.063V20.02H173.063ZM173.063 39.55C173.063 38.9293 173.221 37.5454 174.415 36.352C175.608 35.1586 176.992 35 177.613 35V45C178.534 45 180.143 44.7664 181.486 43.423C182.829 42.0796 183.063 40.4707 183.063 39.55H173.063ZM177.613 35H172.501V45H177.613V35ZM172.501 35C173.122 35 174.506 35.1586 175.699 36.352C176.892 37.5454 177.051 38.9293 177.051 39.55H167.051C167.051 40.4707 167.284 42.0796 168.628 43.423C169.971 44.7664 171.58 45 172.501 45V35ZM177.051 39.55V20.794H167.051V39.55H177.051ZM172.051 15.794H168.757V25.794H172.051V15.794ZM163.757 20.794V39.55H173.757V20.794H163.757ZM163.757 39.55C163.757 38.9293 163.915 37.5454 165.109 36.352C166.302 35.1586 167.686 35 168.307 35V45C169.228 45 170.837 44.7664 172.18 43.423C173.523 42.0796 173.757 40.4707 173.757 39.55H163.757ZM168.307 35H163.213V45H168.307V35ZM163.213 35C163.834 35 165.218 35.1586 166.411 36.352C167.604 37.5454 167.763 38.9293 167.763 39.55H157.763C157.763 40.4707 157.996 42.0796 159.34 43.423C160.683 44.7664 162.292 45 163.213 45V35ZM167.763 39.55V20.794H157.763V39.55H167.763ZM162.763 15.794H159.451V25.794H162.763V15.794ZM154.451 20.794V39.55H164.451V20.794H154.451ZM154.451 39.55C154.451 38.9293 154.609 37.5454 155.803 36.352C156.996 35.1586 158.38 35 159.001 35V45C159.922 45 161.531 44.7664 162.874 43.423C164.217 42.0796 164.451 40.4707 164.451 39.55H154.451ZM159.001 35H153.907V45H159.001V35ZM182.84 35C183.461 35 184.845 35.1586 186.039 36.352C187.232 37.5454 187.39 38.9293 187.39 39.55H177.39C177.39 40.4707 177.624 42.0796 178.967 43.423C180.311 44.7664 181.92 45 182.84 45V35ZM187.39 39.55V20.65H177.39V39.55H187.39ZM187.39 20.65C187.39 21.2707 187.232 22.6546 186.039 23.848C184.845 25.0414 183.461 25.2 182.84 25.2V15.2C181.92 15.2 180.311 15.4336 178.967 16.777C177.624 18.1204 177.39 19.7293 177.39 20.65H187.39ZM182.84 25.2H187.628V15.2H182.84V25.2ZM187.628 25.2C187.008 25.2 185.624 25.0414 184.43 23.848C183.237 22.6546 183.078 21.2707 183.078 20.65H193.078C193.078 19.7293 192.845 18.1204 191.502 16.777C190.158 15.4336 188.549 15.2 187.628 15.2V25.2ZM183.078 20.65V39.55H193.078V20.65H183.078ZM183.078 39.55C183.078 38.9293 183.237 37.5454 184.43 36.352C185.624 35.1586 187.008 35 187.628 35V45C188.549 45 190.158 44.7664 191.502 43.423C192.845 42.0796 193.078 40.4707 193.078 39.55H183.078ZM187.628 35H182.84V45H187.628V35ZM182.75 13.706C183.401 13.706 184.808 13.8721 186.016 15.0805C187.224 16.2889 187.39 17.6953 187.39 18.346H177.39C177.39 19.2367 177.617 20.8231 178.945 22.1515C180.273 23.4799 181.86 23.706 182.75 23.706V13.706ZM187.39 18.346V16.06H177.39V18.346H187.39ZM187.39 16.06C187.39 16.7107 187.224 18.1171 186.016 19.3255C184.808 20.5339 183.401 20.7 182.75 20.7V10.7C181.86 10.7 180.273 10.9261 178.945 12.2545C177.617 13.5829 177.39 15.1693 177.39 16.06H187.39ZM182.75 20.7H187.754V10.7H182.75V20.7ZM187.754 20.7C186.948 20.7 185.466 20.4517 184.281 19.1348C183.186 17.9181 183.078 16.5883 183.078 16.06H193.078C193.078 15.2917 192.917 13.7819 191.714 12.4452C190.421 11.0083 188.777 10.7 187.754 10.7V20.7ZM183.078 16.06V18.346H193.078V16.06H183.078ZM183.078 18.346C183.078 17.8177 183.186 16.4879 184.281 15.2712C185.466 13.9543 186.948 13.706 187.754 13.706V23.706C188.777 23.706 190.421 23.3977 191.714 21.9608C192.917 20.6241 193.078 19.1143 193.078 18.346H183.078ZM187.754 13.706H182.75V23.706H187.754V13.706ZM201.881 39.928L199.401 44.2692C199.481 44.3151 199.563 44.3588 199.645 44.4001L201.881 39.928ZM201.719 39.73L196.873 40.9603C196.885 41.0082 196.898 41.056 196.912 41.1036L201.719 39.73ZM199.649 31.576L204.496 30.3457C203.933 28.1285 201.937 26.576 199.649 26.576V31.576ZM197.975 31.576H192.975C192.975 34.3374 195.214 36.576 197.975 36.576V31.576ZM197.975 27.256V22.256C195.214 22.256 192.975 24.4946 192.975 27.256H197.975ZM199.649 27.256V32.256C201.846 32.256 203.786 30.8222 204.43 28.7219L199.649 27.256ZM201.719 20.506L206.5 21.9719C206.525 21.8882 206.549 21.8037 206.57 21.7187L201.719 20.506ZM201.881 20.308L203.851 24.9037C203.941 24.8651 204.03 24.8239 204.117 24.7801L201.881 20.308ZM207.227 22.99L202.377 21.7773L202.377 21.7773L207.227 22.99ZM207.119 23.296L202.55 21.2653C202.544 21.2786 202.539 21.292 202.533 21.3053L207.119 23.296ZM204.455 29.434L199.869 27.4433C199.596 28.0716 199.455 28.7491 199.455 29.434H204.455ZM204.455 30.046H199.455C199.455 30.6927 199.581 31.3332 199.825 31.9321L204.455 30.046ZM207.263 36.94L202.633 38.8261C202.658 38.8876 202.684 38.9486 202.712 39.009L207.263 36.94ZM207.389 37.3L202.508 38.3846C202.518 38.4275 202.528 38.4701 202.539 38.5127L207.389 37.3ZM202.259 35C202.553 35 203.277 35.0355 204.117 35.4559L199.645 44.4001C200.678 44.9165 201.653 45 202.259 45V35ZM204.362 35.5868C204.78 35.8257 205.239 36.1767 205.648 36.6763C206.063 37.1838 206.356 37.7596 206.527 38.3564L196.912 41.1036C197.334 42.5826 198.316 43.6497 199.401 44.2692L204.362 35.5868ZM206.566 38.4997L204.496 30.3457L194.803 32.8063L196.873 40.9603L206.566 38.4997ZM199.649 26.576H197.975V36.576H199.649V26.576ZM202.975 31.576V27.256H192.975V31.576H202.975ZM197.975 32.256H199.649V22.256H197.975V32.256ZM204.43 28.7219L206.5 21.9719L196.939 19.04L194.869 25.7901L204.43 28.7219ZM206.57 21.7187C206.432 22.2719 206.157 22.9282 205.648 23.5507C205.129 24.1843 204.494 24.6282 203.851 24.9037L199.912 15.7123C198.259 16.4204 197.235 17.8265 196.869 19.2933L206.57 21.7187ZM204.117 24.7801C203.277 25.2005 202.553 25.236 202.259 25.236V15.236C201.653 15.236 200.678 15.3195 199.645 15.8358L204.117 24.7801ZM202.259 25.236H206.813V15.236H202.259V25.236ZM206.813 25.236C206.193 25.236 204.809 25.0774 203.615 23.884C202.422 22.6906 202.263 21.3067 202.263 20.686H212.263C212.263 19.7653 212.03 18.1564 210.686 16.813C209.343 15.4696 207.734 15.236 206.813 15.236V25.236ZM202.263 20.686V22.594H212.263V20.686H202.263ZM202.263 22.594C202.263 22.5647 202.264 22.4843 202.275 22.3663C202.285 22.2562 202.309 22.0464 202.377 21.7773L212.078 24.2027C212.246 23.5295 212.263 22.9294 212.263 22.594H202.263ZM202.377 21.7773C202.435 21.5453 202.503 21.3722 202.55 21.2653L211.688 25.3267C211.832 25.0038 211.972 24.6267 212.078 24.2027L202.377 21.7773ZM202.533 21.3053L199.869 27.4433L209.042 31.4247L211.706 25.2867L202.533 21.3053ZM199.455 29.434V30.046H209.455V29.434H199.455ZM199.825 31.9321L202.633 38.8261L211.894 35.0539L209.086 28.1599L199.825 31.9321ZM202.712 39.009C202.67 38.9165 202.579 38.7009 202.508 38.3846L212.27 36.2154C212.152 35.6831 211.977 35.2275 211.815 34.871L202.712 39.009ZM202.539 38.5127C202.445 38.1387 202.425 37.8295 202.425 37.624H212.425C212.425 37.1785 212.382 36.6533 212.24 36.0873L202.539 38.5127ZM202.425 37.624V39.55H212.425V37.624H202.425ZM202.425 39.55C202.425 38.9293 202.584 37.5454 203.777 36.352C204.971 35.1586 206.355 35 206.975 35V45C207.896 45 209.505 44.7664 210.848 43.423C212.192 42.0796 212.425 40.4707 212.425 39.55H202.425ZM206.975 35H202.259V45H206.975V35ZM192.719 35C193.34 35 194.724 35.1586 195.917 36.352C197.111 37.5454 197.269 38.9293 197.269 39.55H187.269C187.269 40.4707 187.503 42.0796 188.846 43.423C190.19 44.7664 191.799 45 192.719 45V35ZM197.269 39.55V16.456H187.269V39.55H197.269ZM197.269 16.456C197.269 17.0767 197.111 18.4606 195.917 19.654C194.724 20.8474 193.34 21.006 192.719 21.006V11.006C191.799 11.006 190.19 11.2396 188.846 12.583C187.503 13.9264 187.269 15.5353 187.269 16.456H197.269ZM192.719 21.006H197.525V11.006H192.719V21.006ZM197.525 21.006C196.905 21.006 195.521 20.8474 194.327 19.654C193.134 18.4606 192.975 17.0767 192.975 16.456H202.975C202.975 15.5353 202.742 13.9264 201.398 12.583C200.055 11.2396 198.446 11.006 197.525 11.006V21.006ZM192.975 16.456V39.55H202.975V16.456H192.975ZM192.975 39.55C192.975 38.9293 193.134 37.5454 194.327 36.352C195.521 35.1586 196.905 35 197.525 35V45C198.446 45 200.055 44.7664 201.398 43.423C202.742 42.0796 202.975 40.4707 202.975 39.55H192.975ZM197.525 35H192.719V45H197.525V35ZM214.436 39.694L217.972 36.1585L217.972 36.1585L214.436 39.694ZM210.836 36.094L214.372 32.5585C214.336 32.5228 214.3 32.4876 214.263 32.453L210.836 36.094ZM210.836 24.106L214.263 27.747C214.3 27.7124 214.336 27.6772 214.372 27.6415L210.836 24.106ZM214.436 20.506L210.901 16.9705L210.901 16.9705L214.436 20.506ZM221.33 20.506L217.689 23.9328C217.724 23.9696 217.759 24.0058 217.795 24.0415L221.33 20.506ZM224.93 24.106L221.395 27.6415C221.43 27.6772 221.467 27.7124 221.503 27.747L224.93 24.106ZM224.93 36.094L221.503 32.453C221.467 32.4876 221.43 32.5228 221.395 32.5585L224.93 36.094ZM221.33 39.694L217.795 36.1585C217.759 36.1942 217.724 36.2304 217.689 36.2672L221.33 39.694ZM219.314 35.572L215.64 32.1806L215.64 32.1806L219.314 35.572ZM219.314 24.628L215.64 28.0194L215.64 28.0194L219.314 24.628ZM216.452 24.628L220.126 28.0194L220.126 28.0194L216.452 24.628ZM216.452 35.572L220.126 32.1806L220.126 32.1806L216.452 35.572ZM215.156 35C215.65 35 216.191 35.0948 216.725 35.3218C217.255 35.547 217.668 35.8553 217.972 36.1585L210.901 43.2295C211.995 44.3239 213.489 45 215.156 45V35ZM217.972 36.1585L214.372 32.5585L207.301 39.6295L210.901 43.2295L217.972 36.1585ZM214.263 32.453C214.627 32.7957 214.969 33.251 215.208 33.8143C215.446 34.3745 215.53 34.9164 215.53 35.374H205.53C205.53 36.997 206.17 38.5686 207.409 39.735L214.263 32.453ZM215.53 35.374V24.826H205.53V35.374H215.53ZM215.53 24.826C215.53 25.2836 215.446 25.8255 215.208 26.3857C214.969 26.949 214.627 27.4043 214.263 27.747L207.409 20.465C206.17 21.6314 205.53 23.203 205.53 24.826H215.53ZM214.372 27.6415L217.972 24.0415L210.901 16.9705L207.301 20.5705L214.372 27.6415ZM217.972 24.0415C217.668 24.3447 217.255 24.653 216.725 24.8782C216.191 25.1052 215.65 25.2 215.156 25.2V15.2C213.489 15.2 211.995 15.8761 210.901 16.9705L217.972 24.0415ZM215.156 25.2H220.61V15.2H215.156V25.2ZM220.61 25.2C220.152 25.2 219.611 25.1162 219.05 24.8782C218.487 24.6388 218.032 24.2969 217.689 23.9328L224.971 17.0792C223.805 15.8399 222.233 15.2 220.61 15.2V25.2ZM217.795 24.0415L221.395 27.6415L228.466 20.5705L224.866 16.9705L217.795 24.0415ZM221.503 27.747C221.139 27.4043 220.797 26.949 220.558 26.3857C220.32 25.8255 220.236 25.2836 220.236 24.826H230.236C230.236 23.203 229.596 21.6314 228.357 20.465L221.503 27.747ZM220.236 24.826V35.374H230.236V24.826H220.236ZM220.236 35.374C220.236 34.9164 220.32 34.3745 220.558 33.8143C220.797 33.251 221.139 32.7957 221.503 32.453L228.357 39.735C229.596 38.5686 230.236 36.997 230.236 35.374H220.236ZM221.395 32.5585L217.795 36.1585L224.866 43.2295L228.466 39.6295L221.395 32.5585ZM217.689 36.2672C218.032 35.9031 218.487 35.5612 219.05 35.3218C219.611 35.0838 220.152 35 220.61 35V45C222.233 45 223.805 44.3601 224.971 43.1208L217.689 36.2672ZM220.61 35H215.156V45H220.61V35ZM217.262 40.806H218.522V30.806H217.262V40.806ZM218.522 40.806C219.261 40.806 221.369 40.7178 222.988 38.9634L215.64 32.1806C216.336 31.4264 217.109 31.0948 217.591 30.9524C218.061 30.8138 218.408 30.806 218.522 30.806V40.806ZM222.988 38.9634C224.468 37.3598 224.53 35.4313 224.53 34.744H214.53C214.53 34.6677 214.534 34.3846 214.638 33.9859C214.741 33.5908 214.997 32.8775 215.64 32.1806L222.988 38.9634ZM224.53 34.744V25.456H214.53V34.744H224.53ZM224.53 25.456C224.53 24.7687 224.468 22.8402 222.988 21.2366L215.64 28.0194C214.997 27.3225 214.741 26.6092 214.638 26.2141C214.534 25.8154 214.53 25.5323 214.53 25.456H224.53ZM222.988 21.2366C221.369 19.4822 219.261 19.394 218.522 19.394V29.394C218.408 29.394 218.061 29.3862 217.591 29.2476C217.109 29.1052 216.336 28.7736 215.64 28.0194L222.988 21.2366ZM218.522 19.394H217.262V29.394H218.522V19.394ZM217.262 19.394C216.568 19.394 214.418 19.4596 212.778 21.2366L220.126 28.0194C219.41 28.7957 218.616 29.1216 218.15 29.2561C217.692 29.3885 217.358 29.394 217.262 29.394V19.394ZM212.778 21.2366C211.298 22.8402 211.236 24.7687 211.236 25.456H221.236C221.236 25.5323 221.232 25.8154 221.128 26.2141C221.025 26.6092 220.769 27.3225 220.126 28.0194L212.778 21.2366ZM211.236 25.456V34.744H221.236V25.456H211.236ZM211.236 34.744C211.236 35.4313 211.298 37.3598 212.778 38.9634L220.126 32.1806C220.769 32.8775 221.025 33.5908 221.128 33.9859C221.232 34.3846 221.236 34.6677 221.236 34.744H211.236ZM212.778 38.9634C214.418 40.7404 216.568 40.806 217.262 40.806V30.806C217.358 30.806 217.692 30.8115 218.15 30.9439C218.616 31.0784 219.409 31.4043 220.126 32.1806L212.778 38.9634Z" fill="white" mask="url(#path-1-outside-1_70_17)"/>
</svg>
