<svg width="1805" height="2614" viewBox="0 0 1805 2614" fill="none" xmlns="http://www.w3.org/2000/svg">
<path d="M0 441H1805V2614H0V441Z" fill="#B77717"/>
<path d="M0 0.999954H1805V441H0V0.999954Z" fill="#FFE49F"/>
<path d="M78 0.999954H520V258H78V0.999954Z" fill="#00C2FF"/>
<path fill-rule="evenodd" clip-rule="evenodd" d="M540 258C540 269.046 531.046 278 520 278H78C66.9543 278 58 269.046 58 258V0.999954H78V258H520V0.999954H540V258Z" fill="#E48900"/>
<path d="M1094 0.999954H1536V258H1094V0.999954Z" fill="#00C2FF"/>
<path fill-rule="evenodd" clip-rule="evenodd" d="M1556 258C1556 269.046 1547.05 278 1536 278H1094C1082.95 278 1074 269.046 1074 258V0.999954H1094V258H1536V0.999954H1556V258Z" fill="#E48900"/>
<path d="M0 345H1805V441H0V345Z" fill="#E48900"/>
<path d="M1733 0.999954H1805V2614H1733V0.999954Z" fill="#969696"/>
<path d="M78.0001 113L78.0001 14.9999L286.5 216V245.988L78.0001 113Z" fill="#D9D9D9"/>
<path d="M78.0007 0.499791L88.5007 0.499756L286.5 172V201.5L78.0007 0.499791Z" fill="#D9D9D9"/>
<path d="M520.414 35.2854V133.285L385.5 0.99995L412 0.999953L520.414 35.2854Z" fill="#D9D9D9"/>
<path d="M520.414 147.785L520.414 162L337.5 1.00019L364 1.00016L520.414 147.785Z" fill="#D9D9D9"/>
<path d="M1094.22 113.2V15.2003L1302.72 216.2V246.188L1094.22 113.2Z" fill="#D9D9D9"/>
<path d="M1094.22 0.700215L1104.72 0.70018L1302.72 172.2V201.7L1094.22 0.700215Z" fill="#D9D9D9"/>
<path d="M1536.64 35.4858V133.486L1401.72 1.20037L1428.22 1.20038L1536.64 35.4858Z" fill="#D9D9D9"/>
<path d="M1536.64 147.986L1536.64 162.2L1353.72 1.20061L1380.22 1.20058L1536.64 147.986Z" fill="#D9D9D9"/>
<path d="M742 0.999954H872V90C872 109.33 856.33 125 837 125H777C757.67 125 742 109.33 742 90V0.999954Z" fill="#D9D9D9"/>
<path fill-rule="evenodd" clip-rule="evenodd" d="M837 140C864.614 140 887 117.614 887 90V0.999954H872V90C872 109.33 856.33 125 837 125H777C757.67 125 742 109.33 742 90V0.999954H727V90C727 117.614 749.386 140 777 140H837Z" fill="#B77717"/>
<path d="M828 24.5C828 35.2695 818.598 44 807 44C795.402 44 786 35.2695 786 24.5C786 13.7304 795.402 4.99995 807 4.99995C818.598 4.99995 828 13.7304 828 24.5Z" fill="#050505"/>
<path d="M806.5 44L832.914 107.75H780.086L806.5 44Z" fill="#EA1D1D"/>
<path d="M285 0H301V262H285V0Z" fill="#E48900"/>
<path d="M1301 0H1317V262H1301V0Z" fill="#E48900"/>
</svg>
